<svg id="Layer_1" data-name="Layer 1" xmlns="http://www.w3.org/2000/svg" viewBox="0 0 527.83 679.77"><defs><style>.cls-1{fill:#591c1c;}.cls-2{fill:#d9b8b8;}.cls-3{fill:#a9cbd9;}</style></defs><path class="cls-1" d="M338.81,508.54l-.42-.16h-.33l.27.26Z" transform="translate(-5)"/><path class="cls-1" d="M236.64,536.52v-.16l-.29.09Z" transform="translate(-5)"/><path class="cls-2" d="M403.16,140c-.8-16-1.88-32.09-6.17-47.66a171.65,171.65,0,0,0-6.65-18.69c-1.83-4.52-4.2-8.82-6.4-13.19-13.88-27.52-35.12-46.76-64.63-56C297.1-2.53,275-1.74,254.39,10a274.49,274.49,0,0,0-33.13,22c-32.49,25.32-64.6,51.13-95.72,78.16C99.18,133,73.37,156.5,49.66,182.19c-13.31,14.42-25.55,29.59-34.31,47.3a101.53,101.53,0,0,0-9.63,28.72c-2.61,16.11,1.77,29.84,15.12,39.87,5.28,4,11.1,7.23,16.73,10.72,3.23,2,6.58,3.83,9.24,5.36,6.64,15.27,13.09,29.6,19.12,44.1a252.86,252.86,0,0,0,33.87,58.8,135.64,135.64,0,0,0,50.07,40.36,195.89,195.89,0,0,0,72.73,18.22l10.64.58c1.68,5.21,7.79,7,8.93,12.93-2.79,1.43-5.27,2.6-7.67,3.93-8.89,4.95-15.35,12.06-18.5,21.81-3.48,10.74-1.58,29.8,4,41.17l5.17.55a140.16,140.16,0,0,1,21-26c8.32-8.18,17.83-14.29,29.5-20.3,4.7,19.37,6.74,38,9.82,56.45,3,18.25,5.8,36.56,9.09,54.76,3.35,18.51,7.2,36.92,11,56.07,1.37,1.9,3.61,3.13,7.44,1.37.09-2,.63-4.38.24-6.62-1.15-6.53-2.87-12.95-4-19.49q-11.49-66-22.79-132.11a39.27,39.27,0,0,1-.14-5.42,21.52,21.52,0,0,1,4.3-.78c11.69.33,23.28,1.3,34.57,4.16A106,106,0,0,1,308.86,507l-18.32-1.83-5.39-.51c-.59-1.28-1.12-2.46-1.92-4.21,4.38-2.35,8.53-4.73,12.71-6.92a96.63,96.63,0,0,1-8-11.74,46.37,46.37,0,0,1-6.83,3.55c-2.54-5.65-4.79-10.62-7.33-16.24l6.18-2.11a56.43,56.43,0,0,1-3.82-9.68,117.66,117.66,0,0,1-37.49,8A169.35,169.35,0,0,1,143.29,442c-12.13-7.07-22.36-16.52-31.59-27.2-9-10.37-16.49-21.65-23.62-33.27a91.67,91.67,0,0,1-8.76-19.35c6.86-.38,11.34,4.86,18.74,5.09-3.61-4.13-7.47-4.88-10.69-6.54-3.41-1.76-7-3.21-10.51-4.81-2.94-3.55-5.1-7.38-5.59-11.9,2.48-2.24,4.14-.16,5.73.66,9,4.64,17.78,9.69,26.87,14.13a181.59,181.59,0,0,0,17.51,6.94c1.79.66,3.81.72,8,1.45-4.5-4.29-8.47-4.33-11.73-5.78-3.51-1.57-7.12-2.88-10.63-4.45s-7-3.25-10.39-5c-3.11-1.57-6.19-3.23-9.24-4.93-3.36-1.86-6.7-3.76-10-5.73s-6.51-4.07-10-6.24c-1.81-3.46-4.49-6.67-4.74-11,3.45-1.63,5.74.53,8.12,1.66,15.44,7.37,30.89,14.73,46.22,22.34a267.18,267.18,0,0,0,46.88,18c24.05,6.72,48.27,7.65,72.28-.15a130.12,130.12,0,0,0,12.91-5c-1.6-3.48-1.19-7.25.11-10.77a99.66,99.66,0,0,1-33.36,9.93,122.79,122.79,0,0,1-47.77-3.49,229.67,229.67,0,0,1-40.22-14.92c-26.32-13-52.62-25.94-78.8-39.16a174.89,174.89,0,0,1-19.7-11.85C18,283,14.36,271.92,16.92,258.67a95.44,95.44,0,0,1,15.57-36.36,309.93,309.93,0,0,1,21.67-28.18c15.66-17.83,32.61-34.45,50.06-50.56q34.64-32,71.39-61.48c18.27-14.6,36.29-29.52,54.77-43.85a248.58,248.58,0,0,1,27.74-18.77C276,9.12,295.42,7.69,314.87,13.6c25.89,7.87,44.94,24.47,57.95,48.3,13.95,25.56,18.44,53.18,18.95,81.78.19,10.65-2.54,20.74-6.13,30.65-13.83,38.21-33.73,72.76-61.78,102.37-3.52,3.71-6.38,8.18-11.66,11-1.23-4.36.71-7.88,1.21-11.5.52-3.8,1.28-7.57,2-11.75,6.06-9.42,15-17.36,19-28.61-6.64,5.45-9.91,13.89-17.23,19.55-2.25-3.7-1.52-7.12-1.72-10.11l8.63-14.14c-4.83-.56-4.52,4.72-7.74,4.83-.51-.37-1.37-.67-1.47-1.13-2.2-10.57-3.84-21.29-6.56-31.72a170.83,170.83,0,0,0-19.5-45c-11.67-19.36-23.89-24.17-45.93-18.44a169.52,169.52,0,0,0-36.1,13.89q-29.21,15.3-57.55,32.23c-9.85,5.89-18.86,13.21-28,20.17a49.33,49.33,0,0,0-13.69,15.65c-6,10.91-8.29,23.21,3.76,37.91a182.26,182.26,0,0,0,24.59,24.15,166,166,0,0,0,40.26,24.24,113.35,113.35,0,0,0,12.81,4.56c10,3,19.45,1.19,27.85-4.89a68.11,68.11,0,0,0,11.72-10.37c17-19.6,25-42.57,24.22-68.43a55.38,55.38,0,0,0-3.11-15.3c-3.38-10.31-8.91-13-19.37-9.3a95.77,95.77,0,0,0-18.12,8.12c-14.6,8.91-28.92,18.29-43.19,27.73a34.36,34.36,0,0,0-13.2,15.89c-3.28,8.1-1.39,15.79,6,20.11A56.66,56.66,0,0,0,199,283.13a17.4,17.4,0,0,0,11.31-7c1.7-2.19,3.1-4.62,4.73-7.1l2.88-.63,3.19-.66-4-4.65,5.9-3.36-4.56-5.13,8.21-2.05c0-.45.15-1,0-1.08-1.68-1-3.4-1.9-6.35-3.52l10-4.1-6.3-2.37c0-.87.07-1.81.13-3.28l9.37.41c.58-3.29-1.94-2.46-3.24-3-1.49-.65-3-1.12-4.69-1.71,2.37-4.94,7.65-.37,10.72-4.37l-7.9-2.07c-.46-.85-1.12-1.49-1-2,.47-3.4,1.1-6.79,1.78-10.81l9.07-2.11c3.55,5.48,4.53,10.93,4.66,16.5.58,25.34-7.76,47.18-25.58,65.41-9.1,9.31-19.39,11.8-31.46,6.88-20.94-8.53-39.76-20.35-55.72-36.43a121,121,0,0,1-13.47-15.93c-4.23-6.06-5-12.85-.87-19.94,4.51.81,6.17,4.52,8.68,7.16,4.32,4.55,8.56,9.17,13,13.59a10.84,10.84,0,0,0,5.47,2.59c-8-9.5-17.89-17.28-23.8-29l5.27-5.44c2.29,2.56,4,4.66,5.93,6.59,1.65,1.68,3.48,3.18,6.42,5.83-.34-4.44-2.91-5.88-4.19-8-1.45-2.34-3-4.62-4.77-7.4l5.11-4.86,7.45,3.31c-1-2.8-1.65-4.65-2.53-7.11,3-2.36,5.9-4.83,9-7A417.09,417.09,0,0,1,196.43,170c11.49-5.86,23.28-11.16,35.11-16.29a91.89,91.89,0,0,1,16-5c16-3.68,23-.74,31.84,12.93,7.43,11.52,12.68,24.08,17.21,36.95a159.42,159.42,0,0,1,8.62,57.72c-.56,19.81-5.16,38.14-14.52,54.31,7.68-2.74,15.12-5.49,22.44-8.43,4.3-3.8,8.44-7.82,12.54-11.85a290.87,290.87,0,0,0,62.83-91.95c1-2.37,1.51-5.3,4.5-6.24a.66.66,0,0,0,0-.14l.31,0c-.12,0-.2.08-.32.12-.36,10.73-.55,21.47-1.23,32.18-.17,2.62-1.61,5.36-3.07,7.67-10.95,17.4-22.44,34.38-35.44,50.25,1.39-.4,2.78-.77,4.17-1.08C366,269.74,374.47,258.13,383,246.6c1.81-2.45,3.6-4.91,5.69-7.76,1.57,6,1.49,10.76-.82,16.38a53.61,53.61,0,0,1-5.47,10.07L378,271.6c2.45-1.22,4.91-2.43,7.39-3.58l.44-.45c0,.08,0,.16,0,.25a105.39,105.39,0,0,1,11.4-4.56C403.83,222.36,405.22,181.3,403.16,140ZM257.83,473.87l3.95,4.48c.74-2.14,1.4-4,2.22-6.36l5.4-.92c-.38,6.14,2.7,11.15,2.21,16.71-10.5,1.22-14.94-.8-21.48-9.44C251.21,474.82,253.59,473.34,257.83,473.87Zm-2.35,24.35c4.25.78,9,.85,12.21,5.07-3.54,2.28-6.66,4.34-9.83,6.34s-6.51,4-9.76,6l-1.72,2c.26-1.29.36-1.83.47-2.36l-2.34-2.21c-3.88,3.31-5.67,7.74-7.81,11.95-2.46,4.79-4.88,9.67-10.64,11.31,0,0,0,.11,0,.16l-.29-.07.3-.09c.05-8,5.77-13.67,9.76-21.68-6.7,2.07-6.94,8.61-12.08,11.57-.22-13.2,6.46-20.79,16.47-26.2C245,497.45,250.27,497.27,255.48,498.22Zm-38-271.92c-3.29,11.77-6.63,23.53-10.16,35.23-1.51,5-3.52,9.84-9.61,11.69-2.81-4.79,3.05-8.58.74-13.27-5.12,3.19-2.49,12-10.34,13.63-.66-9.06,6.52-15.45,6.95-24.81-3.71,2.32-4,5.64-5.28,8.18s-2.1,5.18-3.33,7.68-1.61,6-5.75,7.88c-.89-6.53,3.74-10.91,4-16.14-1.92-1.36-2.51.12-3.11,1.23-1.16,2.13-2.21,4.32-3.31,6.49-.38,2.21-.22,4.75-3.79,5.64a7,7,0,0,1,2.11-6.07c-.12-1.32-.24-2.65-.52-5.63-2.63,4.24-4.52,7.27-6.76,10.87l-4.66-3.79c-.93-4.93,1.07-8.22,3.69-11.08a44.82,44.82,0,0,1,7.71-7c11.3-7.6,22.74-15,34.18-22.38,2-1.3,4.23-2.28,7.31-3.92C217.5,223.2,217.86,224.86,217.46,226.3Z" transform="translate(-5)"/><path class="cls-1" d="M312.07,500c-.16-.16-.32-.32-.47-.49l-.5.28Z" transform="translate(-5)"/><path class="cls-1" d="M294.3,474.17h0l-.06-.12Z" transform="translate(-5)"/><path class="cls-3" d="M270.53,457.69A170.66,170.66,0,0,1,264,417.31c-.48-10.48-1.26-20.95-1.94-32.05-1.32-1.57-3-3.48-4.58-5.48-2.74-3.48-5.64-6.86-8.05-10.55-6.1-9.35-5.71-19-.39-28.49a67.59,67.59,0,0,1,12.6-15.83c9.54-9.12,20.69-15.85,32.34-21.87,20.76-10.71,42.32-19.55,64.1-27.91,25.71-9.87,51.77-18.74,78-27.22a184.29,184.29,0,0,1,25.84-6.27c15.6-2.63,29.66,1.92,42,11.37,16.41,12.57,25.36,29.5,27.79,49.95.38,3.24.89,6.49,1,9.75a114.65,114.65,0,0,1-.09,13.24c-.86,10.76-3.85,21.1-7,31.34-8.33,27-18.89,53.15-32.9,77.87-5.51,9.73-10.31,19.87-16.62,29.14-13.38,19.66-29.3,36.84-48.65,50.8a114.12,114.12,0,0,1-28.49,14.72l-3.74,1.34a27.7,27.7,0,0,1-10,16.4c.92.74,1.33,1.3,1.86,1.46,8.62,2.52,13.75,8.68,16.6,16.72,1.79,5,2.7,10.37,3.84,15.6a5.15,5.15,0,0,1-2.37,5.84A12.8,12.8,0,0,1,401.6,586a65.46,65.46,0,0,1-6.06-4.74c-7.79-6.55-16.81-10.88-26.18-14.59a15.21,15.21,0,0,0-2.88-.49,26.53,26.53,0,0,0-1.14,3.44q-8,44.07-15.86,88.15c-.78,4.36-1.17,8.79-1.94,13.16a19.54,19.54,0,0,1-1.66,4.09c-2.81.23-3.93-1-4.36-2.55,2-12.89,3.8-25.33,5.93-37.71,2.09-12.18,4.53-24.31,6.79-36.46s5.25-24.46,6.72-37.69c-8.69,1.11-16.06,2.78-23.16,6a94.3,94.3,0,0,0-19.11,11.56l-3.12-1.52c-.9-8.41,2.26-20.81,6.9-26.77a25.25,25.25,0,0,1,16.6-9.46c1.8-.29,3.63-.46,5.71-.72.63-4-2.79-6.5-2.66-10.16l-6.54-2.79a130.84,130.84,0,0,1-41.51-28A90.63,90.63,0,0,1,271.84,462c-.46-1.42-.9-2.84-1.31-4.27M394.16,571.37l.22.2-.32-.05a13.58,13.58,0,0,0-1.64-2.95,31.19,31.19,0,0,0-10.9-7.36,19,19,0,0,1-2.53-1.48,8.41,8.41,0,0,1,5.43.64,25,25,0,0,1,4.21,2.46c1.51,1.06,2.93,2.28,4.36,3.46s2.72,2.34,4.06,3.49c.5-.55.76-.7.76-.84-.18-7.18-8.27-15.35-16.6-14.57-4.35.4-8.66,1.2-13.24,1.86.1,1.29.17,2.15.24,3.09l3.28,1.55q9.72,4.68,19.46,9.35C392,570.7,393.09,571,394.16,571.37Zm-70.49-5.68c4.12.39,6.79-2.17,9.47-4.66,2.31-2.15,4.44-4.52,7.64-5.72l1,1.92-.83,1.38,1.54-.88c2.5-.51,5-1,7.51-1.55s4.87-1.11,7.61-1.74c-1.08-3.38-4-4.51-6.51-6a15.2,15.2,0,0,0-10-2.35c-7.52,1.12-13.45,4.36-16.32,12.7,3.89-.69,5.54-4.74,10.22-4.51-4.36,4.15-9.29,6.4-11.12,11.48ZM356,383.82c1.18-1.11,2.34-2.25,3.56-3.32.63-.55,1.34-1.35,2.23-.06-1.34,3.24-5.24,4.93-6.18,9.23,3-.22,4-2.28,5.42-3.63s2.48-2.8,3.84-4.07,2.33-3.32,5.19-3.92c-2.41,5.77-8.38,8.15-10,14,5.29.79,5.66-5.36,9.6-6.19.38,3.47-4.17,4.51-3.49,8.16,4.24.23,6.61-2.35,8.7-5.14,4.89-6.54,9.67-13.17,14.42-19.81a15.34,15.34,0,0,0,1.29-3.48c-2.3.32-3.92.43-5.48.79-8.87,2-17.74,4.05-26.57,6.24a30,30,0,0,0-6.44,2.64c-2.3,1.2-4.31,2.8-4.85,6.11l2.06,3.45,6.73-5.28c-.51,1.93-.74,2.79-1,3.65a4.67,4.67,0,0,0-2.71,3.33C354.79,386.75,355.27,385.12,356,383.82Zm151.49,3.89c-2.27-.24-3.25,1.6-4.48,2.9A194.26,194.26,0,0,1,442.58,434c-4.65,2.13-9.35,4.22-14.17,5.93a31.93,31.93,0,0,0-9.75,5.23c-14.44,11.64-31.16,16.52-49.52,15.88-16.86-.59-31.85-6.7-45.42-16.42a177.88,177.88,0,0,1-25.32-22c-7.89-8.28-15.91-16.43-23.92-24.58-1.24-1.26-2.18-3.14-4.72-2.91-.83,2.77.12,5.4.47,8,1.67,2.15,3.21,4.2,4.83,6.19s3.28,3.94,5,5.88c1.53,1.76,3.08,3.5,4.68,5.2,1.76,1.87,3.54,3.72,5.38,5.5s3.82,3.44,5.66,5.22,4.2,2.59,6.05,6.31a40.4,40.4,0,0,1-4.68-2.73,122.62,122.62,0,0,1-9.41-8.36c-4.69-4.86-9.06-10-13.64-15-.81-.87-1.38-2.56-3.45-1.72a15.05,15.05,0,0,0,.79,8.75c1.86,1.82,3.77,3.54,5.51,5.42s3.89,3.13,5.21,6.55c-4.59-1.84-6.2-6.15-10.6-7.48A61.09,61.09,0,0,0,272.6,437a168.37,168.37,0,0,0,7.23,26.29c3.37,8.81,7.63,17.08,13.63,24.29A113.18,113.18,0,0,0,348,524a79,79,0,0,0,41.47,1.52A95.61,95.61,0,0,0,423,510.25c14.68-10.18,27.26-22.62,38.46-36.48,1.29-1.6,2.36-3.38,3.69-5.3a23,23,0,0,1-2.37-.66,13.36,13.36,0,0,1-1.67-1c9.24-4.33,11.15-6.41,13.5-14.79-4.25.55-7.32,4.64-13,3.9,4.28-2.27,7.46-4.15,10.81-5.68,6.91-3.16,9.91-9.26,13.19-16.84-6.35,2.93-10.64,6.9-15.61,9.7s-9.17,6.63-15.23,7.21c.07-.74,0-1.11.12-1.15,10.45-4.76,19.76-11.39,29.09-18a35.93,35.93,0,0,0,5.73-5.08A15.81,15.81,0,0,0,493.93,416l-5.34,3.57c-10.1,6.69-20.13,13.5-30.35,20-3.31,2.11-7.09,3.49-10.7,5.11-.74.33-1.89.64-2-.84,18.07-8.53,34.22-20,49.89-32.12a11.84,11.84,0,0,0,3.68-4.12c2.88-6.59,5.46-13.33,8.16-20Zm-72.75,41.51c3.95-.55,6.77-2.7,9.82-4.22,24.38-12.19,44.76-29.34,62.17-50.17,4.52-5.41,8.54-11.12,10.85-17.85,6.21-18.07,9.7-36.44,6.77-55.67-2.72-17.94-10.9-32.71-25.36-43.56-10.86-8.15-23.38-11.69-37-9.28a167.18,167.18,0,0,0-21.7,5.45c-14.88,4.78-29.6,10-44.41,15Q366.1,279,337.07,291.25a454.42,454.42,0,0,0-43,20.32,206.74,206.74,0,0,0-20,12.75A63.59,63.59,0,0,0,256,343.59c-4.64,7.73-4.88,15.51.46,23a115.68,115.68,0,0,0,9.67,11.94c13.42,14.29,27,28.44,40.53,42.59a153.61,153.61,0,0,0,21.86,18.55,81.9,81.9,0,0,0,29.19,13.1,64.91,64.91,0,0,0,40.51-3.21c19.1-8,31.8-22.6,39.3-41.57a106.3,106.3,0,0,0,7.77-38.22c.1-9.11-.33-18.2-2.36-27.13-2.42-10.59-6.19-14.05-17.05-15.39a62.25,62.25,0,0,0-11.16-.53c-8.6.52-17.21,1.15-25.77,2.21A277.54,277.54,0,0,0,351.12,336c-2.44.65-4.81,1.55-7.25,2.34,0,1.75,0,3.05,0,5l-3.92-3.78-4.33,1.88c.5,2.16.93,3.95,1.31,5.74.33,1.6,1.61,3.09.81,6-1.24-2.34-2-3.7-2.7-5.13-.75-1.65-1.36-3.36-2.22-5.49l-4.55,2.21c1,8.71,5.47,15.86,8.32,23.64a7.24,7.24,0,0,1-2.84-2.87c-1.78-3.79-3.39-7.66-5.06-11.5-1-2.23-1.17-4.94-3.81-6.48a11.59,11.59,0,0,0-4,12.72,81.76,81.76,0,0,0,4.82,13.08,110.18,110.18,0,0,0,26.67,35.59c6.46,5.85,13.48,6.64,21.33,2.87,15.35-7.38,25.57-19.19,31-35.23a20.13,20.13,0,0,0,.84-11.43l-6.17-.74c-1.35,2.37-2.52,4.35-3.59,6.38-.17.32.09.87.19,1.51l4.49,3.11c-2.84,1.81-5.12-2.27-7.73.29.9.75,1.77,1.4,2.55,2.14s2.46.71,1.35,2.64l-5.79-2.4c-.37.91-.61,1.5-.84,2l3.42,2.93-7.21.29c1.49,1.7,2.36,2.67,3.19,3.67.06.08-.15.39-.26.67l-5.62-.58c.75,1.89,1.22,3.06,1.69,4.26l-4.47.76,1.44,3.83-2.15-.32-2-.25c-1.59,1.18-3,2.39-4.6,3.37a11.62,11.62,0,0,1-8.7,1.82,37.9,37.9,0,0,1-21.81-13c-3.63-4.38-3.05-9.65.85-14a23,23,0,0,1,11.92-7c11.11-2.66,22.25-5.28,33.45-7.55a63.54,63.54,0,0,1,13.23-.95c7.41.07,10.27,3,10,10.26a37.24,37.24,0,0,1-1.54,10.31A64.78,64.78,0,0,1,380,416.07a46.15,46.15,0,0,1-9.73,3.84,20.52,20.52,0,0,1-18.61-3.3,74.57,74.57,0,0,1-7-5.78A110.64,110.64,0,0,1,325,386.41,122.23,122.23,0,0,1,315,365.63c-4.2-12,.05-19.17,6.3-24.66a33,33,0,0,1,12.17-6.7c7.35-2.27,14.68-4.81,22.21-6.26q21.63-4.15,43.5-7.1a113.21,113.21,0,0,1,25.83-.48c15.15,1.44,21.73,7.25,24.63,22.07a113.86,113.86,0,0,1,2,32.73c-.67,7.17-2.09,14.27-3.12,21.41,0,.31.43.7.66,1.05,2.05.66,3.06-2.72,6-1.27l-8.64,6.91c-.56,1.93-1.79,3.9-1.23,6.74,5.89-1.88,9.87-6.44,15.28-8.34-5.08,6.15-12.5,9.1-18.46,13.63-1.41,2.46-2.74,4.65-3.94,6.92S435,426.21,434.76,429.22Zm-64.69,117c10-.51,15.83-4.78,17.8-13l-2.91-.09c-.66,1.86-1.23,3.59-1.9,5.27-.1.24-.7.27-1.3.48-.11-1.56-.21-3.06-.33-4.92l-4.1.3c-.85,2.14-1.56,3.92-2.26,5.7l-.79-.18c-.13-1.7-.26-3.41-.42-5.34l-4.69-.1C369.48,538.49,369.76,542.13,370.07,546.25Zm-17.83-11.48c2.14,6.92,4.47,9.2,11.33,10.83,1.58-3.38.79-7.22,2.44-11L362.4,534l-2.84,3.48-1.46-3.71C355.56,532.42,353.72,532.8,352.24,534.77Z" transform="translate(-5)"/></svg>