<svg xmlns="http://www.w3.org/2000/svg" viewBox="0 0 58.85 93.86"><defs><style>.cls-1{fill:#fff;}</style></defs><g id="Layer_2" data-name="Layer 2"><g id="Layer_1-2" data-name="Layer 1"><path class="cls-1" d="M48.38,61.07A14.37,14.37,0,0,0,40,57.92,26.89,26.89,0,0,0,51.41,45.17a36.9,36.9,0,0,0,2.5-18.62,1.15,1.15,0,0,0-1.09-1c3.26-3,5.9-6.86,6-11.4.12-4.31-2.49-8-6-10.24C48.73,1.29,43.65.7,38.92.28A51.8,51.8,0,0,0,23.85.87C15.48,2.57,7.45,7.62,4,15.69A20.54,20.54,0,0,0,2.5,21.4a.89.89,0,0,0,.2.69A14.36,14.36,0,0,0,.58,25.9,9.44,9.44,0,0,0,3,36a16.24,16.24,0,0,0,8,4C9,49.6,16.59,59,26,60.56A33.4,33.4,0,0,0,11.19,80.9,1.09,1.09,0,0,0,13,82a175.43,175.43,0,0,0,20.07-19.9.76.76,0,0,0,.08.11A211.24,211.24,0,0,0,36.6,93.08c.25,1.37,2.35.79,2.09-.58a208.56,208.56,0,0,1-3.34-29.38A40,40,0,0,1,53.88,75.67c.75.91,2-.1,1.81-1.06C54.69,69.54,52.53,64.36,48.38,61.07ZM2.77,26.22c1.47-3.62,4.77-6.28,8-8.35A41.81,41.81,0,0,1,33.4,11.1a29.29,29.29,0,0,1,5.69.4,10,10,0,0,1,1.45.37l-4.68,1.46a1.09,1.09,0,0,0,.57,2.1l5.92-1.85a1.1,1.1,0,0,0,.4-.24,2.49,2.49,0,0,1,.19.3,2.15,2.15,0,0,1,.19.71L33,17.4a1.09,1.09,0,0,0,.57,2.1L42,17a12.37,12.37,0,0,1-1.53,1.36,50.8,50.8,0,0,1-5.08,3.37c-.9.52-1.81,1-2.73,1.49a1,1,0,0,0-.38-.35c-3.8-2.05-9.93-3.49-14-2.11-2.94,1-8.46,4.41-5.87,8.22,1.12,1.63,3.27,1.69,5,1.44a48.17,48.17,0,0,0,7-1.58,55.16,55.16,0,0,0,13.27-6c2.46-1.52,6.63-3.88,7.49-7a1.13,1.13,0,0,0,.15-1.08,4.7,4.7,0,0,0-.15-1.32c-1-3.72-5.88-4.2-9-4.4a43.51,43.51,0,0,0-11.55.86l.34-.48a1.08,1.08,0,0,0-.39-1.48,1.07,1.07,0,0,0-.84-.11,1.22,1.22,0,0,0-.64.5c-.57.79-1.14,1.58-1.7,2.38-.18.05-.35.09-.52.15l.39-.7a1.09,1.09,0,0,0,.11-.83,1.06,1.06,0,0,0-.5-.65A1.09,1.09,0,0,0,19.33,9c-.5.86-1,1.72-1.48,2.59a1,1,0,0,0-.08.24,43.33,43.33,0,0,0-8.33,4.26A33,33,0,0,0,5,19.56C6.43,13.3,11.34,8.23,17,5.42c7.6-3.77,16.58-3.69,24.8-2.66,4.1.52,8.49,1.44,11.64,4.31A9.33,9.33,0,0,1,56,17.54c-1.46,4-4.89,6.86-8.22,9.28a69.69,69.69,0,0,1-10.37,6.29c-7.15,3.49-15.31,5.75-23.33,5.09C8,37.69-.22,33.64,2.77,26.22Zm27.28-1.81a54.13,54.13,0,0,1-6,2.24,52.75,52.75,0,0,1-5.93,1.43c-1.4.26-5.07.74-4-1.85.74-1.73,2.8-2.74,4.47-3.34a14,14,0,0,1,5.52-.77C25.69,22.22,28.23,23.46,30.05,24.41ZM13.11,40.34a40.76,40.76,0,0,0,13.57-1.07A61.19,61.19,0,0,0,51.74,26.46s0,.06,0,.09c.1,1,.17,2,.2,3,0,0-.11.07-.16.13A20.77,20.77,0,0,1,41.07,35.9c-1.36.31-.79,2.4.58,2.09a22.59,22.59,0,0,0,10.29-5.45c0,1.15-.13,2.3-.28,3.43l-.1,0a25.83,25.83,0,0,1-9,4.35,1.09,1.09,0,0,0,.58,2.09,27.38,27.38,0,0,0,8-3.53,25.92,25.92,0,0,1-8.58,14.71c-7.23,5.94-18.21,7.19-25.13.11A14.92,14.92,0,0,1,13.11,40.34Zm1.32,37.47a31.29,31.29,0,0,1,15.66-17c.43,0,.86-.06,1.29-.11A176.72,176.72,0,0,1,14.43,77.81ZM35.59,60.92s.07,0,.1,0c3.93-1.83,8.74-.48,11.87,2.31A18.37,18.37,0,0,1,52.45,71,41.89,41.89,0,0,0,35.59,60.92Z"/></g></g></svg>