<svg id="background-flowers" xmlns="http://www.w3.org/2000/svg" viewBox="0 0 1229.86 684.85"><defs><style>.cls-1,.cls-3,.cls-4{opacity:0.62;}.cls-2,.cls-4{fill:#d9b8b8;}.cls-3,.cls-5{fill:#a9cbd9;}.cls-6{fill:#bf999c;}</style></defs><g id="swirl1" class="cls-1"><path class="cls-2" d="M659.88,237.68c5.17,6.56,16.38,6.83,21.79.36,2.89-3.47,2.14-8.8-.12-12.42s-6.47-5.76-10.65-4.66-6.89,5.93-5,9.94a6.2,6.2,0,0,0,9.63,1.83c.92-.89-.49-2.31-1.42-1.41-2.1,2-5.91.78-6.65-2-.91-3.34,1.91-6.45,5.16-6.66,3.76-.25,6.85,2.41,8.13,5.78a10.77,10.77,0,0,1,.71,5.38,7,7,0,0,1-3.17,4.57c-5.41,3.85-13.69,2.9-17.44-2.79a11.94,11.94,0,0,1,3.08-16.56A19.12,19.12,0,0,1,674,215.87c3.83-.17,8,.55,10.76,3.39.91.92,2.32-.5,1.42-1.42-5.78-5.88-16.9-4.89-23.26-.49a13.79,13.79,0,0,0-6,9.46A14.61,14.61,0,0,0,659.88,237.68Z" transform="translate(-53.56 -52.92)"/><path class="cls-2" d="M680.33,207.4a1,1,0,0,0,0-2A1,1,0,0,0,680.33,207.4Z" transform="translate(-53.56 -52.92)"/><path class="cls-2" d="M645.09,222.21a1,1,0,0,0,0-2A1,1,0,0,0,645.09,222.21Z" transform="translate(-53.56 -52.92)"/><path class="cls-2" d="M708,225.56a1,1,0,0,0,.26.45,1.05,1.05,0,0,0,.7.29h1a.85.85,0,0,0,.38-.09.83.83,0,0,0,.32-.2.78.78,0,0,0,.21-.33.82.82,0,0,0,.09-.38l0-.27a1,1,0,0,0-.26-.44,1,1,0,0,0-.7-.29h-1a.73.73,0,0,0-.38.08.94.94,0,0,0-.53.53.86.86,0,0,0-.09.39C707.94,225.39,708,225.48,708,225.56Z" transform="translate(-53.56 -52.92)"/><path class="cls-2" d="M647.65,254.89a1,1,0,0,0,0-2A1,1,0,0,0,647.65,254.89Z" transform="translate(-53.56 -52.92)"/></g><g id="swirl1-2" data-name="swirl1" class="cls-1"><path class="cls-2" d="M79.38,716.67c8.29,1,16.41-6.76,15.66-15.16-.41-4.5-4.71-7.74-8.87-8.7s-8.64.5-10.82,4.24-.69,9.06,3.49,10.56a6.19,6.19,0,0,0,8.1-5.51,1,1,0,0,0-2,0c0,2.93-3.62,4.73-6.09,3.32-3-1.72-3.2-5.91-1.06-8.36,2.49-2.84,6.55-3.14,9.84-1.66a10.78,10.78,0,0,1,4.31,3.3,7.08,7.08,0,0,1,1,5.48c-1.11,6.54-7.64,11.72-14.31,10.35a11.93,11.93,0,0,1-9.53-13.88,19.15,19.15,0,0,1,4.85-9.4c2.59-2.83,6-5.25,10-5.21a1,1,0,0,0,0-2c-8.25-.08-15.42,8.49-16.8,16.1a13.82,13.82,0,0,0,2.41,11A14.65,14.65,0,0,0,79.38,716.67Z" transform="translate(-53.56 -52.92)"/><path class="cls-2" d="M72.43,680.79A1,1,0,0,0,71,679.38,1,1,0,0,0,72.43,680.79Z" transform="translate(-53.56 -52.92)"/><path class="cls-2" d="M58,716.18a1,1,0,0,0-1.42-1.41A1,1,0,0,0,58,716.18Z" transform="translate(-53.56 -52.92)"/><path class="cls-2" d="M104.81,674.1a1.05,1.05,0,0,0,.49.13,1,1,0,0,0,.71-.3l.72-.72a.72.72,0,0,0,.21-.33.71.71,0,0,0,.08-.38.69.69,0,0,0-.08-.37.72.72,0,0,0-.21-.33l-.21-.17a1.24,1.24,0,0,0-.5-.13,1.09,1.09,0,0,0-.7.3l-.73.72a.72.72,0,0,0-.21.33.81.81,0,0,0-.08.38.8.8,0,0,0,.08.37.72.72,0,0,0,.21.33Z" transform="translate(-53.56 -52.92)"/><path class="cls-2" d="M82.9,737.48a1,1,0,0,0-1.41-1.41A1,1,0,0,0,82.9,737.48Z" transform="translate(-53.56 -52.92)"/></g><g id="swirl1-3" data-name="swirl1" class="cls-1"><path class="cls-2" d="M121.7,74c-8.3-1-16.42,6.76-15.66,15.16.4,4.5,4.71,7.74,8.86,8.71s8.65-.51,10.83-4.25.68-9.06-3.5-10.56a6.2,6.2,0,0,0-8.1,5.51,1,1,0,0,0,2,0c0-2.92,3.63-4.73,6.09-3.32,3,1.72,3.21,5.92,1.06,8.36-2.48,2.84-6.54,3.14-9.84,1.66a10.82,10.82,0,0,1-4.3-3.3,7,7,0,0,1-1-5.48c1.11-6.54,7.63-11.72,14.31-10.35A12,12,0,0,1,132,90.06a19.25,19.25,0,0,1-4.85,9.39c-2.59,2.83-6,5.25-10,5.21a1,1,0,0,0,0,2c8.25.08,15.41-8.49,16.79-16.1a13.77,13.77,0,0,0-2.41-11A14.58,14.58,0,0,0,121.7,74Z" transform="translate(-53.56 -52.92)"/><path class="cls-2" d="M128.65,109.91a1,1,0,0,0,1.41,1.41A1,1,0,0,0,128.65,109.91Z" transform="translate(-53.56 -52.92)"/><path class="cls-2" d="M143.09,74.52a1,1,0,0,0,1.41,1.42A1,1,0,0,0,143.09,74.52Z" transform="translate(-53.56 -52.92)"/><path class="cls-2" d="M96.27,116.61a1,1,0,0,0-.5-.13,1,1,0,0,0-.7.29l-.73.72a.78.78,0,0,0-.21.33.81.81,0,0,0-.08.38.8.8,0,0,0,.08.37.72.72,0,0,0,.21.33l.22.17a1.05,1.05,0,0,0,.49.13,1,1,0,0,0,.71-.3l.72-.72a.72.72,0,0,0,.21-.33.69.69,0,0,0,.08-.37.71.71,0,0,0-.08-.38.72.72,0,0,0-.21-.33Z" transform="translate(-53.56 -52.92)"/><path class="cls-2" d="M118.18,53.22a1,1,0,0,0,1.41,1.41A1,1,0,0,0,118.18,53.22Z" transform="translate(-53.56 -52.92)"/></g><g id="swirl1-4" data-name="swirl1" class="cls-1"><path class="cls-2" d="M1195.2,119.61c-5.17-6.55-16.39-6.82-21.79-.35-2.9,3.47-2.14,8.8.11,12.42s6.47,5.76,10.66,4.66,6.89-5.93,5-10a6.2,6.2,0,0,0-9.62-1.83c-.93.9.49,2.32,1.41,1.42,2.1-2,5.91-.78,6.66,2,.9,3.33-1.92,6.45-5.17,6.66-3.76.25-6.84-2.41-8.13-5.78a10.9,10.9,0,0,1-.71-5.38,7.06,7.06,0,0,1,3.18-4.58c5.41-3.84,13.69-2.89,17.44,2.8a12,12,0,0,1-3.08,16.56,19.24,19.24,0,0,1-10.08,3.21c-3.83.17-8-.55-10.76-3.39-.9-.92-2.32.49-1.41,1.41,5.77,5.89,16.9,4.9,23.26.5a13.83,13.83,0,0,0,6-9.46A14.64,14.64,0,0,0,1195.2,119.61Z" transform="translate(-53.56 -52.92)"/><path class="cls-2" d="M1174.75,149.89a1,1,0,0,0,0,2A1,1,0,0,0,1174.75,149.89Z" transform="translate(-53.56 -52.92)"/><path class="cls-2" d="M1210,135.09a1,1,0,0,0,0,2A1,1,0,0,0,1210,135.09Z" transform="translate(-53.56 -52.92)"/><path class="cls-2" d="M1147.11,131.73a1,1,0,0,0-.25-.44,1.05,1.05,0,0,0-.71-.29h-1a.66.66,0,0,0-.39.09.83.83,0,0,0-.32.2.72.72,0,0,0-.2.32.66.66,0,0,0-.09.39l0,.27a1.1,1.1,0,0,0,.26.44,1.05,1.05,0,0,0,.71.29h1a.66.66,0,0,0,.39-.09.83.83,0,0,0,.32-.2.72.72,0,0,0,.2-.32.66.66,0,0,0,.09-.39A2.51,2.51,0,0,0,1147.11,131.73Z" transform="translate(-53.56 -52.92)"/><path class="cls-2" d="M1207.43,102.4a1,1,0,0,0,0,2A1,1,0,0,0,1207.43,102.4Z" transform="translate(-53.56 -52.92)"/></g><path id="flower5" class="cls-3" d="M735.6,384.27c-2.22-1.54-5.35-.38-7.35,1a11.44,11.44,0,0,0-4.66,6.91,1,1,0,0,0,0,.17c-.21,0-.41-.07-.62-.09,0-.06,0-.12,0-.18a19.77,19.77,0,0,0-1.47-6.28,26.66,26.66,0,0,0-2.69-5.59c-2.11-3.14-5.59-5.72-9.56-5.43-4.5.34-7.36,4.52-8.49,8.54-.89,3.19-.77,6.88,1.19,9.57a6.57,6.57,0,0,0,2.81,7.8c3.47,2.18,8.43,1.53,12.05.05a10.85,10.85,0,0,0,3.74-2.47c.66,3,2.8,5.73,6.21,5.66a5.42,5.42,0,0,0,4.64-2.51c1.16-2,.44-4.46-1-6.12A4,4,0,0,0,730,395l.28-.06c2.5-.58,5.22-2,6.47-4.33C737.88,388.53,737.62,385.66,735.6,384.27Zm-22.94,15.5c-3,.5-7,.35-8.6-2.66a4.16,4.16,0,0,1-.43-2.64c.92.22,1.87-.94,1-1.68-.12-.11-.22-.23-.33-.34a11.23,11.23,0,0,1,3.29-3.71,5.88,5.88,0,0,1,4.86-1.21,4,4,0,0,1,2.69,2.88c.74,3.78-4.71,3.1-6.76,2.51a1,1,0,0,0-.54,2c3,.86,7.38,1.22,9-2.14,1.43-3-1-6.5-4-7.25-3.93-1-7.8,2-9.83,5.13-1.94-4.06,0-10.1,3.37-12.68,2.48-1.86,5.81-1.19,8.14.57,2.51,1.9,3.91,5,5,7.82.94,2.53,2,5.64,1,8.29a1.61,1.61,0,0,0-.12.33,5.51,5.51,0,0,1-.56,1C718.31,398.34,715.31,399.33,712.66,399.77Zm15.94,1.62a3.82,3.82,0,0,1-4.61-.64,6.64,6.64,0,0,1-1.54-5.44,8.72,8.72,0,0,0,.27-.91,13.69,13.69,0,0,0,4,.81,6,6,0,0,1,2.15,1.46C730.13,398.07,730.45,400.33,728.6,401.39Zm2.54-8.88a11.31,11.31,0,0,1-4,.68,13,13,0,0,0-1.54-.45,9.32,9.32,0,0,1,3.93-5.82c1.69-1.12,5.22-2.43,5.82.5C735.84,390,733.19,391.76,731.14,392.51Z" transform="translate(-53.56 -52.92)"/><path id="flower5-2" data-name="flower5" class="cls-3" d="M1107.44,235.88c-1.89-1.31-4.57-.32-6.27.87a9.7,9.7,0,0,0-4,5.9s0,.1,0,.14l-.52-.08c0-.05,0-.09,0-.14a17.17,17.17,0,0,0-1.26-5.37,23.3,23.3,0,0,0-2.3-4.77c-1.8-2.69-4.78-4.89-8.16-4.64-3.85.28-6.29,3.86-7.26,7.29-.76,2.72-.66,5.88,1,8.18a5.61,5.61,0,0,0,2.4,6.66c3,1.86,7.2,1.3,10.3,0a9.43,9.43,0,0,0,3.19-2.1c.56,2.59,2.39,4.89,5.3,4.83a4.65,4.65,0,0,0,4-2.14,4.56,4.56,0,0,0-.86-5.23,3.11,3.11,0,0,0-.32-.31l.25,0c2.13-.5,4.45-1.7,5.52-3.7A4.19,4.19,0,0,0,1107.44,235.88Zm-19.59,13.25c-2.54.42-5.95.3-7.34-2.28a3.43,3.43,0,0,1-.37-2.25c.78.19,1.59-.8.86-1.44-.11-.09-.19-.19-.29-.28a9.38,9.38,0,0,1,2.82-3.17,5,5,0,0,1,4.15-1,3.39,3.39,0,0,1,2.29,2.46c.63,3.23-4,2.64-5.77,2.14a.88.88,0,0,0-.46,1.7c2.56.73,6.3,1,7.68-1.83,1.22-2.53-.88-5.56-3.4-6.2-3.36-.85-6.66,1.71-8.4,4.39-1.65-3.47,0-8.63,2.88-10.83,2.12-1.59,5-1,7,.49s3.34,4.23,4.25,6.68c.81,2.16,1.68,4.81.9,7.08a1.28,1.28,0,0,0-.11.27,4.83,4.83,0,0,1-.47.9C1092.67,247.9,1090.11,248.75,1087.85,249.13Zm13.62,1.38a3.27,3.27,0,0,1-3.94-.54,5.68,5.68,0,0,1-1.32-4.65,7.15,7.15,0,0,0,.23-.79,11.51,11.51,0,0,0,3.41.7,5.17,5.17,0,0,1,1.83,1.24C1102.78,247.68,1103,249.61,1101.47,250.51Zm2.16-7.58a9.81,9.81,0,0,1-3.43.58,10,10,0,0,0-1.32-.39,8,8,0,0,1,3.35-5c1.45-1,4.46-2.08,5,.43C1107.65,240.74,1105.38,242.29,1103.63,242.93Z" transform="translate(-53.56 -52.92)"/><path id="flower5-3" data-name="flower5" class="cls-3" d="M1281.6,489.27c-2.22-1.54-5.35-.38-7.35,1a11.44,11.44,0,0,0-4.66,6.91,1,1,0,0,0,0,.17c-.21,0-.41-.07-.62-.09,0-.06,0-.12,0-.18a19.77,19.77,0,0,0-1.47-6.28,26.66,26.66,0,0,0-2.69-5.59c-2.11-3.14-5.59-5.72-9.56-5.43-4.5.34-7.36,4.52-8.49,8.54-.89,3.19-.77,6.88,1.19,9.57a6.57,6.57,0,0,0,2.81,7.8c3.47,2.18,8.43,1.53,12,.05a10.85,10.85,0,0,0,3.74-2.47c.66,3,2.8,5.73,6.21,5.66a5.42,5.42,0,0,0,4.64-2.51c1.16-2,.44-4.46-1-6.12a4,4,0,0,0-.36-.35l.28-.06c2.5-.58,5.22-2,6.47-4.33C1283.88,493.53,1283.62,490.66,1281.6,489.27Zm-22.94,15.5c-3,.5-7,.35-8.6-2.66a4.16,4.16,0,0,1-.43-2.64c.92.22,1.87-.94,1-1.68-.12-.11-.22-.23-.33-.34a11.23,11.23,0,0,1,3.29-3.71,5.88,5.88,0,0,1,4.86-1.21,4,4,0,0,1,2.69,2.88c.74,3.78-4.71,3.1-6.76,2.51a1,1,0,0,0-.54,2c3,.86,7.38,1.22,9-2.14,1.43-3-1-6.5-4-7.25-3.93-1-7.8,2-9.83,5.13-1.94-4.06,0-10.1,3.37-12.68,2.48-1.86,5.81-1.19,8.14.57,2.51,1.9,3.91,5,5,7.82.94,2.53,2,5.64,1,8.29a1.61,1.61,0,0,0-.12.33,5.51,5.51,0,0,1-.56,1C1264.31,503.34,1261.31,504.33,1258.66,504.77Zm15.94,1.62a3.82,3.82,0,0,1-4.61-.64,6.64,6.64,0,0,1-1.54-5.44,8.72,8.72,0,0,0,.27-.91,13.69,13.69,0,0,0,4,.81,6,6,0,0,1,2.15,1.46C1276.13,503.07,1276.45,505.33,1274.6,506.39Zm2.54-8.88a11.31,11.31,0,0,1-4,.68,13,13,0,0,0-1.54-.45,9.32,9.32,0,0,1,3.93-5.82c1.69-1.12,5.22-2.43,5.82.5C1281.84,495,1279.19,496.76,1277.14,497.51Z" transform="translate(-53.56 -52.92)"/><path id="flower5-4" data-name="flower5" class="cls-3" d="M282.6,596.27c-2.22-1.54-5.35-.38-7.35,1a11.44,11.44,0,0,0-4.66,6.91,1,1,0,0,0,0,.17c-.21,0-.41-.07-.62-.09,0-.06,0-.12,0-.18a19.77,19.77,0,0,0-1.47-6.28,26.66,26.66,0,0,0-2.69-5.59c-2.11-3.14-5.59-5.72-9.56-5.43-4.5.34-7.36,4.52-8.49,8.54-.89,3.19-.77,6.88,1.19,9.57a6.57,6.57,0,0,0,2.81,7.8c3.47,2.18,8.43,1.53,12,0a10.85,10.85,0,0,0,3.74-2.47c.66,3,2.8,5.73,6.21,5.66a5.42,5.42,0,0,0,4.64-2.51c1.16-2,.44-4.46-1-6.12A4,4,0,0,0,277,607l.28-.06c2.5-.58,5.22-2,6.47-4.33C284.88,600.53,284.62,597.66,282.6,596.27Zm-22.94,15.5c-3,.5-7,.35-8.6-2.66a4.16,4.16,0,0,1-.43-2.64c.92.22,1.87-.94,1-1.68-.12-.11-.22-.23-.33-.34a11.23,11.23,0,0,1,3.29-3.71,5.88,5.88,0,0,1,4.86-1.21,4,4,0,0,1,2.69,2.88c.74,3.78-4.71,3.1-6.76,2.51a1,1,0,0,0-.54,2c3,.86,7.38,1.22,9-2.14,1.43-3-1-6.5-4-7.25-3.93-1-7.8,2-9.83,5.13-1.94-4.06-.05-10.1,3.37-12.68,2.48-1.86,5.81-1.19,8.14.57,2.51,1.9,3.91,5,5,7.82.94,2.53,2,5.64,1,8.29a1.61,1.61,0,0,0-.12.33,5.51,5.51,0,0,1-.56,1C265.31,610.34,262.31,611.33,259.66,611.77Zm15.94,1.62a3.82,3.82,0,0,1-4.61-.64,6.64,6.64,0,0,1-1.54-5.44,8.72,8.72,0,0,0,.27-.91,13.69,13.69,0,0,0,4,.81,6,6,0,0,1,2.15,1.46C277.13,610.07,277.45,612.33,275.6,613.39Zm2.54-8.88a11.31,11.31,0,0,1-4,.68,13,13,0,0,0-1.54-.45,9.32,9.32,0,0,1,3.93-5.82c1.69-1.12,5.22-2.43,5.82.5C282.84,602,280.19,603.76,278.14,604.51Z" transform="translate(-53.56 -52.92)"/><path id="swirl2" class="cls-4" d="M635.34,528.91c3.7-2.22,5.63-6.9,3.79-11a7.35,7.35,0,0,0-10-3.74,6.45,6.45,0,0,0-2.45,9.47,5.57,5.57,0,0,0,4.72,2.45,4.66,4.66,0,0,0,4.28-2.74,4.15,4.15,0,0,0-1.72-4.95,3.49,3.49,0,0,0-4.91,2.33c-.18.72.94,1,1.11.31a2.29,2.29,0,0,1,3.62-1.36,3,3,0,0,1,.71,3.53,3.74,3.74,0,0,1-3.74,1.7,4.46,4.46,0,0,1-3.41-2.39,5.29,5.29,0,0,1,2.55-7.44,6.16,6.16,0,0,1,7.94,2.87c2,3.57.24,7.91-3.11,9.93A.57.57,0,0,0,635.34,528.91Z" transform="translate(-53.56 -52.92)"/><path id="swirl2-2" data-name="swirl2" class="cls-4" d="M316.61,429.12c1.8-7.27-1.57-15.37-8.79-18.09A12.77,12.77,0,0,0,291,418.65a11.19,11.19,0,0,0,8.62,14.62,9.58,9.58,0,0,0,8.79-2.79c2.11-2.25,3.2-5.67,1.89-8.6a7.2,7.2,0,0,0-8.17-4c-3.71,1.09-5.11,5.7-3.17,8.89.66,1.09,2.4.11,1.73-1-1.45-2.38-.22-5.89,2.77-6.12a5.27,5.27,0,0,1,5.2,3.46c.78,2.47-.58,5.15-2.49,6.69a7.77,7.77,0,0,1-7.11,1.24,9.16,9.16,0,0,1-6-12.24c2-5.4,7.84-7.8,13.25-6.23,6.78,2,10,9.42,8.37,16A1,1,0,0,0,316.61,429.12Z" transform="translate(-53.56 -52.92)"/><path id="swirl2-3" data-name="swirl2" class="cls-4" d="M961.79,366.23c1.54-6.22-1.35-13.16-7.53-15.49a10.93,10.93,0,0,0-14.4,6.53,9.57,9.57,0,0,0,7.38,12.52,8.24,8.24,0,0,0,7.53-2.39,6.93,6.93,0,0,0,1.62-7.37,6.19,6.19,0,0,0-7-3.39,5.19,5.19,0,0,0-2.72,7.61c.57.94,2.06.1,1.49-.85-1.24-2-.19-5,2.37-5.23a4.5,4.5,0,0,1,4.45,3c.67,2.11-.5,4.4-2.13,5.72a6.65,6.65,0,0,1-6.09,1.07,7.86,7.86,0,0,1-5.15-10.49A9.14,9.14,0,0,1,953,352.11c5.81,1.69,8.57,8.06,7.17,13.69A.86.86,0,0,0,961.79,366.23Z" transform="translate(-53.56 -52.92)"/><path id="swirl2-4" data-name="swirl2" class="cls-4" d="M61.36,380.61c-6.42,3.86-9.76,12-6.58,19a12.76,12.76,0,0,0,17.28,6.5,11.19,11.19,0,0,0,4.25-16.43,9.61,9.61,0,0,0-8.19-4.24c-3.08.1-6.28,1.74-7.42,4.74a7.21,7.21,0,0,0,3,8.58c3.39,1.85,7.64-.41,8.52-4,.31-1.25-1.62-1.78-1.92-.53-.66,2.71-4,4.33-6.29,2.37a5.28,5.28,0,0,1-1.23-6.13c1.2-2.29,4.05-3.22,6.49-3a7.77,7.77,0,0,1,5.91,4.15,9.16,9.16,0,0,1-4.41,12.91c-5.26,2.37-11.06,0-13.77-5-3.39-6.18-.41-13.73,5.39-17.22A1,1,0,0,0,61.36,380.61Z" transform="translate(-53.56 -52.92)"/><path id="swirl2-5" data-name="swirl2" class="cls-4" d="M104.19,265.53a7.08,7.08,0,0,0-3.06,8.84,5.94,5.94,0,0,0,8,3,5.2,5.2,0,0,0,2-7.64,4.47,4.47,0,0,0-3.81-2,3.75,3.75,0,0,0-3.46,2.2,3.35,3.35,0,0,0,1.39,4,2.81,2.81,0,0,0,4-1.88.47.47,0,0,0-.9-.24,1.85,1.85,0,0,1-2.92,1.1,2.45,2.45,0,0,1-.58-2.85,3,3,0,0,1,3-1.38,3.63,3.63,0,0,1,2.75,1.93,4.27,4.27,0,0,1-2,6,5,5,0,0,1-6.41-2.32c-1.58-2.88-.19-6.39,2.51-8A.46.46,0,0,0,104.19,265.53Z" transform="translate(-53.56 -52.92)"/><path id="flower3" class="cls-5" d="M1149,618a13,13,0,0,0-4.44.72,35.47,35.47,0,0,0-14.15,7.48,19,19,0,0,0-.37-2.36,22.53,22.53,0,0,0-11.35-14.5c-6-3.23-13.77-4-19.53.12a13.92,13.92,0,0,0-5.39,7.15,13.47,13.47,0,0,0,.86,9.64,15.49,15.49,0,0,0,3.78,5,15,15,0,0,0,9.37,14.09c5.8,2.33,12.73.57,17.2-3.64a18.17,18.17,0,0,0,5.37-11,17.71,17.71,0,0,0,8.24,7.58,3.23,3.23,0,0,0,3,.12,2.33,2.33,0,0,0,.87-2.69,7.88,7.88,0,0,0-1.51-2.67,16.88,16.88,0,0,0-2.23-2.4,18.29,18.29,0,0,0-2.07-1.55c4-.48,7.86-2.7,11-5.21,1.11-.89,2.83-1.93,3.23-3.39A1.93,1.93,0,0,0,1149,618Zm-23.25,20.53a15.62,15.62,0,0,1-14.08,6.22,13.64,13.64,0,0,1-11.32-9.72,11.93,11.93,0,0,1-.43-2.64,19.67,19.67,0,0,0,6.87,3.06c-.14.8-.29,1.6-.44,2.41a.81.81,0,0,0,.08.57.75.75,0,0,0,.45.35.77.77,0,0,0,.92-.52c.15-.85.31-1.69.46-2.53a17.53,17.53,0,0,0,2.89.18c-.24,1.5-.48,3-.71,4.5a.77.77,0,0,0,.52.92.76.76,0,0,0,.92-.52c.26-1.62.51-3.23.77-4.85a1,1,0,0,0,0-.17,10.94,10.94,0,0,0,2.34-.56l-1,5.18a.76.76,0,0,0,.52.92.75.75,0,0,0,.92-.52l1-5.36a.81.81,0,0,0-.23-.76,8.87,8.87,0,0,0,3.42-3c2-2.94,1.27-6.52-.43-9.4-1.59-2.71-4.06-5.73-7-6.93a6.45,6.45,0,0,0-7.58,2.25,6.09,6.09,0,0,0-.28,7.44,7.16,7.16,0,0,0,6.44,2.61,6,6,0,0,0,3.23-1.42c.74-.63-.32-1.68-1.06-1.06a5.27,5.27,0,0,1-6,.23,4.42,4.42,0,0,1-1.86-5.8,5.29,5.29,0,0,1,5.48-3.16l-.83.52a.77.77,0,0,0-.27,1,.76.76,0,0,0,1,.26l1.86-1.16a7.85,7.85,0,0,1,.92.57l-4.06,2.6a.71.71,0,0,0-.23.91.62.62,0,0,0,.87.24l4.27-2.74a.62.62,0,0,0,.18-.18c.34.3.66.62,1,1l-4.72,3.14a.76.76,0,0,0-.18,1,.75.75,0,0,0,1,.18l4.83-3.21a23.64,23.64,0,0,1,1.5,2.17c1.63,2.63,2.39,5.93.31,8.56-1.89,2.38-5,3.18-7.91,3-5.88-.3-11.94-3.67-14.37-9.18a11.76,11.76,0,0,1,4.45-14.7c5.18-3.44,12-2.84,17.31-.08a21.37,21.37,0,0,1,10.54,12A18.07,18.07,0,0,1,1125.76,638.52Zm14.66-3.69c.31.48.93,1.48.52,2s-1.69,0-2.19-.27a16.57,16.57,0,0,1-4.38-3.14,16.81,16.81,0,0,1-3.41-5,.67.67,0,0,0-.12-.16,7.58,7.58,0,0,0,.8.28c.95,1.32,1.91,2.64,2.86,4a.75.75,0,1,0,1.3-.76l-1.84-2.55A15.39,15.39,0,0,1,1140.42,634.83Zm6.14-12.1a23.35,23.35,0,0,1-7.3,4.2,12.91,12.91,0,0,1-5.65.54l-.35-.13,4.94-1.81a.77.77,0,0,0,.52-.92.75.75,0,0,0-.92-.52l-4.28,1.56a33.87,33.87,0,0,1,12.21-5.68q.91-.22,1.83-.39c.41-.07,1.35-.32,1.71,0C1150,620.27,1147,622.35,1146.56,622.73Z" transform="translate(-53.56 -52.92)"/><path id="flower3-2" data-name="flower3" class="cls-5" d="M436,123a13,13,0,0,0-4.44.72,35.47,35.47,0,0,0-14.15,7.48,19,19,0,0,0-.37-2.36,22.53,22.53,0,0,0-11.35-14.5c-6-3.23-13.77-4-19.53.12a13.92,13.92,0,0,0-5.39,7.15,13.47,13.47,0,0,0,.86,9.64,15.49,15.49,0,0,0,3.78,5,15,15,0,0,0,9.37,14.09c5.8,2.33,12.73.57,17.2-3.64a18.17,18.17,0,0,0,5.37-11,17.71,17.71,0,0,0,8.24,7.58,3.23,3.23,0,0,0,3,.12,2.33,2.33,0,0,0,.87-2.69,7.88,7.88,0,0,0-1.51-2.67,16.88,16.88,0,0,0-2.23-2.4,18.29,18.29,0,0,0-2.07-1.55c4-.48,7.86-2.7,11-5.21,1.11-.89,2.83-1.93,3.23-3.39A1.93,1.93,0,0,0,436,123Zm-23.25,20.53a15.62,15.62,0,0,1-14.08,6.22A13.64,13.64,0,0,1,387.36,140a11.93,11.93,0,0,1-.43-2.64,19.67,19.67,0,0,0,6.87,3.06c-.14.8-.29,1.6-.44,2.41a.81.81,0,0,0,.08.57.75.75,0,0,0,.45.35.77.77,0,0,0,.92-.52c.15-.85.31-1.69.46-2.53a17.53,17.53,0,0,0,2.89.18c-.24,1.5-.48,3-.71,4.5a.77.77,0,0,0,.52.92.76.76,0,0,0,.92-.52c.26-1.62.51-3.23.77-4.85a1,1,0,0,0,0-.17,10.94,10.94,0,0,0,2.34-.56l-1,5.18a.76.76,0,0,0,.52.92.75.75,0,0,0,.92-.52l1-5.36a.81.81,0,0,0-.23-.76,8.87,8.87,0,0,0,3.42-3c2-2.94,1.27-6.52-.43-9.4-1.59-2.71-4.06-5.73-7.05-6.93a6.45,6.45,0,0,0-7.58,2.25,6.09,6.09,0,0,0-.28,7.44,7.16,7.16,0,0,0,6.44,2.61,6,6,0,0,0,3.23-1.42c.74-.63-.32-1.68-1.06-1.06a5.27,5.27,0,0,1-6,.23,4.42,4.42,0,0,1-1.86-5.8,5.29,5.29,0,0,1,5.48-3.16l-.83.52a.77.77,0,0,0-.27,1,.76.76,0,0,0,1,.26l1.86-1.16a7.85,7.85,0,0,1,.92.57l-4.06,2.6a.71.71,0,0,0-.23.91.62.62,0,0,0,.87.24l4.27-2.74a.62.62,0,0,0,.18-.18c.34.3.66.62,1,1l-4.72,3.14a.76.76,0,0,0-.18,1,.75.75,0,0,0,1,.18l4.83-3.21a23.64,23.64,0,0,1,1.5,2.17c1.63,2.63,2.39,5.93.31,8.56-1.89,2.38-5,3.18-7.91,3-5.88-.3-11.94-3.67-14.37-9.18a11.76,11.76,0,0,1,4.45-14.7c5.18-3.44,12-2.84,17.31-.08a21.37,21.37,0,0,1,10.54,12A18.07,18.07,0,0,1,412.76,143.52Zm14.66-3.69c.31.48.93,1.48.52,2s-1.69,0-2.19-.27a16.57,16.57,0,0,1-4.38-3.14,16.81,16.81,0,0,1-3.41-5,.67.67,0,0,0-.12-.16,7.58,7.58,0,0,0,.8.28c.95,1.32,1.91,2.64,2.86,4a.75.75,0,1,0,1.3-.76L421,134.25A15.39,15.39,0,0,1,427.42,139.83Zm6.14-12.1a23.35,23.35,0,0,1-7.3,4.2,12.91,12.91,0,0,1-5.65.54l-.35-.13,4.94-1.81a.77.77,0,0,0,.52-.92.75.75,0,0,0-.92-.52l-4.28,1.56A33.87,33.87,0,0,1,432.73,125q.91-.23,1.83-.39c.41-.07,1.35-.32,1.71,0C437,125.27,434,127.35,433.56,127.73Z" transform="translate(-53.56 -52.92)"/><path id="flower2" class="cls-2" d="M898.7,521.69a8.59,8.59,0,0,0-5-1.89,16.23,16.23,0,0,0,6.87-7.67,22.21,22.21,0,0,0,1.5-11.2.69.69,0,0,0-.65-.61,10,10,0,0,0,3.62-6.86,7.21,7.21,0,0,0-3.62-6.15c-2.47-1.57-5.52-1.92-8.37-2.17a31.64,31.64,0,0,0-9.06.35c-5,1-9.85,4.06-11.94,8.92a12.3,12.3,0,0,0-.89,3.43.53.53,0,0,0,.12.41,8.73,8.73,0,0,0-1.28,2.29,5.69,5.69,0,0,0,1.44,6.09,9.69,9.69,0,0,0,4.82,2.39c-1.17,5.77,3.37,11.44,9,12.36a20.1,20.1,0,0,0-8.91,12.23.66.66,0,0,0,1.09.64,106.59,106.59,0,0,0,12.07-12,.43.43,0,0,1,0,.07,127.44,127.44,0,0,0,2.08,18.58c.15.83,1.41.48,1.26-.34a125,125,0,0,1-2-17.67A24,24,0,0,1,902,530.47c.45.54,1.21-.06,1.09-.64C902.5,526.78,901.2,523.67,898.7,521.69Zm-27.42-21c.88-2.18,2.87-3.78,4.79-5a24.37,24.37,0,0,1,6.46-3,25.21,25.21,0,0,1,7.17-1.08,18.68,18.68,0,0,1,3.42.24,8.7,8.7,0,0,1,.87.23l-2.82.88a.66.66,0,0,0-.45.8.66.66,0,0,0,.8.46l3.56-1.11a.61.61,0,0,0,.24-.15,1.74,1.74,0,0,1,.11.18,1.21,1.21,0,0,1,.12.43l-6.11,1.83c-.81.25-.46,1.51.34,1.26l5.08-1.52a8.24,8.24,0,0,1-.92.82,30,30,0,0,1-3.06,2c-.54.31-1.08.61-1.64.89a.67.67,0,0,0-.23-.21c-2.28-1.23-6-2.1-8.43-1.27-1.77.6-5.09,2.66-3.53,4.94.67,1,2,1,3,.87a29.1,29.1,0,0,0,4.21-.95,33.06,33.06,0,0,0,8-3.58c1.47-.92,4-2.33,4.5-4.24a.69.69,0,0,0,.09-.65,3.14,3.14,0,0,0-.09-.79c-.63-2.24-3.53-2.53-5.45-2.65a26.1,26.1,0,0,0-6.94.52l.21-.29a.66.66,0,0,0-.24-.89.67.67,0,0,0-.5-.07.78.78,0,0,0-.39.3l-1,1.43-.31.09.23-.41a.65.65,0,0,0,.07-.51.68.68,0,0,0-.3-.39.66.66,0,0,0-.89.24l-.89,1.55a.44.44,0,0,0-.05.15,26,26,0,0,0-5,2.56,21,21,0,0,0-2.67,2.07,13.24,13.24,0,0,1,7.22-8.5c4.57-2.27,10-2.22,14.92-1.6,2.46.31,5.1.87,7,2.59a5.59,5.59,0,0,1,1.52,6.29c-.88,2.4-2.93,4.13-4.94,5.59a42.55,42.55,0,0,1-6.23,3.78,27.5,27.5,0,0,1-14,3.06C874.42,507.63,869.48,505.2,871.28,500.74Zm16.4-1.09a30.63,30.63,0,0,1-3.61,1.34,31.26,31.26,0,0,1-3.56.86c-.84.16-3,.45-2.39-1.11a4.42,4.42,0,0,1,2.68-2,8.54,8.54,0,0,1,3.32-.46A11.57,11.57,0,0,1,887.68,499.65Zm-10.18,9.58a24.68,24.68,0,0,0,8.16-.65,36.8,36.8,0,0,0,15.07-7.7s0,0,0,.05c.07.59.11,1.19.13,1.79a.23.23,0,0,0-.1.07,12.39,12.39,0,0,1-6.44,3.76c-.82.19-.47,1.45.35,1.26a13.66,13.66,0,0,0,6.19-3.27c0,.69-.09,1.38-.18,2.06l-.06,0a15.45,15.45,0,0,1-5.39,2.62.65.65,0,0,0,.35,1.26,17,17,0,0,0,4.79-2.13,15.58,15.58,0,0,1-5.16,8.84c-4.35,3.58-11,4.33-15.11.07A9,9,0,0,1,877.5,509.23Zm.79,22.52a18.79,18.79,0,0,1,9.42-10.22l.77-.07A104.19,104.19,0,0,1,878.29,531.75ZM891,521.6l.07,0a6.77,6.77,0,0,1,7.13,1.39,11,11,0,0,1,2.94,4.66A25.15,25.15,0,0,0,891,521.6Z" transform="translate(-53.56 -52.92)"/><path id="flower2-2" data-name="flower2" class="cls-2" d="M884.7,134.69a8.59,8.59,0,0,0-5-1.89,16.23,16.23,0,0,0,6.87-7.67,22.21,22.21,0,0,0,1.5-11.2.69.69,0,0,0-.65-.61,10,10,0,0,0,3.62-6.86,7.21,7.21,0,0,0-3.62-6.15c-2.47-1.57-5.52-1.92-8.37-2.17a31.64,31.64,0,0,0-9.06.35c-5,1-9.85,4.06-11.94,8.92a12.3,12.3,0,0,0-.89,3.43.53.53,0,0,0,.12.41,8.73,8.73,0,0,0-1.28,2.29,5.69,5.69,0,0,0,1.44,6.09,9.69,9.69,0,0,0,4.82,2.39c-1.17,5.77,3.37,11.44,9,12.36a20.1,20.1,0,0,0-8.91,12.23.66.66,0,0,0,1.09.64,106.59,106.59,0,0,0,12.07-12,.43.43,0,0,1,0,.07,127.44,127.44,0,0,0,2.08,18.58c.15.83,1.41.48,1.26-.34a125,125,0,0,1-2-17.67A24,24,0,0,1,888,143.47c.45.54,1.21-.06,1.09-.64C888.5,139.78,887.2,136.67,884.7,134.69Zm-27.42-21c.88-2.18,2.87-3.78,4.79-5a24.37,24.37,0,0,1,6.46-3,25.21,25.21,0,0,1,7.17-1.08,18.68,18.68,0,0,1,3.42.24,8.7,8.7,0,0,1,.87.23l-2.82.88a.66.66,0,0,0-.45.8.66.66,0,0,0,.8.46l3.56-1.11a.61.61,0,0,0,.24-.15,1.74,1.74,0,0,1,.11.18,1.21,1.21,0,0,1,.12.43l-6.11,1.83c-.81.25-.46,1.51.34,1.26l5.08-1.52a8.24,8.24,0,0,1-.92.82,30,30,0,0,1-3.06,2c-.54.31-1.08.61-1.64.89a.67.67,0,0,0-.23-.21c-2.28-1.23-6-2.1-8.43-1.27-1.77.6-5.09,2.66-3.53,4.94.67,1,2,1,3,.87a29.1,29.1,0,0,0,4.21-.95,33.06,33.06,0,0,0,8-3.58c1.47-.92,4-2.33,4.5-4.24a.69.69,0,0,0,.09-.65,3.14,3.14,0,0,0-.09-.79c-.63-2.24-3.53-2.53-5.45-2.65a26.1,26.1,0,0,0-6.94.52l.21-.29a.66.66,0,0,0-.24-.89.67.67,0,0,0-.5-.07.78.78,0,0,0-.39.3l-1,1.43-.31.09.23-.41a.65.65,0,0,0,.07-.51.68.68,0,0,0-.3-.39.66.66,0,0,0-.89.24l-.89,1.55a.44.44,0,0,0-.05.15,26,26,0,0,0-5,2.56,21,21,0,0,0-2.67,2.07,13.24,13.24,0,0,1,7.22-8.5c4.57-2.27,10-2.22,14.92-1.6,2.46.31,5.1.87,7,2.59a5.59,5.59,0,0,1,1.52,6.29c-.88,2.4-2.93,4.13-4.94,5.59a42.55,42.55,0,0,1-6.23,3.78,27.5,27.5,0,0,1-14,3.06C860.42,120.63,855.48,118.2,857.28,113.74Zm16.4-1.09a30.63,30.63,0,0,1-3.61,1.34,31.26,31.26,0,0,1-3.56.86c-.84.16-3,.45-2.39-1.11a4.42,4.42,0,0,1,2.68-2,8.54,8.54,0,0,1,3.32-.46A11.57,11.57,0,0,1,873.68,112.65Zm-10.18,9.58a24.68,24.68,0,0,0,8.16-.65,36.8,36.8,0,0,0,15.07-7.7s0,0,0,.05c.07.59.11,1.19.13,1.79a.23.23,0,0,0-.1.07,12.39,12.39,0,0,1-6.44,3.76c-.82.19-.47,1.45.35,1.26a13.66,13.66,0,0,0,6.19-3.27c0,.69-.09,1.38-.18,2.06l-.06,0a15.45,15.45,0,0,1-5.39,2.62.65.65,0,0,0,.35,1.26,17,17,0,0,0,4.79-2.13,15.58,15.58,0,0,1-5.16,8.84c-4.35,3.58-11,4.33-15.11.07A9,9,0,0,1,863.5,122.23Zm.79,22.52a18.79,18.79,0,0,1,9.42-10.22l.77-.07A104.19,104.19,0,0,1,864.29,144.75ZM877,134.6l.07,0a6.77,6.77,0,0,1,7.13,1.39,11,11,0,0,1,2.94,4.66A25.15,25.15,0,0,0,877,134.6Z" transform="translate(-53.56 -52.92)"/><path id="flower2-3" data-name="flower2" class="cls-2" d="M529.7,661.69a8.59,8.59,0,0,0-5-1.89,16.23,16.23,0,0,0,6.87-7.67,22.21,22.21,0,0,0,1.5-11.2.69.69,0,0,0-.65-.61,10,10,0,0,0,3.62-6.86,7.21,7.21,0,0,0-3.62-6.15c-2.47-1.57-5.52-1.92-8.37-2.17a31.64,31.64,0,0,0-9.06.35c-5,1-9.85,4.06-11.94,8.92a12.3,12.3,0,0,0-.89,3.43.53.53,0,0,0,.12.41,8.73,8.73,0,0,0-1.28,2.29,5.69,5.69,0,0,0,1.44,6.09,9.69,9.69,0,0,0,4.82,2.39c-1.17,5.77,3.37,11.44,9,12.36a20.1,20.1,0,0,0-8.91,12.23.66.66,0,0,0,1.09.64,106.59,106.59,0,0,0,12.07-12,.43.43,0,0,1,0,.07,127.44,127.44,0,0,0,2.08,18.58c.15.83,1.41.48,1.26-.34a125,125,0,0,1-2-17.67A24,24,0,0,1,533,670.47c.45.54,1.21-.06,1.09-.64C533.5,666.78,532.2,663.67,529.7,661.69Zm-27.42-21c.88-2.18,2.87-3.78,4.79-5a24.37,24.37,0,0,1,6.46-3,25.21,25.21,0,0,1,7.17-1.08,18.68,18.68,0,0,1,3.42.24,8.7,8.7,0,0,1,.87.23l-2.82.88a.66.66,0,0,0-.45.8.66.66,0,0,0,.8.46l3.56-1.11a.61.61,0,0,0,.24-.15,1.74,1.74,0,0,1,.11.18,1.21,1.21,0,0,1,.12.43l-6.11,1.83c-.81.25-.46,1.51.34,1.26l5.08-1.52a8.24,8.24,0,0,1-.92.82,30,30,0,0,1-3.06,2c-.54.31-1.08.61-1.64.89a.67.67,0,0,0-.23-.21c-2.28-1.23-6-2.1-8.43-1.27-1.77.6-5.09,2.66-3.53,4.94.67,1,2,1,3,.87a29.1,29.1,0,0,0,4.21-1,33.06,33.06,0,0,0,8-3.58c1.47-.92,4-2.33,4.5-4.24a.69.69,0,0,0,.09-.65,3.14,3.14,0,0,0-.09-.79c-.63-2.24-3.53-2.53-5.45-2.65a26.1,26.1,0,0,0-6.94.52l.21-.29a.66.66,0,0,0-.24-.89.67.67,0,0,0-.5-.07.78.78,0,0,0-.39.3l-1,1.43-.31.09.23-.41a.65.65,0,0,0,.07-.51.68.68,0,0,0-.3-.39.66.66,0,0,0-.89.24l-.89,1.55a.44.44,0,0,0-.05.15,26,26,0,0,0-5,2.56,21,21,0,0,0-2.67,2.07,13.24,13.24,0,0,1,7.22-8.5c4.57-2.27,10-2.22,14.92-1.6,2.46.31,5.1.87,7,2.59a5.59,5.59,0,0,1,1.52,6.29c-.88,2.4-2.93,4.13-4.94,5.59a42.55,42.55,0,0,1-6.23,3.78,27.5,27.5,0,0,1-14,3.06C505.42,647.63,500.48,645.2,502.28,640.74Zm16.4-1.09a30.63,30.63,0,0,1-3.61,1.34,31.26,31.26,0,0,1-3.56.86c-.84.16-3.05.45-2.39-1.11a4.42,4.42,0,0,1,2.68-2,8.54,8.54,0,0,1,3.32-.46A11.57,11.57,0,0,1,518.68,639.65Zm-10.18,9.58a24.68,24.68,0,0,0,8.16-.65,36.8,36.8,0,0,0,15.07-7.7s0,0,0,0c.07.59.11,1.19.13,1.79a.23.23,0,0,0-.1.07,12.39,12.39,0,0,1-6.44,3.76c-.82.19-.47,1.45.35,1.26a13.66,13.66,0,0,0,6.19-3.27c0,.69-.09,1.38-.18,2.06l-.06,0a15.45,15.45,0,0,1-5.39,2.62.65.65,0,0,0,.35,1.26,17,17,0,0,0,4.79-2.13,15.58,15.58,0,0,1-5.16,8.84c-4.35,3.58-11,4.33-15.11.07A9,9,0,0,1,508.5,649.23Zm.79,22.52a18.79,18.79,0,0,1,9.42-10.22l.77-.07A104.19,104.19,0,0,1,509.29,671.75ZM522,661.6l.07,0a6.77,6.77,0,0,1,7.13,1.39,11,11,0,0,1,2.94,4.66A25.15,25.15,0,0,0,522,661.6Z" transform="translate(-53.56 -52.92)"/><path id="flower2-4" data-name="flower2" class="cls-2" d="M265.7,213.69a8.59,8.59,0,0,0-5-1.89,16.23,16.23,0,0,0,6.87-7.67,22.21,22.21,0,0,0,1.5-11.2.69.69,0,0,0-.65-.61,10,10,0,0,0,3.62-6.86,7.21,7.21,0,0,0-3.62-6.15c-2.47-1.57-5.52-1.92-8.37-2.17a31.64,31.64,0,0,0-9.06.35c-5,1-9.85,4.06-11.94,8.92a12.3,12.3,0,0,0-.89,3.43.53.53,0,0,0,.12.41,8.73,8.73,0,0,0-1.28,2.29,5.69,5.69,0,0,0,1.44,6.09,9.69,9.69,0,0,0,4.82,2.39c-1.17,5.77,3.37,11.44,9,12.36a20.1,20.1,0,0,0-8.91,12.23.66.66,0,0,0,1.09.64,106.59,106.59,0,0,0,12.07-12,.43.43,0,0,1,0,.07,127.44,127.44,0,0,0,2.08,18.58c.15.83,1.41.48,1.26-.34a125,125,0,0,1-2-17.67A24,24,0,0,1,269,222.47c.45.54,1.21-.06,1.09-.64C269.5,218.78,268.2,215.67,265.7,213.69Zm-27.42-20.95c.88-2.18,2.87-3.78,4.79-5a24.37,24.37,0,0,1,6.46-3,25.21,25.21,0,0,1,7.17-1.08,18.68,18.68,0,0,1,3.42.24,8.7,8.7,0,0,1,.87.23l-2.82.88a.66.66,0,0,0-.45.8.66.66,0,0,0,.8.46l3.56-1.11a.61.61,0,0,0,.24-.15,1.74,1.74,0,0,1,.11.18,1.21,1.21,0,0,1,.12.43l-6.11,1.83c-.81.25-.46,1.51.34,1.26l5.08-1.52a8.24,8.24,0,0,1-.92.82,30,30,0,0,1-3.06,2c-.54.31-1.08.61-1.64.89a.67.67,0,0,0-.23-.21c-2.28-1.23-6-2.1-8.43-1.27-1.77.6-5.09,2.66-3.53,4.94.67,1,2,1,3,.87a29.1,29.1,0,0,0,4.21-1,33.06,33.06,0,0,0,8-3.58c1.47-.92,4-2.33,4.5-4.24a.69.69,0,0,0,.09-.65,3.14,3.14,0,0,0-.09-.79c-.63-2.24-3.53-2.53-5.45-2.65a26.1,26.1,0,0,0-6.94.52l.21-.29a.66.66,0,0,0-.24-.89.67.67,0,0,0-.5-.07.78.78,0,0,0-.39.3l-1,1.43-.31.09.23-.41a.65.65,0,0,0,.07-.51.68.68,0,0,0-.3-.39.66.66,0,0,0-.89.24l-.89,1.55a.44.44,0,0,0,0,.15,26,26,0,0,0-5,2.56,21,21,0,0,0-2.67,2.07,13.24,13.24,0,0,1,7.22-8.5c4.57-2.27,10-2.22,14.92-1.6,2.46.31,5.1.87,7,2.59a5.59,5.59,0,0,1,1.52,6.29c-.88,2.4-2.93,4.13-4.94,5.59a42.55,42.55,0,0,1-6.23,3.78,27.5,27.5,0,0,1-14,3.06C241.42,199.63,236.48,197.2,238.28,192.74Zm16.4-1.09a30.63,30.63,0,0,1-3.61,1.34,31.26,31.26,0,0,1-3.56.86c-.84.16-3,.45-2.39-1.11a4.42,4.42,0,0,1,2.68-2,8.54,8.54,0,0,1,3.32-.46A11.57,11.57,0,0,1,254.68,191.65Zm-10.18,9.58a24.68,24.68,0,0,0,8.16-.65,36.8,36.8,0,0,0,15.07-7.7s0,0,0,.05c.07.59.11,1.19.13,1.79a.23.23,0,0,0-.1.07,12.39,12.39,0,0,1-6.44,3.76c-.82.19-.47,1.45.35,1.26a13.66,13.66,0,0,0,6.19-3.27c0,.69-.09,1.38-.18,2.06l-.06,0a15.45,15.45,0,0,1-5.39,2.62.65.65,0,0,0,.35,1.26,17,17,0,0,0,4.79-2.13,15.58,15.58,0,0,1-5.16,8.84c-4.35,3.58-10.95,4.33-15.11.07A9,9,0,0,1,244.5,201.23Zm.79,22.52a18.79,18.79,0,0,1,9.42-10.22l.77-.07A104.19,104.19,0,0,1,245.29,223.75ZM258,213.6l.07,0a6.77,6.77,0,0,1,7.13,1.39,11,11,0,0,1,2.94,4.66A25.15,25.15,0,0,0,258,213.6Z" transform="translate(-53.56 -52.92)"/><g id="flower1"><path class="cls-6" d="M543.48,358.53c2.19-3.66,3.21-7.9,3.94-12a.59.59,0,0,0,0-.3,10.68,10.68,0,0,0,0-7.06,13,13,0,0,0-5.46-6.53,16,16,0,0,0-9.47-2.14,33.68,33.68,0,0,0-7.51,1.7c-3.22.41-8,1.57-10.12,4.16a7.46,7.46,0,0,0-.9,8.54,13.37,13.37,0,0,0,2.3,2.87.51.51,0,0,0-.11.22,15.19,15.19,0,0,0,4.41,14.49l-.68-.15a29.17,29.17,0,0,0-4.35-.52,19.44,19.44,0,0,0-2.29,0,1.77,1.77,0,0,0-1.38.62c-.73,1,.19,2.4.73,3.25a11.79,11.79,0,0,0,2.55,2.81,10.51,10.51,0,0,0,7,2.33,11,11,0,0,0,7.2-3.27q-.45,10.51-1.75,21c-.09.71,1,.7,1.11,0q1.37-10.86,1.8-21.8l0,0a9.5,9.5,0,0,0,11.14,4.12c1.5-.51,4.85-2.11,3.9-4.22-.41-.93-1.49-1.25-2.39-1.51a22.44,22.44,0,0,0-4-.74c-.47,0-.94-.07-1.42-.09A16.08,16.08,0,0,0,543.48,358.53Zm-19.55-26c-.63.24-1.2.49-1.7.73C522.22,333.12,523.14,332.79,523.93,332.53Zm-9.79,7.84a8.24,8.24,0,0,1,5.26-6,15.22,15.22,0,0,1,3.17-.88,7.46,7.46,0,0,0-3.8,7.39,10.18,10.18,0,0,0,5.1,7.3,13.29,13.29,0,0,0,9.22,1.48,14.29,14.29,0,0,0,8.12-4.45,1.63,1.63,0,0,0,.3.07l1.14.12a.87.87,0,0,0,.55-.11.37.37,0,0,0,.16-.17.29.29,0,0,0,0-.22.66.66,0,0,0-.27-.43,1.2,1.2,0,0,0-.6-.23l-.53-.06q.16-.26.3-.51a.54.54,0,0,0,.41.18H544a.58.58,0,0,0,.4-.16.54.54,0,0,0,.16-.39.56.56,0,0,0-.56-.56h-1.29a5.53,5.53,0,0,0-.65-5.71c-2.09-2.59-5.66-2.87-8.69-2.25-2.67.55-6.22,1.51-7.79,4-1.76,2.75.55,5.49,2.92,6.84,2.55,1.46,6.38,2.12,8.33-.68,1.45-2.08.26-5.62-2.6-5.29a2.71,2.71,0,0,0-2.4,2c-.16.7.91,1,1.07.3a1.74,1.74,0,0,1,2.45-1,2.36,2.36,0,0,1,.76,3.05,3.66,3.66,0,0,1-3.22,1.83,7.73,7.73,0,0,1-4.22-1.37,5.54,5.54,0,0,1-2.42-2.64l2.62-.21a.56.56,0,0,0-.19-1.1l-2.59.21a2.9,2.9,0,0,1,.3-1l3.22.12a.57.57,0,0,0,.63-.48.56.56,0,0,0-.49-.62l-2.54-.1,0-.05a9.27,9.27,0,0,1,3.16-1.72,20.71,20.71,0,0,1,4.53-1.12c2.55-.27,5.72.45,6.85,3.06s-.62,5.18-2.46,6.81c-4.25,3.75-11.18,4.49-15.84,1.11a9.46,9.46,0,0,1-2.76-3.14l1.53-.85a.56.56,0,0,0-.56-1l-1.44.79a8.81,8.81,0,0,1-.34-1.14l.06,0,1.9-.95a.56.56,0,0,0,.2-.76.56.56,0,0,0-.76-.2l-1.54.77c0-.12,0-.24,0-.36,0-2.94,2.16-4.88,4.63-6.08,5-2.45,11.58-3.28,16.6-.39a12.07,12.07,0,0,1,5.06,5.47,9.78,9.78,0,0,1,.15,7.33c-2,5.42-7.63,8.15-13.16,8.05-5.76-.11-11.21-3.07-15.47-6.79C515.59,345.62,513.66,343.25,514.14,340.37Zm2.84,28a10.39,10.39,0,0,1-2.52-2.06,9.17,9.17,0,0,1-1-1.26,5,5,0,0,1-.81-1.58c-.13-.75.71-.62,1.19-.63.66,0,1.33,0,2,0a26.05,26.05,0,0,1,3.83.49,27.52,27.52,0,0,1,3.32.88,13.58,13.58,0,0,0,1.75.87,13.82,13.82,0,0,0,1.65.54l-5.54.19a.56.56,0,0,0,0,1.11l7.72-.26A9.6,9.6,0,0,1,517,368.38Zm26.49-2.05a1.91,1.91,0,0,1,1,.59c.34.5-.14,1-.5,1.35a7.71,7.71,0,0,1-2.6,1.47,8.24,8.24,0,0,1-9-2.4l5.6,2c.68.23,1-.84.29-1.08l-6.11-2.15a16.17,16.17,0,0,0,2.92-.63A20.48,20.48,0,0,1,543.47,366.33Zm-6.8-2.72a14.33,14.33,0,0,1-1.77.73,23.29,23.29,0,0,0-4,.72,14,14,0,0,1-4-.4,30.09,30.09,0,0,0-3.49-1.43,13,13,0,0,1-4.41-4.31,14,14,0,0,1-1.9-10.38,36.23,36.23,0,0,0,4,2.85,24.54,24.54,0,0,0,9.47,3.71c5.62.81,11.7-.94,15-5.57C544.37,355.16,542,360.9,536.67,363.61Z" transform="translate(-53.56 -52.92)"/><path class="cls-6" d="M541,355.87l-4.36.57a.58.58,0,0,0-.56.56.56.56,0,0,0,.56.55L541,357a.56.56,0,0,0,.56-.55C541.56,356.16,541.3,355.83,541,355.87Z" transform="translate(-53.56 -52.92)"/><path class="cls-6" d="M539.14,358.11a15.42,15.42,0,0,1-4.79.24.57.57,0,0,0-.56.56.57.57,0,0,0,.56.56,16.36,16.36,0,0,0,5.08-.29.55.55,0,0,0,.39-.68A.56.56,0,0,0,539.14,358.11Z" transform="translate(-53.56 -52.92)"/></g><g id="flower1-2" data-name="flower1"><path class="cls-6" d="M1176.48,352.53c2.19-3.66,3.21-7.9,3.94-12a.59.59,0,0,0,0-.3,10.68,10.68,0,0,0,0-7.06,13,13,0,0,0-5.46-6.53,16,16,0,0,0-9.47-2.14,33.68,33.68,0,0,0-7.51,1.7c-3.22.41-8,1.57-10.12,4.16a7.46,7.46,0,0,0-.9,8.54,13.37,13.37,0,0,0,2.3,2.87.51.51,0,0,0-.11.22,15.19,15.19,0,0,0,4.41,14.49l-.68-.15a29.17,29.17,0,0,0-4.35-.52,19.44,19.44,0,0,0-2.29,0,1.77,1.77,0,0,0-1.38.62c-.73,1,.19,2.4.73,3.25a11.79,11.79,0,0,0,2.55,2.81,10.51,10.51,0,0,0,7,2.33,11,11,0,0,0,7.2-3.27q-.45,10.51-1.75,21c-.09.71,1,.7,1.11,0q1.36-10.86,1.8-21.8l0,0a9.5,9.5,0,0,0,11.14,4.12c1.5-.51,4.85-2.11,3.9-4.22-.41-.93-1.49-1.25-2.39-1.51a22.44,22.44,0,0,0-4-.74c-.47,0-.94-.07-1.42-.09A16.08,16.08,0,0,0,1176.48,352.53Zm-19.55-26c-.63.24-1.2.49-1.7.73C1155.22,327.12,1156.14,326.79,1156.93,326.53Zm-9.79,7.84a8.24,8.24,0,0,1,5.26-6,15.22,15.22,0,0,1,3.17-.88,7.46,7.46,0,0,0-3.8,7.39,10.18,10.18,0,0,0,5.1,7.3,13.29,13.29,0,0,0,9.22,1.48,14.29,14.29,0,0,0,8.12-4.45,1.63,1.63,0,0,0,.3.07l1.14.12a.87.87,0,0,0,.55-.11.37.37,0,0,0,.16-.17.29.29,0,0,0,0-.22.66.66,0,0,0-.27-.43,1.2,1.2,0,0,0-.6-.23l-.53-.06q.16-.26.3-.51a.54.54,0,0,0,.41.18H1177a.58.58,0,0,0,.4-.16.54.54,0,0,0,.16-.39.56.56,0,0,0-.56-.56h-1.29a5.53,5.53,0,0,0-.65-5.71c-2.09-2.59-5.66-2.87-8.69-2.25-2.67.55-6.22,1.51-7.79,4-1.76,2.75.55,5.49,2.92,6.84,2.55,1.46,6.38,2.12,8.33-.68,1.45-2.08.26-5.62-2.6-5.29a2.71,2.71,0,0,0-2.4,2c-.16.7.91,1,1.07.3a1.74,1.74,0,0,1,2.45-1,2.36,2.36,0,0,1,.76,3.05,3.66,3.66,0,0,1-3.22,1.83,7.73,7.73,0,0,1-4.22-1.37,5.54,5.54,0,0,1-2.42-2.64l2.62-.21a.56.56,0,0,0-.19-1.1l-2.59.21a2.9,2.9,0,0,1,.3-1l3.22.12a.57.57,0,0,0,.63-.48.56.56,0,0,0-.49-.62l-2.54-.1,0-.05a9.27,9.27,0,0,1,3.16-1.72,20.71,20.71,0,0,1,4.53-1.12c2.55-.27,5.72.45,6.85,3.06s-.62,5.18-2.46,6.81c-4.25,3.75-11.18,4.49-15.84,1.11a9.46,9.46,0,0,1-2.76-3.14l1.53-.85a.56.56,0,0,0-.56-1l-1.44.79a8.81,8.81,0,0,1-.34-1.14l.06,0,1.9-.95a.56.56,0,0,0,.2-.76.56.56,0,0,0-.76-.2l-1.54.77c0-.12,0-.24,0-.36,0-2.94,2.16-4.88,4.63-6.08,5-2.45,11.58-3.28,16.6-.39a12.07,12.07,0,0,1,5.06,5.47,9.78,9.78,0,0,1,.15,7.33c-2,5.42-7.63,8.15-13.16,8.05-5.76-.11-11.21-3.07-15.47-6.79C1148.59,339.62,1146.66,337.25,1147.14,334.37Zm2.84,28a10.39,10.39,0,0,1-2.52-2.06,9.17,9.17,0,0,1-1-1.26,5,5,0,0,1-.81-1.58c-.13-.75.71-.62,1.19-.63.66,0,1.33,0,2,0a26.05,26.05,0,0,1,3.83.49,27.52,27.52,0,0,1,3.32.88,13.58,13.58,0,0,0,1.75.87,13.82,13.82,0,0,0,1.65.54l-5.54.19a.56.56,0,0,0,0,1.11l7.72-.26A9.6,9.6,0,0,1,1150,362.38Zm26.49-2.05a1.91,1.91,0,0,1,1,.59c.34.5-.14,1-.5,1.35a7.71,7.71,0,0,1-2.6,1.47,8.24,8.24,0,0,1-9-2.4l5.6,2c.68.23,1-.84.29-1.08l-6.11-2.15a16.17,16.17,0,0,0,2.92-.63A20.48,20.48,0,0,1,1176.47,360.33Zm-6.8-2.72a14.33,14.33,0,0,1-1.77.73,23.29,23.29,0,0,0-4,.72,14,14,0,0,1-4-.4,30.09,30.09,0,0,0-3.49-1.43,13,13,0,0,1-4.41-4.31,14,14,0,0,1-1.9-10.38,36.23,36.23,0,0,0,4,2.85,24.54,24.54,0,0,0,9.47,3.71c5.62.81,11.7-.94,15.05-5.57C1177.37,349.16,1175,354.9,1169.67,357.61Z" transform="translate(-53.56 -52.92)"/><path class="cls-6" d="M1174,349.87l-4.36.57a.58.58,0,0,0-.56.56.56.56,0,0,0,.56.55L1174,351a.56.56,0,0,0,.56-.55C1174.56,350.16,1174.3,349.83,1174,349.87Z" transform="translate(-53.56 -52.92)"/><path class="cls-6" d="M1172.14,352.11a15.42,15.42,0,0,1-4.79.24.57.57,0,0,0-.56.56.57.57,0,0,0,.56.56,16.36,16.36,0,0,0,5.08-.29.55.55,0,0,0,.39-.68A.56.56,0,0,0,1172.14,352.11Z" transform="translate(-53.56 -52.92)"/></g><g id="flower1-3" data-name="flower1"><path class="cls-6" d="M852.48,685.53c2.19-3.66,3.21-7.9,3.94-12a.59.59,0,0,0,0-.3,10.68,10.68,0,0,0,0-7.06,13,13,0,0,0-5.46-6.53,16,16,0,0,0-9.47-2.14,33.68,33.68,0,0,0-7.51,1.7c-3.22.41-8,1.57-10.12,4.16a7.46,7.46,0,0,0-.9,8.54,13.37,13.37,0,0,0,2.3,2.87.51.51,0,0,0-.11.22,15.19,15.19,0,0,0,4.41,14.49l-.68-.15a29.17,29.17,0,0,0-4.35-.52,19.44,19.44,0,0,0-2.29,0,1.77,1.77,0,0,0-1.38.62c-.73,1,.19,2.4.73,3.25a11.79,11.79,0,0,0,2.55,2.81,10.51,10.51,0,0,0,7,2.33,11,11,0,0,0,7.2-3.27q-.45,10.51-1.75,21c-.09.71,1,.7,1.11,0q1.37-10.86,1.8-21.8l0,0a9.5,9.5,0,0,0,11.14,4.12c1.5-.51,4.85-2.11,3.9-4.22-.41-.93-1.49-1.25-2.39-1.51a22.44,22.44,0,0,0-4-.74c-.47-.05-.94-.07-1.42-.09A16.08,16.08,0,0,0,852.48,685.53Zm-19.55-26c-.63.24-1.2.49-1.7.73C831.22,660.12,832.14,659.79,832.93,659.53Zm-9.79,7.84a8.24,8.24,0,0,1,5.26-6,15.22,15.22,0,0,1,3.17-.88,7.46,7.46,0,0,0-3.8,7.39,10.18,10.18,0,0,0,5.1,7.3,13.29,13.29,0,0,0,9.22,1.48,14.29,14.29,0,0,0,8.12-4.45,1.63,1.63,0,0,0,.3.07l1.14.12a.87.87,0,0,0,.55-.11.37.37,0,0,0,.16-.17.29.29,0,0,0,0-.22.66.66,0,0,0-.27-.43,1.2,1.2,0,0,0-.6-.23l-.53-.06q.16-.25.3-.51a.54.54,0,0,0,.41.18H853a.58.58,0,0,0,.4-.16.54.54,0,0,0,.16-.39.56.56,0,0,0-.56-.56h-1.29a5.53,5.53,0,0,0-.65-5.71c-2.09-2.59-5.66-2.87-8.69-2.25-2.67.55-6.22,1.51-7.79,4-1.76,2.75.55,5.49,2.92,6.84,2.55,1.46,6.38,2.12,8.33-.68,1.45-2.08.26-5.62-2.6-5.29a2.71,2.71,0,0,0-2.4,2c-.16.7.91,1,1.07.3a1.74,1.74,0,0,1,2.45-1,2.36,2.36,0,0,1,.76,3.05,3.66,3.66,0,0,1-3.22,1.83,7.73,7.73,0,0,1-4.22-1.37,5.54,5.54,0,0,1-2.42-2.64l2.62-.21a.56.56,0,0,0-.19-1.1l-2.59.21a2.9,2.9,0,0,1,.3-1l3.22.12a.57.57,0,0,0,.63-.48.56.56,0,0,0-.49-.62l-2.54-.1,0,0a9.27,9.27,0,0,1,3.16-1.72,20.71,20.71,0,0,1,4.53-1.12c2.55-.27,5.72.45,6.85,3.06s-.62,5.18-2.46,6.81c-4.25,3.75-11.18,4.49-15.84,1.11a9.46,9.46,0,0,1-2.76-3.14l1.53-.85a.56.56,0,0,0-.56-1l-1.44.79a8.81,8.81,0,0,1-.34-1.14l.06,0,1.9-.95a.56.56,0,0,0,.2-.76.56.56,0,0,0-.76-.2l-1.54.77c0-.12,0-.24,0-.36,0-2.94,2.16-4.88,4.63-6.08,5-2.45,11.58-3.28,16.6-.39a12.07,12.07,0,0,1,5.06,5.47,9.78,9.78,0,0,1,.15,7.33c-2,5.42-7.63,8.15-13.16,8.05-5.76-.11-11.21-3.07-15.47-6.79C824.59,672.62,822.66,670.25,823.14,667.37Zm2.84,28a10.39,10.39,0,0,1-2.52-2.06,9.17,9.17,0,0,1-1-1.26,5,5,0,0,1-.81-1.58c-.13-.75.71-.62,1.19-.63.66,0,1.33,0,2,0a26.05,26.05,0,0,1,3.83.49,27.52,27.52,0,0,1,3.32.88,13.58,13.58,0,0,0,1.75.87,13.82,13.82,0,0,0,1.65.54l-5.54.19a.56.56,0,0,0,0,1.11l7.72-.26A9.6,9.6,0,0,1,826,695.38Zm26.49-2a1.91,1.91,0,0,1,1,.59c.34.5-.14,1-.5,1.35a7.71,7.71,0,0,1-2.6,1.47,8.24,8.24,0,0,1-9-2.4l5.6,2c.68.23,1-.84.29-1.08l-6.11-2.15a16.17,16.17,0,0,0,2.92-.63A20.48,20.48,0,0,1,852.47,693.33Zm-6.8-2.72a14.33,14.33,0,0,1-1.77.73,23.29,23.29,0,0,0-4,.72,14,14,0,0,1-4-.4,30.09,30.09,0,0,0-3.49-1.43,13,13,0,0,1-4.41-4.31,14,14,0,0,1-1.9-10.38,36.23,36.23,0,0,0,4,2.85,24.54,24.54,0,0,0,9.47,3.71c5.62.81,11.7-.94,15-5.57C853.37,682.16,851,687.9,845.67,690.61Z" transform="translate(-53.56 -52.92)"/><path class="cls-6" d="M850,682.87l-4.36.57a.58.58,0,0,0-.56.56.56.56,0,0,0,.56.55L850,684a.56.56,0,0,0,.56-.55C850.56,683.16,850.3,682.83,850,682.87Z" transform="translate(-53.56 -52.92)"/><path class="cls-6" d="M848.14,685.11a15.42,15.42,0,0,1-4.79.24.57.57,0,0,0-.56.56.57.57,0,0,0,.56.56,16.36,16.36,0,0,0,5.08-.29.55.55,0,0,0,.39-.68A.56.56,0,0,0,848.14,685.11Z" transform="translate(-53.56 -52.92)"/></g></svg>