<svg xmlns="http://www.w3.org/2000/svg" viewBox="0 0 35.38 56.43"><defs><style>.cls-1{fill:#d9b8b8;}</style></defs><g id="Layer_2" data-name="Layer 2"><g id="Layer_2-2" data-name="Layer 2"><path class="cls-1" d="M29.09,36.72A8.6,8.6,0,0,0,24,34.83a16.23,16.23,0,0,0,6.87-7.67A22.21,22.21,0,0,0,32.41,16a.69.69,0,0,0-.65-.61,9.92,9.92,0,0,0,3.62-6.86,7.18,7.18,0,0,0-3.62-6.15C29.3.77,26.24.42,23.4.17a31.27,31.27,0,0,0-9.06.35c-5,1-9.86,4.06-11.94,8.91a11.73,11.73,0,0,0-.89,3.43.51.51,0,0,0,.11.42A9,9,0,0,0,.35,15.57a5.69,5.69,0,0,0,1.43,6.09A9.82,9.82,0,0,0,6.6,24.05c-1.17,5.77,3.37,11.44,9,12.36a20,20,0,0,0-8.9,12.23.66.66,0,0,0,1.09.63,105.6,105.6,0,0,0,12.06-12l.05.06A126.2,126.2,0,0,0,22,56c.16.83,1.42.48,1.26-.35a124.64,124.64,0,0,1-2-17.66A24,24,0,0,1,32.39,45.5c.46.54,1.21-.06,1.1-.64C32.88,41.81,31.59,38.69,29.09,36.72ZM1.67,15.77c.88-2.18,2.86-3.78,4.78-5a25,25,0,0,1,6.46-3,25.27,25.27,0,0,1,7.17-1.08,18.62,18.62,0,0,1,3.42.24,6.76,6.76,0,0,1,.88.23L21.56,8a.65.65,0,1,0,.34,1.26l3.56-1.11A.73.73,0,0,0,25.71,8a1.62,1.62,0,0,1,.1.18,1.21,1.21,0,0,1,.12.43l-6.11,1.83c-.8.24-.46,1.51.35,1.26l5.07-1.52a6.78,6.78,0,0,1-.92.82,31.05,31.05,0,0,1-3.05,2c-.54.31-1.09.61-1.65.89a.64.64,0,0,0-.22-.21c-2.29-1.23-6-2.1-8.44-1.27-1.76.6-5.09,2.66-3.53,4.94.67,1,2,1,3,.87a29.1,29.1,0,0,0,4.21-.95,33.27,33.27,0,0,0,8-3.58c1.48-.92,4-2.33,4.5-4.24a.66.66,0,0,0,.09-.65,2.7,2.7,0,0,0-.09-.79c-.62-2.24-3.53-2.53-5.44-2.65a26.1,26.1,0,0,0-6.94.52l.2-.29a.67.67,0,0,0,.07-.5.65.65,0,0,0-.3-.39.7.7,0,0,0-.51-.07.83.83,0,0,0-.39.3l-1,1.43-.31.09.24-.41a.69.69,0,0,0,.06-.51.65.65,0,0,0-.3-.39.66.66,0,0,0-.89.24L10.73,7l-.05.15a25.92,25.92,0,0,0-5,2.56A19.66,19.66,0,0,0,3,11.76C3.86,8,6.82,5,10.23,3.26,14.8,1,20.2,1,25.14,1.66c2.46.31,5.1.86,7,2.59a5.6,5.6,0,0,1,1.53,6.29c-.88,2.4-2.94,4.13-4.94,5.58a40.5,40.5,0,0,1-6.24,3.78A27.28,27.28,0,0,1,8.46,23C4.8,22.66-.13,20.23,1.67,15.77Zm16.39-1.09A30.48,30.48,0,0,1,14.46,16a33.14,33.14,0,0,1-3.57.86c-.84.16-3,.44-2.39-1.11a4.41,4.41,0,0,1,2.69-2,8.31,8.31,0,0,1,3.32-.46A11.36,11.36,0,0,1,18.06,14.68ZM7.88,24.25A24.4,24.4,0,0,0,16,23.61a36.8,36.8,0,0,0,15.07-7.7s0,0,0,.05c.06.59.1,1.19.12,1.78,0,0-.07,0-.1.08a12.38,12.38,0,0,1-6.44,3.76c-.82.19-.47,1.45.35,1.26a13.56,13.56,0,0,0,6.19-3.27c0,.69-.08,1.37-.17,2.06l-.06,0a15.58,15.58,0,0,1-5.4,2.62A.65.65,0,0,0,26,25.53a16.75,16.75,0,0,0,4.79-2.13,15.58,15.58,0,0,1-5.16,8.84c-4.34,3.58-10.95,4.33-15.11.07A9,9,0,0,1,7.88,24.25Zm.8,22.53a18.79,18.79,0,0,1,9.41-10.23q.39,0,.78-.06A106.43,106.43,0,0,1,8.68,46.78ZM21.4,36.62h.06A6.76,6.76,0,0,1,28.59,38a10.9,10.9,0,0,1,2.94,4.66A25.31,25.31,0,0,0,21.4,36.62Z"/></g></g></svg>