<svg xmlns="http://www.w3.org/2000/svg" viewBox="0 0 57.68 39.68"><defs><style>.cls-1{fill:#a9cbd9;}</style></defs><g id="Layer_2" data-name="Layer 2"><g id="Layer_2-2" data-name="Layer 2"><path class="cls-1" d="M55.77,11.34a13,13,0,0,0-4.45.72,35.77,35.77,0,0,0-14.15,7.49,18.84,18.84,0,0,0-.37-2.37A22.52,22.52,0,0,0,25.45,2.68c-6-3.22-13.76-3.95-19.53.12A14,14,0,0,0,.53,10a13.47,13.47,0,0,0,.86,9.64,15.49,15.49,0,0,0,3.78,5,15,15,0,0,0,9.37,14.09c5.8,2.34,12.73.57,17.2-3.64a18.14,18.14,0,0,0,5.37-11,17.61,17.61,0,0,0,8.24,7.58,3.23,3.23,0,0,0,3,.12A2.32,2.32,0,0,0,49.18,29a7.8,7.8,0,0,0-1.5-2.68,16.76,16.76,0,0,0-4.31-3.94c4-.49,7.86-2.71,11-5.22,1.11-.88,2.83-1.93,3.24-3.39A1.94,1.94,0,0,0,55.77,11.34ZM32.51,31.87a15.6,15.6,0,0,1-14.07,6.22A13.62,13.62,0,0,1,7.11,28.37a11.93,11.93,0,0,1-.43-2.64,19.49,19.49,0,0,0,6.87,3.06c-.14.81-.29,1.61-.43,2.41a.79.79,0,0,0,.07.58.77.77,0,0,0,.45.34.75.75,0,0,0,.92-.52c.15-.85.31-1.69.46-2.53a17.53,17.53,0,0,0,2.89.18c-.24,1.5-.48,3-.71,4.5a.76.76,0,0,0,.52.92.76.76,0,0,0,.92-.52c.26-1.62.51-3.23.77-4.85a.86.86,0,0,0,0-.16,12.28,12.28,0,0,0,2.34-.56l-1,5.17a.76.76,0,0,0,.52.92.75.75,0,0,0,.92-.52l1-5.36A.79.79,0,0,0,23,28a8.9,8.9,0,0,0,3.42-3c2-2.94,1.27-6.52-.42-9.4C24.4,13,21.93,9.94,18.94,8.73A6.45,6.45,0,0,0,11.36,11a6.1,6.1,0,0,0-.28,7.44A7.16,7.16,0,0,0,17.52,21a6.1,6.1,0,0,0,3.24-1.42c.73-.62-.33-1.68-1.06-1.06a5.29,5.29,0,0,1-6,.23A4.42,4.42,0,0,1,11.88,13a5.28,5.28,0,0,1,5.47-3.16c-.27.18-.55.35-.83.52a.81.81,0,0,0-.34.45.78.78,0,0,0,.07.58.77.77,0,0,0,1,.27l1.87-1.17a10,10,0,0,1,.92.57L16,13.64a.69.69,0,0,0-.22.91.61.61,0,0,0,.86.24l4.27-2.74a.66.66,0,0,0,.19-.18q.49.45,1,1L17.34,16a.76.76,0,0,0-.18,1,.77.77,0,0,0,1.05.19L23,14a24,24,0,0,1,1.49,2.16c1.63,2.63,2.39,5.93.31,8.56-1.89,2.39-5,3.19-7.91,3C11.05,27.44,5,24.08,2.56,18.56A11.76,11.76,0,0,1,7,3.86C12.19.43,19,1,24.33,3.78a21.35,21.35,0,0,1,10.53,12A18.07,18.07,0,0,1,32.51,31.87Zm14.66-3.69c.31.48.93,1.48.52,2.06S46,30.21,45.5,30a16.39,16.39,0,0,1-4.37-3.15,16.61,16.61,0,0,1-3.42-5,.67.67,0,0,0-.12-.16c.27.1.53.19.8.27,1,1.33,1.91,2.65,2.86,4a.75.75,0,0,0,1.3-.76l-1.84-2.54A15.24,15.24,0,0,1,47.17,28.18Zm6.14-12.1a23.16,23.16,0,0,1-7.3,4.2,12.89,12.89,0,0,1-5.64.55L40,20.69,45,18.88a.75.75,0,1,0-.4-1.44L40.27,19a33.87,33.87,0,0,1,12.21-5.68c.61-.15,1.22-.27,1.83-.38.41-.08,1.35-.32,1.71,0C56.76,13.62,53.79,15.7,53.31,16.08Z"/></g></g></svg>