<svg xmlns="http://www.w3.org/2000/svg" viewBox="0 0 36.42 58.59"><defs><style>.cls-1{fill:#bf999c;}</style></defs><g id="Layer_2" data-name="Layer 2"><g id="Layer_2-2" data-name="Layer 2"><path class="cls-1" d="M31.9,28.12c2.19-3.66,3.21-7.89,3.94-12a.5.5,0,0,0,0-.3,10.75,10.75,0,0,0,0-7.06,13,13,0,0,0-5.47-6.53A16,16,0,0,0,20.9,0a33.2,33.2,0,0,0-7.51,1.71c-3.22.4-8,1.56-10.12,4.15a7.44,7.44,0,0,0-.89,8.54,13,13,0,0,0,2.29,2.87.65.65,0,0,0-.11.22A15.19,15.19,0,0,0,9,32c-.23-.05-.45-.11-.68-.15a29,29,0,0,0-4.35-.52,19.44,19.44,0,0,0-2.29,0A1.75,1.75,0,0,0,.27,32c-.73,1,.19,2.39.73,3.24A11.79,11.79,0,0,0,3.55,38a10.51,10.51,0,0,0,7,2.33,11,11,0,0,0,7.2-3.27q-.45,10.52-1.75,21c-.09.71,1,.71,1.11,0q1.36-10.86,1.8-21.8l0,0a9.53,9.53,0,0,0,11.15,4.13c1.5-.52,4.84-2.12,3.9-4.22a3.42,3.42,0,0,0-2.4-1.52,23.38,23.38,0,0,0-4-.74q-.7-.06-1.41-.09A16,16,0,0,0,31.9,28.12Zm-19.55-26c-.62.24-1.2.49-1.69.73C10.65,2.71,11.56,2.39,12.35,2.12ZM2.56,10A8.23,8.23,0,0,1,7.82,4,15.17,15.17,0,0,1,11,3.08a7.46,7.46,0,0,0-3.81,7.4,10.18,10.18,0,0,0,5.1,7.29,13.26,13.26,0,0,0,9.23,1.48,14.3,14.3,0,0,0,8.12-4.45,1.32,1.32,0,0,0,.3.07l1.14.12a.83.83,0,0,0,.55-.11.35.35,0,0,0,.15-.17.29.29,0,0,0,0-.22.62.62,0,0,0-.27-.43,1.26,1.26,0,0,0-.6-.23l-.53-.06c.11-.16.21-.33.31-.51a.51.51,0,0,0,.4.19h1.33a.58.58,0,0,0,.39-.17.51.51,0,0,0,.16-.39.56.56,0,0,0-.55-.56H31.17a5.54,5.54,0,0,0-.66-5.71C28.43,4,24.86,3.75,21.82,4.38c-2.67.55-6.21,1.5-7.79,4-1.76,2.75.55,5.5,2.92,6.84,2.55,1.46,6.38,2.12,8.33-.68,1.45-2.08.27-5.62-2.6-5.29a2.72,2.72,0,0,0-2.4,2c-.16.69.92,1,1.08.29a1.73,1.73,0,0,1,2.44-1,2.35,2.35,0,0,1,.76,3,3.66,3.66,0,0,1-3.22,1.83A7.76,7.76,0,0,1,17.12,14a5.49,5.49,0,0,1-2.42-2.64l2.62-.21a.57.57,0,0,0,.46-.65.59.59,0,0,0-.65-.45l-2.59.21a3,3,0,0,1,.3-1l3.22.13a.58.58,0,0,0,.63-.49.57.57,0,0,0-.48-.62l-2.55-.1.05,0a9.1,9.1,0,0,1,3.16-1.72A20.31,20.31,0,0,1,23.4,5.24C26,5,29.12,5.7,30.25,8.3s-.62,5.18-2.46,6.81c-4.25,3.76-11.18,4.5-15.83,1.11a9.39,9.39,0,0,1-2.77-3.14l1.53-.85a.56.56,0,0,0,.2-.76.56.56,0,0,0-.76-.2l-1.44.8a7.91,7.91,0,0,1-.33-1.15l.06,0,1.89-1a.55.55,0,0,0,.2-.76A.56.56,0,0,0,9.78,9l-1.54.77c0-.12,0-.23,0-.35,0-2.95,2.16-4.88,4.63-6.09C17.9.87,24.44,0,29.46,2.94A12.05,12.05,0,0,1,34.52,8.4a9.74,9.74,0,0,1,.15,7.33c-2,5.43-7.63,8.15-13.16,8.05C15.75,23.67,10.3,20.71,6,17,4,15.22,2.08,12.84,2.56,10ZM5.4,38a10.39,10.39,0,0,1-2.52-2.06,9.65,9.65,0,0,1-1-1.25,4.91,4.91,0,0,1-.82-1.59c-.13-.75.71-.62,1.19-.62.67,0,1.33,0,2,0A27.29,27.29,0,0,1,8.12,33a27,27,0,0,1,3.32.88,13.63,13.63,0,0,0,1.75.88,15.84,15.84,0,0,0,1.65.53l-5.54.19c-.71,0-.72,1.14,0,1.11L17,36.31A9.62,9.62,0,0,1,5.4,38Zm26.5-2a2,2,0,0,1,1,.59c.34.5-.14,1-.5,1.35a7.71,7.71,0,0,1-2.6,1.47,8.24,8.24,0,0,1-9-2.4l5.6,2c.68.24,1-.84.3-1.08l-6.12-2.15A15.36,15.36,0,0,0,23.51,35,20.89,20.89,0,0,1,31.9,35.92ZM25.09,33.2a12.43,12.43,0,0,1-1.77.73,23.29,23.29,0,0,0-4,.72,14,14,0,0,1-4-.39,30.09,30.09,0,0,0-3.49-1.43,13.17,13.17,0,0,1-4.41-4.31,14,14,0,0,1-1.9-10.39,35.06,35.06,0,0,0,4,2.86,24.66,24.66,0,0,0,9.48,3.7c5.61.81,11.7-.94,15-5.57C32.79,24.75,30.45,30.5,25.09,33.2Z"/><path class="cls-1" d="M29.42,25.46,25.06,26a.58.58,0,0,0-.56.56c0,.27.26.6.56.56l4.36-.57A.58.58,0,0,0,30,26,.56.56,0,0,0,29.42,25.46Z"/><path class="cls-1" d="M27.56,27.7a15.4,15.4,0,0,1-4.79.24.57.57,0,0,0-.56.56.57.57,0,0,0,.56.56,16.73,16.73,0,0,0,5.09-.28.56.56,0,0,0-.3-1.08Z"/></g></g></svg>