<svg xmlns="http://www.w3.org/2000/svg" viewBox="0 0 37.18 29.18"><defs><style>.cls-1{fill:#a9cbd9;opacity:0.62;}</style></defs><g id="Layer_2" data-name="Layer 2"><g id="Layer_2-2" data-name="Layer 2"><path class="cls-1" d="M35.36,9.5C33.14,8,30,9.12,28,10.51a11.45,11.45,0,0,0-4.67,6.91,1,1,0,0,0,0,.17l-.61-.09c0-.06,0-.12,0-.18A19.79,19.79,0,0,0,21.27,11a26.66,26.66,0,0,0-2.69-5.59C16.47,2.31,13-.27,9,0,4.52.36,1.66,4.54.54,8.56c-.9,3.19-.78,6.88,1.18,9.57a6.57,6.57,0,0,0,2.82,7.8C8,28.11,13,27.46,16.59,26a10.9,10.9,0,0,0,3.73-2.47c.67,3,2.8,5.73,6.21,5.67a5.46,5.46,0,0,0,4.64-2.51,5.38,5.38,0,0,0-1-6.13c-.12-.13-.25-.24-.37-.35l.29-.06c2.49-.58,5.21-2,6.46-4.32C37.64,13.76,37.38,10.89,35.36,9.5ZM12.42,25c-3,.49-7,.34-8.59-2.67A4.1,4.1,0,0,1,3.4,19.7c.91.22,1.87-.94,1-1.68a3.55,3.55,0,0,1-.33-.34A11,11,0,0,1,7.37,14a5.85,5.85,0,0,1,4.86-1.22,4,4,0,0,1,2.68,2.88c.74,3.78-4.7,3.1-6.75,2.51a1,1,0,0,0-.55,2c3,.86,7.38,1.22,9-2.14,1.42-3-1-6.5-4-7.25-3.94-1-7.81,2-9.84,5.13C.86,11.81,2.75,5.77,6.17,3.2,8.64,1.33,12,2,14.31,3.76c2.5,1.9,3.91,5,5,7.82.95,2.54,2,5.64,1.05,8.29a1.2,1.2,0,0,0-.13.33,5.46,5.46,0,0,1-.55,1C18.07,23.57,15.08,24.56,12.42,25Zm16,1.61A3.81,3.81,0,0,1,23.76,26a6.6,6.6,0,0,1-1.55-5.44,6.83,6.83,0,0,0,.27-.91,14.11,14.11,0,0,0,4,.82,5.85,5.85,0,0,1,2.14,1.45C29.9,23.3,30.21,25.56,28.37,26.62Zm2.53-8.88a11.29,11.29,0,0,1-4,.68A13.59,13.59,0,0,0,25.34,18a9.35,9.35,0,0,1,3.92-5.82c1.69-1.12,5.22-2.43,5.83.5C35.61,15.19,33,17,30.9,17.74Z"/></g></g></svg>