<svg xmlns="http://www.w3.org/2000/svg" viewBox="0 0 14.28 15.54"><defs><style>.cls-1{fill:#d9b8b8;opacity:0.62;}</style></defs><g id="Layer_2" data-name="Layer 2"><g id="Layer_2-2" data-name="Layer 2"><path class="cls-1" d="M9.78,15.46c3.7-2.23,5.63-6.91,3.79-11A7.36,7.36,0,0,0,3.61.75a6.46,6.46,0,0,0-2.45,9.48,5.57,5.57,0,0,0,4.72,2.44,4.66,4.66,0,0,0,4.28-2.74A4.14,4.14,0,0,0,8.44,5,3.49,3.49,0,0,0,3.53,7.32a.58.58,0,0,0,1.11.3A2.29,2.29,0,0,1,8.26,6.26,3,3,0,0,1,9,9.79,3.75,3.75,0,0,1,5.23,11.5,4.51,4.51,0,0,1,1.82,9.11,5.3,5.3,0,0,1,4.36,1.66a6.18,6.18,0,0,1,8,2.87c1.95,3.57.23,7.92-3.11,9.93A.58.58,0,0,0,9.78,15.46Z"/></g></g></svg>