<svg xmlns="http://www.w3.org/2000/svg" viewBox="0 0 66.82 49.49"><defs><style>.cls-1{opacity:0.62;}.cls-2{fill:#d9b8b8;}</style></defs><g id="Layer_2" data-name="Layer 2"><g id="Layer_2-2" data-name="Layer 2"><g class="cls-1"><path class="cls-2" d="M15.75,32.28c5.17,6.56,16.38,6.83,21.79.35,2.9-3.47,2.14-8.8-.12-12.42S31,14.46,26.77,15.56s-6.89,5.92-5,9.94a6.2,6.2,0,0,0,9.63,1.83c.92-.9-.49-2.31-1.42-1.41-2.09,2-5.91.78-6.65-2-.91-3.34,1.92-6.45,5.16-6.67,3.76-.25,6.85,2.41,8.13,5.79a10.85,10.85,0,0,1,.72,5.37A7.09,7.09,0,0,1,34.16,33c-5.41,3.84-13.69,2.89-17.44-2.8A12,12,0,0,1,19.8,13.67a19.3,19.3,0,0,1,10.07-3.21c3.83-.17,8,.56,10.77,3.39.9.92,2.31-.49,1.41-1.41-5.78-5.89-16.9-4.9-23.26-.49a13.81,13.81,0,0,0-6,9.46A14.62,14.62,0,0,0,15.75,32.28Z"/><path class="cls-2" d="M36.2,2a1,1,0,0,0,0-2A1,1,0,0,0,36.2,2Z"/><path class="cls-2" d="M1,16.81a1,1,0,0,0,0-2A1,1,0,0,0,1,16.81Z"/><path class="cls-2" d="M63.83,20.16a.94.94,0,0,0,.26.44,1,1,0,0,0,.71.29h1a.73.73,0,0,0,.38-.08.69.69,0,0,0,.32-.21.75.75,0,0,0,.21-.32.86.86,0,0,0,.09-.39l0-.26a.94.94,0,0,0-.26-.44,1,1,0,0,0-.7-.3h-1a.86.86,0,0,0-.39.09.75.75,0,0,0-.32.21.69.69,0,0,0-.21.32.73.73,0,0,0-.08.38Z"/><path class="cls-2" d="M3.52,49.49a1,1,0,0,0,0-2A1,1,0,0,0,3.52,49.49Z"/></g></g></g></svg>