<svg xmlns="http://www.w3.org/2000/svg" viewBox="0 0 874.09 363.8"><defs><style>.cls-1{fill:#591c1c;}.cls-2{fill:#d9b8b8;}.cls-3{fill:#a9cbd9;}.cls-4{fill:#bf999c;}</style></defs><g id="Layer_2" data-name="Layer 2"><g id="Layer_1-2" data-name="Layer 1"><path class="cls-1" d="M405.2,222.2l-.18-.07h-.14l.12.11Z"/><path class="cls-1" d="M360.56,234.42s0,0,0-.07l-.13,0Z"/><path class="cls-2" d="M433.32,61.18c-.35-7-.82-14-2.69-20.82a77.07,77.07,0,0,0-2.91-8.17c-.8-2-1.83-3.85-2.8-5.76-6.06-12-15.34-20.43-28.23-24.49-9.71-3-19.37-2.7-28.37,2.41A120.43,120.43,0,0,0,353.84,14C339.65,25,325.62,36.31,312,48.12A415.92,415.92,0,0,0,278.87,79.6c-5.82,6.3-11.17,12.93-15,20.67a44.33,44.33,0,0,0-4.21,12.55c-1.14,7,.77,13,6.6,17.42,2.31,1.73,4.85,3.16,7.31,4.69,1.42.87,2.88,1.67,4,2.34,2.9,6.67,5.72,12.93,8.36,19.26a110.45,110.45,0,0,0,14.79,25.7,59.22,59.22,0,0,0,21.88,17.63,85.72,85.72,0,0,0,31.78,8l4.65.26c.73,2.27,3.4,3.06,3.9,5.64-1.22.63-2.3,1.14-3.35,1.72a16.57,16.57,0,0,0-8.09,9.53c-1.52,4.69-.68,13,1.75,18l2.26.24a61.11,61.11,0,0,1,9.16-11.38A51.19,51.19,0,0,1,377.6,223c2,8.46,2.95,16.61,4.29,24.67s2.54,16,4,23.93S389,287.67,390.65,296c.6.83,1.58,1.37,3.25.6a13.06,13.06,0,0,0,.11-2.89c-.5-2.85-1.26-5.66-1.75-8.52q-5-28.85-10-57.72a16.37,16.37,0,0,1-.07-2.37,9.37,9.37,0,0,1,1.89-.34,68.91,68.91,0,0,1,15.1,1.82,46.8,46.8,0,0,1-7.1-5.08l-8-.8-2.36-.22-.84-1.84c1.92-1,3.73-2.07,5.55-3a43,43,0,0,1-3.51-5.13,20.23,20.23,0,0,1-3,1.55c-1.11-2.47-2.1-4.64-3.2-7.1l2.69-.92a25.82,25.82,0,0,1-1.67-4.23,51.48,51.48,0,0,1-16.38,3.49,74,74,0,0,1-41.64-10.2A55.19,55.19,0,0,1,306,181.23a109.9,109.9,0,0,1-10.32-14.53,40,40,0,0,1-3.82-8.46c3-.16,4.95,2.12,8.18,2.23-1.57-1.81-3.26-2.14-4.67-2.86s-3-1.4-4.59-2.1a9.84,9.84,0,0,1-2.44-5.2c1.08-1,1.81-.07,2.5.29,3.93,2,7.77,4.23,11.74,6.17a80,80,0,0,0,7.65,3,25.64,25.64,0,0,0,3.49.64c-2-1.88-3.71-1.89-5.13-2.53s-3.11-1.26-4.64-1.94-3-1.42-4.54-2.18-2.71-1.41-4-2.15-2.93-1.64-4.37-2.51-2.84-1.77-4.35-2.72c-.79-1.52-2-2.92-2.07-4.8,1.51-.71,2.51.23,3.55.73,6.75,3.21,13.5,6.43,20.19,9.76A116.94,116.94,0,0,0,328.78,160c10.51,2.94,21.09,3.34,31.58-.06a56.79,56.79,0,0,0,5.64-2.18,6,6,0,0,1,.05-4.7,43.59,43.59,0,0,1-14.58,4.34,53.63,53.63,0,0,1-20.87-1.53A100.31,100.31,0,0,1,313,149.33c-11.49-5.67-23-11.34-34.42-17.12A75.77,75.77,0,0,1,270,127c-5-3.4-6.54-8.23-5.43-14a41.69,41.69,0,0,1,6.8-15.88,136.49,136.49,0,0,1,9.47-12.32A299.86,299.86,0,0,1,302.7,62.73q15.15-14,31.2-26.86c8-6.38,15.86-12.9,23.93-19.16A107.89,107.89,0,0,1,370,8.5c7.81-4.52,16.3-5.14,24.79-2.56,11.32,3.44,19.64,10.69,25.33,21.11,6.09,11.16,8.05,23.23,8.28,35.73a37.3,37.3,0,0,1-2.68,13.39c-6.05,16.69-14.74,31.79-27,44.73-1.53,1.62-2.79,3.57-5.09,4.79-.54-1.9.31-3.44.53-5s.56-3.31.87-5.14c2.65-4.11,6.55-7.58,8.3-12.5-2.9,2.38-4.33,6.07-7.53,8.55-1-1.62-.66-3.11-.75-4.42l3.77-6.18c-2.11-.25-2,2.06-3.38,2.11-.22-.16-.6-.29-.64-.49-1-4.62-1.68-9.31-2.87-13.86a74.61,74.61,0,0,0-8.52-19.68C378.27,60.6,372.92,58.5,363.29,61a74.76,74.76,0,0,0-15.77,6.07q-12.75,6.69-25.14,14.09A136.42,136.42,0,0,0,310.13,90a21.62,21.62,0,0,0-6,6.83c-2.61,4.77-3.62,10.15,1.65,16.57a79.34,79.34,0,0,0,10.74,10.55,72.43,72.43,0,0,0,17.59,10.59,47.74,47.74,0,0,0,5.6,2,13.4,13.4,0,0,0,12.17-2.13,29.88,29.88,0,0,0,5.12-4.53,42.35,42.35,0,0,0,10.58-29.9,24.2,24.2,0,0,0-1.36-6.69c-1.48-4.5-3.89-5.67-8.46-4.06a41.74,41.74,0,0,0-7.92,3.55c-6.38,3.89-12.63,8-18.87,12.12a14.92,14.92,0,0,0-5.77,6.94c-1.43,3.54-.61,6.9,2.6,8.78a24.79,24.79,0,0,0,16.32,3.13,7.62,7.62,0,0,0,4.94-3.06c.75-1,1.36-2,2.07-3.11l1.26-.27,1.39-.29-1.74-2,2.58-1.47-2-2.24,3.59-.9c0-.19.07-.43,0-.47-.74-.43-1.49-.83-2.78-1.54l4.36-1.79-2.75-1c0-.38,0-.8.06-1.44l4.09.18c.26-1.44-.84-1.07-1.41-1.32s-1.33-.49-2.05-.75c1-2.15,3.34-.16,4.68-1.9L357,99.37c-.2-.37-.49-.65-.45-.88.2-1.49.48-3,.78-4.73l4-.92a13.11,13.11,0,0,1,2,7.21,38,38,0,0,1-11.17,28.58c-4,4.07-8.47,5.15-13.75,3A72,72,0,0,1,314,115.72a53.42,53.42,0,0,1-5.89-7,7.59,7.59,0,0,1-.38-8.72c2,.36,2.7,2,3.79,3.13,1.89,2,3.74,4,5.68,5.94a4.77,4.77,0,0,0,2.39,1.13c-3.49-4.15-7.81-7.55-10.4-12.67l2.3-2.37c1,1.11,1.77,2,2.6,2.87s1.52,1.39,2.8,2.55c-.15-1.94-1.27-2.57-1.83-3.48s-1.3-2-2.08-3.23l2.23-2.12,3.26,1.44-1.11-3.1c1.32-1,2.58-2.12,3.93-3.06A181.32,181.32,0,0,1,343,74.28c5-2.56,10.18-4.88,15.35-7.12a40.05,40.05,0,0,1,7-2.17c7-1.61,10.06-.32,13.91,5.65a75.81,75.81,0,0,1,7.52,16.15A69.62,69.62,0,0,1,390.51,112a49.49,49.49,0,0,1-6.34,23.73c3.36-1.2,6.61-2.4,9.8-3.69,1.89-1.66,3.69-3.41,5.48-5.18A126.86,126.86,0,0,0,426.91,86.7c.45-1,.66-2.32,2-2.73v-.06H429l-.13,0c-.16,4.69-.25,9.38-.54,14.06a7.85,7.85,0,0,1-1.34,3.36,216.27,216.27,0,0,1-15.49,22c.61-.17,1.22-.34,1.82-.47,3.77-5,7.46-10.08,11.18-15.12l2.49-3.4a10.36,10.36,0,0,1-.36,7.16,22.83,22.83,0,0,1-2.39,4.4l-1.92,2.76c1.07-.53,2.14-1.06,3.23-1.56a1.8,1.8,0,0,1,.19-.2V117a46.29,46.29,0,0,1,5-2A256.82,256.82,0,0,0,433.32,61.18Zm-63.5,145.87,1.73,1.95c.32-.93.61-1.75,1-2.77l2.36-.41c-.17,2.69,1.18,4.88,1,7.3-4.58.54-6.52-.34-9.38-4.12C366.93,207.46,368,206.82,369.82,207.05Zm-1,10.64c1.85.34,3.91.37,5.33,2.21-1.54,1-2.91,1.9-4.29,2.77s-2.85,1.76-4.27,2.63c-.19.22-.37.45-.75.89.11-.57.16-.8.2-1l-1-1c-1.69,1.45-2.47,3.38-3.41,5.22-1.07,2.09-2.13,4.22-4.65,4.94v.07l-.13,0,.13,0c0-3.5,2.52-6,4.27-9.47-2.93.9-3,3.76-5.28,5.05-.1-5.76,2.82-9.08,7.19-11.44A9.9,9.9,0,0,1,368.8,217.69ZM352.18,98.88c-1.43,5.14-2.89,10.28-4.44,15.39-.66,2.18-1.53,4.3-4.19,5.11-1.23-2.1,1.33-3.75.32-5.8-2.24,1.39-1.09,5.25-4.52,6-.29-4,2.85-6.75,3-10.83-1.62,1-1.74,2.46-2.31,3.57s-.92,2.26-1.45,3.36-.71,2.63-2.52,3.44c-.38-2.86,1.64-4.77,1.73-7.06-.83-.59-1.09.06-1.35.54-.51.93-1,1.89-1.45,2.84-.17,1-.1,2.07-1.66,2.46a3,3,0,0,1,.93-2.65c-.06-.58-.11-1.16-.23-2.46l-3,4.75-2-1.66A5.23,5.23,0,0,1,330.7,111a19.92,19.92,0,0,1,3.37-3.06c4.93-3.32,9.94-6.54,14.93-9.77.88-.57,1.85-1,3.2-1.72A10.64,10.64,0,0,1,352.18,98.88Z"/><path class="cls-1" d="M393.52,218.45l-.21-.21a2.25,2.25,0,0,0-.21.12Z"/><path class="cls-1" d="M385.76,207.18h0l0-.05Z"/><path class="cls-3" d="M375.37,200a74.6,74.6,0,0,1-2.85-17.65c-.21-4.57-.55-9.15-.85-14-.57-.69-1.31-1.52-2-2.39-1.19-1.52-2.46-3-3.51-4.61-2.67-4.09-2.5-8.29-.18-12.45a29.93,29.93,0,0,1,5.51-6.92,59.65,59.65,0,0,1,14.13-9.55,279.29,279.29,0,0,1,28-12.2c11.23-4.31,22.62-8.18,34.06-11.89A80.76,80.76,0,0,1,459,105.58c6.81-1.15,13,.84,18.36,5,7.16,5.49,11.07,12.89,12.13,21.82.17,1.42.39,2.84.45,4.26a50.82,50.82,0,0,1-.05,5.79,63.52,63.52,0,0,1-3.06,13.69,170.38,170.38,0,0,1-14.37,34c-2.41,4.25-4.51,8.67-7.27,12.73a87.9,87.9,0,0,1-21.25,22.19,50.23,50.23,0,0,1-12.45,6.44l-1.63.58a12.16,12.16,0,0,1-4.37,7.17c.4.32.58.56.81.63,3.77,1.1,6,3.8,7.26,7.31a57.54,57.54,0,0,1,1.68,6.82,2.27,2.27,0,0,1-1,2.55,5.79,5.79,0,0,1-1.54-.51A27.41,27.41,0,0,1,430,254a40.4,40.4,0,0,0-11.44-6.37,6.56,6.56,0,0,0-1.25-.22,10.22,10.22,0,0,0-.5,1.51q-3.49,19.25-6.93,38.51c-.34,1.91-.51,3.84-.85,5.75a8,8,0,0,1-.73,1.79c-1.22.1-1.71-.46-1.9-1.11.88-5.64,1.66-11.07,2.59-16.48s2-10.62,3-15.93,2.29-10.69,2.93-16.47a34,34,0,0,0-10.11,2.63,40.81,40.81,0,0,0-8.36,5l-1.36-.67c-.39-3.67,1-9.09,3-11.69a11.06,11.06,0,0,1,7.26-4.14c.79-.12,1.58-.2,2.49-.31.28-1.74-1.22-2.84-1.16-4.44l-2.86-1.22a57.22,57.22,0,0,1-18.13-12.25A39.67,39.67,0,0,1,376,201.85c-.21-.63-.4-1.25-.58-1.87m54,49.67.1.08h-.14a5.73,5.73,0,0,0-.72-1.29,13.51,13.51,0,0,0-4.77-3.22,8.81,8.81,0,0,1-1.1-.65,3.71,3.71,0,0,1,2.37.28,11,11,0,0,1,1.84,1.08c.67.46,1.28,1,1.91,1.51s1.19,1,1.77,1.52c.22-.23.34-.3.33-.36-.08-3.14-3.61-6.71-7.25-6.37-1.9.18-3.78.53-5.78.81,0,.57.07.94.1,1.35l1.43.68c2.84,1.36,5.67,2.73,8.51,4.08A12.94,12.94,0,0,0,429.39,249.65Zm-30.8-2.48c1.8.17,3-.95,4.14-2a10.29,10.29,0,0,1,3.34-2.5l.42.84-.37.6.68-.38c1.09-.23,2.18-.44,3.28-.68s2.13-.48,3.32-.76c-.47-1.48-1.75-2-2.84-2.6a6.62,6.62,0,0,0-4.37-1c-3.29.49-5.88,1.91-7.13,5.55,1.7-.3,2.42-2.07,4.46-2-1.9,1.81-4.06,2.79-4.86,5Zm14.13-79.47c.52-.48,1-1,1.56-1.45.27-.24.58-.59,1,0-.58,1.42-2.28,2.16-2.69,4,1.32-.1,1.75-1,2.36-1.59s1.09-1.22,1.68-1.77,1-1.46,2.27-1.72c-1.06,2.52-3.66,3.56-4.38,6.11,2.31.34,2.47-2.34,4.19-2.7.17,1.51-1.82,2-1.53,3.56,1.86.1,2.89-1,3.81-2.25,2.13-2.85,4.22-5.75,6.3-8.65a7.17,7.17,0,0,0,.56-1.52c-1,.14-1.71.19-2.39.34-3.88.89-7.76,1.77-11.61,2.73A13.26,13.26,0,0,0,411,164a3.52,3.52,0,0,0-2.11,2.67c.21.37.5.85.89,1.51l2.94-2.31c-.22.85-.32,1.22-.42,1.6a2,2,0,0,0-1.18,1.45C412.19,169,412.4,168.27,412.72,167.7Zm66.2,1.7c-1-.1-1.42.7-2,1.27a84.78,84.78,0,0,1-26.41,19c-2,.93-4.09,1.85-6.19,2.59a14,14,0,0,0-4.27,2.29,31.61,31.61,0,0,1-21.63,6.94,35.81,35.81,0,0,1-19.85-7.18,77.78,77.78,0,0,1-11.06-9.62c-3.45-3.61-6.95-7.17-10.45-10.73-.54-.55-1-1.37-2.07-1.27a8,8,0,0,0,.21,3.49c.73.94,1.4,1.83,2.11,2.7s1.43,1.72,2.17,2.57,1.34,1.53,2,2.27,1.55,1.63,2.36,2.41,1.66,1.5,2.47,2.28,1.83,1.13,2.64,2.75a15.89,15.89,0,0,1-2-1.19,52.91,52.91,0,0,1-4.12-3.65c-2-2.13-3.95-4.39-6-6.56-.35-.38-.6-1.12-1.5-.75a6.52,6.52,0,0,0,.34,3.82c.81.79,1.65,1.55,2.41,2.37a8.11,8.11,0,0,1,2.28,2.86c-2-.8-2.71-2.69-4.64-3.27a27,27,0,0,0,.48,6.19,72.07,72.07,0,0,0,3.16,11.48A37,37,0,0,0,385.39,213a49.52,49.52,0,0,0,23.82,15.91,34.61,34.61,0,0,0,18.12.66A41.75,41.75,0,0,0,442,222.94,80.91,80.91,0,0,0,458.79,207c.57-.7,1-1.47,1.62-2.31a10.25,10.25,0,0,1-1-.29,6.18,6.18,0,0,1-.73-.43c4-1.89,4.87-2.8,5.9-6.46-1.86.24-3.2,2-5.69,1.7,1.87-1,3.26-1.82,4.72-2.48,3-1.38,4.33-4,5.76-7.36-2.77,1.28-4.65,3-6.82,4.24s-4,2.9-6.65,3.15c0-.32,0-.49.05-.51a79,79,0,0,0,12.71-7.85,15,15,0,0,0,2.5-2.21,6.87,6.87,0,0,0,1.86-4.42l-2.33,1.57c-4.42,2.92-8.8,5.89-13.26,8.74a35.24,35.24,0,0,1-4.68,2.23c-.32.15-.82.28-.85-.37,7.9-3.72,14.95-8.72,21.8-14a5.21,5.21,0,0,0,1.61-1.8c1.26-2.88,2.38-5.82,3.56-8.74Zm-31.79,18.14a13.34,13.34,0,0,0,4.29-1.85,84.51,84.51,0,0,0,27.16-21.92,24.74,24.74,0,0,0,4.74-7.79c2.72-7.9,4.24-15.93,3-24.33a28.09,28.09,0,0,0-11.08-19,20.3,20.3,0,0,0-16.15-4.06,71.87,71.87,0,0,0-9.48,2.39c-6.5,2.09-12.94,4.38-19.41,6.56q-13,4.41-25.72,9.75a196,196,0,0,0-18.77,8.87,91.91,91.91,0,0,0-8.76,5.57,28,28,0,0,0-7.9,8.42c-2,3.38-2.13,6.78.21,10a50.4,50.4,0,0,0,4.22,5.22q8.79,9.36,17.71,18.61a67.17,67.17,0,0,0,9.55,8.1,35.69,35.69,0,0,0,12.76,5.72,28.25,28.25,0,0,0,17.7-1.4c8.34-3.49,13.89-9.87,17.17-18.16a46.52,46.52,0,0,0,3.39-16.7,50.7,50.7,0,0,0-1-11.85c-1.06-4.63-2.7-6.14-7.45-6.73a27.41,27.41,0,0,0-4.87-.23c-3.76.23-7.53.5-11.26,1a120.57,120.57,0,0,0-16.53,3.08c-1.06.29-2.1.68-3.16,1,0,.77,0,1.34,0,2.21-.64-.63-1.12-1.09-1.71-1.65l-1.89.82c.22.94.41,1.72.57,2.5s.71,1.35.36,2.61c-.55-1-.9-1.62-1.18-2.24s-.6-1.47-1-2.4l-2,1c.45,3.81,2.39,6.93,3.63,10.33A3.16,3.16,0,0,1,403,159.7c-.78-1.66-1.48-3.35-2.21-5-.42-1-.51-2.16-1.66-2.83a5.07,5.07,0,0,0-1.76,5.56,35.59,35.59,0,0,0,2.11,5.71,48.27,48.27,0,0,0,11.65,15.56c2.82,2.55,5.89,2.9,9.32,1.25A25.44,25.44,0,0,0,434,164.53a8.8,8.8,0,0,0,.37-5l-2.7-.32c-.59,1-1.1,1.9-1.57,2.79-.07.14.05.38.09.66l2,1.35c-1.24.79-2.24-1-3.38.13.4.33.77.61,1.12.94s1.07.31.59,1.15l-2.53-1c-.17.4-.27.66-.37.89l1.49,1.28-3.15.13c.65.74,1,1.16,1.4,1.6,0,0-.07.17-.12.29l-2.45-.25.74,1.86-2,.33.63,1.67-.93-.13-.86-.12c-.69.52-1.32,1.05-2,1.48a5,5,0,0,1-3.8.79,16.55,16.55,0,0,1-9.53-5.68c-1.59-1.92-1.33-4.22.37-6.12a10.12,10.12,0,0,1,5.21-3c4.86-1.16,9.72-2.31,14.62-3.3a27.88,27.88,0,0,1,5.78-.41c3.23,0,4.48,1.31,4.38,4.48a16.18,16.18,0,0,1-.67,4.5,28.26,28.26,0,0,1-13.47,16.36,20,20,0,0,1-4.25,1.68,9,9,0,0,1-8.13-1.44,33.67,33.67,0,0,1-3.06-2.53,48.16,48.16,0,0,1-8.63-10.67,53.47,53.47,0,0,1-4.33-9.07c-1.84-5.24,0-8.38,2.75-10.78a14.48,14.48,0,0,1,5.32-2.93,92,92,0,0,1,9.7-2.73q9.45-1.81,19-3.1a49,49,0,0,1,11.29-.21c6.62.63,9.5,3.16,10.77,9.64a50.1,50.1,0,0,1,.85,14.3c-.29,3.13-.91,6.24-1.36,9.36,0,.13.18.3.29.45.89.29,1.33-1.19,2.6-.55l-3.78,3a5.45,5.45,0,0,0-.53,2.94c2.57-.82,4.31-2.81,6.67-3.64-2.22,2.68-5.46,4-8.06,5.95-.62,1.08-1.2,2-1.72,3S447.22,186.22,447.13,187.54Zm-28.27,51.13c4.37-.22,6.92-2.09,7.78-5.67l-1.27,0c-.29.81-.54,1.57-.83,2.3,0,.11-.31.12-.57.21l-.14-2.15-1.8.13-1,2.49-.34-.08-.19-2.33-2,0C418.61,235.28,418.73,236.87,418.86,238.67Zm-7.78-5c.93,3,1.95,4,4.95,4.73.69-1.48.34-3.16,1.06-4.81l-1.58-.28-1.24,1.52c-.26-.66-.47-1.2-.64-1.62A1.78,1.78,0,0,0,411.08,233.66Z"/><path class="cls-4" d="M0,242.07c0-23.38,23.67-55.61,70.81-55.61,16.31,0,31,2.56,58.87,2.56,7.76,0,9-4.27,10.74-4.27,1,0,1.78,1.45,1.78,3.1,0,4.64-3.06,14.88-14,14.88-15.51,0-35.8-9.09-62-9.09-29.55,0-49.42,27.86-49.42,48.73,0,7.34,3.31,12.52,9.84,12.52,8.66,0,16-9.93,16-15.18,0-2,4.82.17,4.82,4.63,0,8.52-10,22.32-24.9,22.32C11.55,266.66,0,256.54,0,242.07Zm14.5,50.67c0-2.43.89-4.22,1.76-4.22.72,0,1.26,1.5,3.1,1.5,8.73,0,18.92-4.43,38.53-47.64,12.91-28.45,25-39.08,37.33-39.08,4.06,0,5.44,3.69,3.88,3.69-25.53,0-37,99.49-70.17,99.49C20.63,306.48,14.5,298.08,14.5,292.74Z"/><path class="cls-4" d="M143.21,271.68c-15,24.69-20.66,26.29-28.38,26.29-6.25,0-11.16-4.81-11.16-11.54v-.3C97.52,294.6,92,298,86.17,298c-8.48,0-13.26-6.75-13.26-16.46,0-15.51,14.51-39.62,33.53-39.62,5.25,0,9.46,2.18,11.12,7l1-2.06a1.59,1.59,0,0,1,1.45-.93h12a.79.79,0,0,1,.72,1.13C117.47,279.66,117,283.05,117,287.42c0,1.61.82,2.69,2.13,2.69,2.83,0,10.6-7.88,20.17-22.72a.48.48,0,0,1,.77-.07l3.09,3.39A.83.83,0,0,1,143.21,271.68Zm-35.6-24.14c-9.79,0-21.09,23.21-21.09,35,0,3.57,1.54,5.91,3.9,5.91,4.82,0,11.51-8.07,17.92-19,1.21-2.87,2.71-6.3,4.6-10.48C113.54,252,111.21,247.54,107.61,247.54Z"/><path class="cls-4" d="M190,271.67c-11.88,20-19.88,25.62-30.54,27a28.82,28.82,0,0,1-8,1c-12.43,0-17.56-11.89-17.56-20.38,0-3,.77-4.68,2.34-5.29,2.27-3.15,9.94-14.8,18.11-28.14,2.19-3.6,4.87-5.68,10.26-5.68,4.75,0,8.11,3.69,8.11,6.24-8.1,8.11-.77,27.41-3.06,40.41,4.81-3.66,10.24-9.84,16.38-19.44a.48.48,0,0,1,.76-.07l3.1,3.4a.8.8,0,0,1,.1.95Zm-35.13-14.24c-6.09,9.15-11.4,16.74-13.66,19.84-.69,5.5,1.16,11.64,7.09,11.64C158.8,288.91,155.05,271.45,154.84,257.43Z"/><path class="cls-4" d="M221.83,298c-6.25,0-10-4.23-10-11,0-5,.54-7.42,6.47-20.15,5.62-12.08,6.93-18.16,2.57-18.16-3.57,0-10.94,4.63-17.85,15.74L187.78,297a1.61,1.61,0,0,1-1.46.93h-12a.82.82,0,0,1-.74-1.15l40.27-86.36a1.61,1.61,0,0,1,1.45-.92h12a.81.81,0,0,1,.74,1.15l-17.57,37.66c6.49-5.63,11.72-5.81,16-5.81,10.85,0,13.38,9.91,9.34,18.52-7.25,15.48-10.68,23-10.68,26.37,0,1.61.62,2.69,2.14,2.69,3.91,0,14-10.24,21.79-22.73a.48.48,0,0,1,.76-.07l3.08,3.39a.8.8,0,0,1,.09,1C237.87,296.38,229.63,298,221.83,298Z"/><path class="cls-4" d="M244.81,286.43c0-5.88,1-9.81,16.18-42.48a1.61,1.61,0,0,1,1.46-.93h12a.81.81,0,0,1,.73,1.16c-16.52,35.48-17.05,38.86-17.05,43.24,0,1.61.82,2.69,2.14,2.69,2.82,0,11.13-7.89,20.74-22.74a.48.48,0,0,1,.75-.07l3.11,3.42a.8.8,0,0,1,.09.95c-15,24.7-21.22,26.3-29,26.3C249.73,298,244.81,293.16,244.81,286.43Zm37.44-65.15c2.54,2.53,1.68,7.51-1.93,11.12s-8.58,4.47-11.12,1.93-1.67-7.51,1.93-11.12S279.72,218.74,282.25,221.28Z"/><path class="cls-4" d="M277,286.43c0-5.88.95-9.81,16.17-42.48a1.61,1.61,0,0,1,1.46-.93h12a.81.81,0,0,1,.73,1.16c-16.52,35.48-17.05,38.86-17.05,43.24,0,1.61.82,2.69,2.14,2.69,2.83,0,11.14-7.89,20.75-22.74a.47.47,0,0,1,.74-.07l3.11,3.42a.78.78,0,0,1,.09.95c-15,24.7-21.22,26.3-28.94,26.3C281.88,298,277,293.16,277,286.43Zm37.43-65.15c2.54,2.53,1.68,7.51-1.93,11.12s-8.58,4.47-11.12,1.93-1.67-7.51,1.94-11.12S311.87,218.74,314.4,221.28Z"/><path class="cls-4" d="M477.35,242.07c0-23.38,25.49-55.61,74.22-55.61,27.13,0,55.76,15.7,55.76,54.53,0,43.26-27.16,66.62-55.63,66.62-12.88,0-19.61-7.4-19.61-11.4,0-1.68.78-2.88,1.72-2.88s3.94,5.3,14.59,5.3c21.93,0,42.33-25.54,42.33-61.38,0-31-15.29-44.35-38.13-44.35-39.76,0-58.5,31.06-58.5,49.47,0,7.34,3.31,12.52,9.84,12.52,8.66,0,16-9.93,16-15.18,0-2,4.82.16,4.82,4.63,0,8.51-10,22.32-24.89,22.32C488.9,266.66,477.35,256.54,477.35,242.07Zm28.92,64.41c-8.29,0-14.43-8.4-14.43-13.74,0-2.43.9-4.22,1.77-4.22.72,0,1.26,1.5,3.1,1.5,8.73,0,18.92-4.43,38.53-47.64,12.91-28.45,25-39.08,37.33-39.08,4,0,5.44,3.69,3.88,3.69C550.92,207,539.45,306.48,506.27,306.48Z"/><path class="cls-4" d="M625.43,274.92a27.24,27.24,0,0,0-.56,5.31c0,5.38,2.13,9.89,7.31,9.89,6,0,20.12-2.89,32.55-22.72a.48.48,0,0,1,.76-.07l3,3.37a.81.81,0,0,1,.08,1c-16.19,26.31-30.71,27.44-39.51,27.44-12.42,0-17.8-9.37-17.8-20.44,0-16.57,16.61-37.35,34.66-37.35,8.09,0,13.75,3,13.75,10C659.67,265.87,637.61,274.45,625.43,274.92Zm1.56-5.54c20.08-5.26,25.26-22.4,20.11-22.4C640.68,247,631.18,257.81,627,269.38Z"/><path class="cls-4" d="M715.39,271.67c-11.87,20-19.87,25.62-30.54,27a28.72,28.72,0,0,1-8,1c-12.43,0-17.56-11.89-17.56-20.38,0-3,.78-4.68,2.35-5.29,2.27-3.15,9.94-14.8,18.1-28.14,2.2-3.6,4.88-5.68,10.27-5.68,4.75,0,8.11,3.69,8.11,6.24-8.1,8.11-.77,27.41-3.06,40.41,4.81-3.66,10.23-9.84,16.38-19.44a.48.48,0,0,1,.76-.07l3.1,3.4a.8.8,0,0,1,.1.95Zm-35.12-14.24c-6.09,9.15-11.4,16.74-13.66,19.84-.69,5.5,1.16,11.64,7.09,11.64C684.23,288.91,680.47,271.45,680.27,257.43Z"/><path class="cls-4" d="M707.28,286.43c0-5.88,1-9.81,16.18-42.48a1.61,1.61,0,0,1,1.46-.93h12a.81.81,0,0,1,.73,1.16c-16.52,35.48-17.05,38.86-17.05,43.24,0,1.61.82,2.69,2.14,2.69,2.82,0,11.13-7.89,20.74-22.74a.48.48,0,0,1,.75-.07l3.11,3.42a.8.8,0,0,1,.09.95c-15,24.7-21.22,26.3-28.95,26.3C712.2,298,707.28,293.16,707.28,286.43Zm37.44-65.15c2.54,2.53,1.68,7.51-1.93,11.12s-8.58,4.47-11.12,1.93-1.67-7.51,1.93-11.12S742.19,218.74,744.72,221.28Z"/><path class="cls-4" d="M740,336.08c-8.94,0-16-5.11-16-13.44,0-10.32,9.43-12.59,28.91-16.44,2.34-.46,4.66-1,7-1.55,1.31-2.72,2.59-5.52,3.88-8.29l1.3-2.79c-3.65,3.08-7.18,4.4-10.82,4.4-8.48,0-13.26-6.75-13.26-16.46,0-15.51,14.51-39.62,33.53-39.62,5.37,0,9.67,2.28,11.24,7.3l1.12-2.4a1.62,1.62,0,0,1,1.46-.93h12a.8.8,0,0,1,.73,1.14l-23,49.36c-.25.52-.49,1-.73,1.55,9.84-5.52,19.64-14.57,29.46-30.51a.49.49,0,0,1,.77-.08l3.1,3.4a.81.81,0,0,1,.09.95c-13.41,22.67-25.65,32-38.92,37.26C758.81,333.5,750.86,336.08,740,336.08Zm15-22.15-2.06.48c-15.38,3.58-19.56,4.74-19.56,8.67,0,1.79,1.45,3.64,4.21,3.64C745.07,326.72,750.43,321.34,755,313.93Zm21.14-44,4.89-10.5c.78-7.24-1.58-11.92-5.28-11.92-9.79,0-21.09,23.21-21.09,35,0,3.57,1.54,5.91,3.9,5.91C763.27,288.41,769.81,280.62,776.12,270Z"/><path class="cls-4" d="M839.22,266.85c5.62-12.08,6.94-18.16,2.57-18.16-3.54,0-10.84,4.56-17.71,15.53L808.77,297a1.62,1.62,0,0,1-1.46.93h-12a.8.8,0,0,1-.73-1.14L819.28,244a1.59,1.59,0,0,1,1.45-.93h12a.81.81,0,0,1,.73,1.15l-1.92,4.12c6.45-5.57,11.67-5.75,15.94-5.75,10.84,0,13.38,9.91,9.34,18.52-7.26,15.48-10.68,23-10.68,26.37,0,1.61.62,2.69,2.13,2.69,3.91,0,14-10.23,21.79-22.72a.5.5,0,0,1,.78-.07l3.06,3.38a.81.81,0,0,1,.1,1C858.83,296.38,850.59,298,842.79,298c-6.25,0-10-4.23-10-11C832.76,282,833.3,279.58,839.22,266.85Z"/><path class="cls-3" d="M158.21,336.93h5.52c2.51,0,4.1.22,5.5,1.08a4.67,4.67,0,0,1,2.42,4.21,4.42,4.42,0,0,1-3.13,4.36v.05a4.66,4.66,0,0,1,4,4.82,5.62,5.62,0,0,1-2.37,4.72c-1.45,1-3.44,1.37-6.43,1.37h-5.47Zm6.78,9c2.08,0,3.95-1,3.95-3.21a2.85,2.85,0,0,0-1.45-2.62c-1-.57-2.08-.72-4.13-.72h-2.44v6.55Zm-1.14,9.17c2.33,0,3.64-.23,4.58-.88a3.16,3.16,0,0,0,1.34-2.71c0-2.27-1.79-3.5-4.87-3.5h-4v7.09Z"/><path class="cls-3" d="M182,336.93h5.58a11.64,11.64,0,0,1,5.76,1,5.24,5.24,0,0,1,2.84,4.81,5.47,5.47,0,0,1-2.64,4.84,6.5,6.5,0,0,1-2.37.86l6.61,9.08h-3.28l-6.29-8.83h-3.5v8.83H182Zm6.21,9.56a6.51,6.51,0,0,0,4-.94,3,3,0,0,0,1.23-2.56,3.19,3.19,0,0,0-1.68-2.93,9.1,9.1,0,0,0-4.41-.69h-2.68v7.12Z"/><path class="cls-3" d="M212.52,336.93h2.59l8.52,20.61h-2.91l-2.3-5.75h-9.29l-2.33,5.75H204Zm-2.45,12.5h7.41l-1.69-4.28c-.65-1.65-1.33-3.41-2-5.09h-.06c-.62,1.68-1.31,3.41-2,5.18Z"/><path class="cls-3" d="M231.78,357.54V336.93h2.56L243,348.37c1.19,1.57,2.39,3.19,3.56,4.81l.05,0c0-1.79-.05-3.87-.05-5.86V336.93h2.61v20.61h-2.56L238,346.09c-1.19-1.56-2.39-3.19-3.55-4.81l-.06,0c0,1.79.06,3.87.06,5.87v10.36Z"/><path class="cls-3" d="M259.46,336.93h5.67a13.82,13.82,0,0,1,7.29,1.68,9.72,9.72,0,0,1,4.61,8.54,10,10,0,0,1-4.1,8.31c-2.19,1.54-4.93,2.08-8.49,2.08h-5Zm5.41,18.16a11,11,0,0,0,6.12-1.36,8,8,0,0,0,0-12.93,10.93,10.93,0,0,0-6.21-1.43h-2.64v15.72Z"/><path class="cls-3" d="M286.09,336.93h2.7v20.61h-2.7Z"/><path class="cls-3" d="M299.1,357.54V336.93h2.57l8.62,11.44c1.2,1.57,2.4,3.19,3.56,4.81l.06,0c0-1.79-.06-3.87-.06-5.86V336.93h2.62v20.61h-2.56l-8.63-11.45c-1.19-1.56-2.39-3.19-3.56-4.81l-.05,0c0,1.79.05,3.87.05,5.87v10.36Z"/><path class="cls-3" d="M336.53,336.61a12.11,12.11,0,0,1,6.32,1.71v3.08a10.12,10.12,0,0,0-6.38-2.28,8.14,8.14,0,1,0,.08,16.28,9.32,9.32,0,0,0,4.22-1v-4.82h-4.62v-2.36h7.32v8.52a13.14,13.14,0,0,1-7.14,2.07,10.32,10.32,0,0,1-10.68-10.56A10.44,10.44,0,0,1,336.53,336.61Z"/><path class="cls-3" d="M367.2,334.76h2.11v29H367.2Z"/><path class="cls-3" d="M390.58,336.93h2.88l3.44,11.16c.55,1.73,1.11,3.61,1.63,5.38h.06c.51-1.77,1.08-3.59,1.65-5.41l3.5-11.13h2l3.5,11.16c.57,1.82,1.11,3.56,1.66,5.38h.05c.51-1.77,1.08-3.65,1.62-5.41L416,336.93h2.73l-6.4,20.61h-2.88l-3.3-10.48c-.51-1.62-1-3.22-1.45-4.78h-.06c-.46,1.56-.94,3.19-1.45,4.81l-3.28,10.45H397Z"/><path class="cls-3" d="M427.1,336.93H439v2.44h-9.2v6.27h8.06V348H429.8v7.09h9.45v2.45H427.1Z"/><path class="cls-3" d="M448.49,336.93H454c2.5,0,4.1.22,5.5,1.08a4.68,4.68,0,0,1,2.41,4.21,4.42,4.42,0,0,1-3.13,4.36v.05a4.66,4.66,0,0,1,4,4.82,5.61,5.61,0,0,1-2.36,4.72c-1.45,1-3.45,1.37-6.44,1.37h-5.46Zm6.77,9c2.08,0,4-1,4-3.21a2.87,2.87,0,0,0-1.45-2.62c-1-.57-2.08-.72-4.13-.72h-2.45v6.55Zm-1.14,9.17c2.34,0,3.65-.23,4.59-.88a3.19,3.19,0,0,0,1.34-2.71c0-2.27-1.8-3.5-4.87-3.5h-4v7.09Z"/><path class="cls-3" d="M486,334.76h2.11v29H486Z"/><path class="cls-3" d="M517.61,345.5c-.94-1.34-1.85-2.71-2.77-4.08l-.05,0c0,1.23.05,2.79.05,4.47v11.62h-2.62V336.93h2.62l7.32,10.47,7.32-10.47h2.59v20.61h-2.71V345.92c0-1.68,0-3.24.06-4.47l-.06,0c-.91,1.37-1.82,2.74-2.76,4.08l-4.49,6.43Z"/><path class="cls-3" d="M548.71,336.93h2.59l8.51,20.61h-2.9l-2.31-5.75h-9.28L543,357.54h-2.76Zm-2.45,12.5h7.4L552,345.15c-.65-1.65-1.34-3.41-2-5.09H550c-.63,1.68-1.31,3.41-2,5.18Z"/><path class="cls-3" d="M568,336.93h5.58a11.64,11.64,0,0,1,5.76,1,5.24,5.24,0,0,1,2.84,4.81,5.46,5.46,0,0,1-2.65,4.84,6.46,6.46,0,0,1-2.36.86l6.61,9.08h-3.28l-6.29-8.83h-3.5v8.83H568Zm6.21,9.56a6.51,6.51,0,0,0,4-.94,3,3,0,0,0,1.23-2.56,3.19,3.19,0,0,0-1.68-2.93,9.12,9.12,0,0,0-4.42-.69h-2.67v7.12Z"/><path class="cls-3" d="M592.06,336.93h2.7v9.33l.06,0,9-9.36h3.36l-9.26,9.56L608,357.54h-3.53l-9.62-10.65-.06,0v10.62h-2.7Z"/><path class="cls-3" d="M615.61,336.93h11.9v2.44h-9.19v6.27h8V348h-8v7.09h9.45v2.45H615.61Z"/><path class="cls-3" d="M642.18,339.37h-6.92v-2.44H651.8v2.44h-6.91v18.17h-2.71Z"/><path class="cls-3" d="M660.38,336.93h2.71v20.61h-2.71Z"/><path class="cls-3" d="M673.4,357.54V336.93H676l8.63,11.44c1.19,1.57,2.39,3.19,3.56,4.81l.05,0c0-1.79-.05-3.87-.05-5.86V336.93h2.61v20.61H688.2l-8.62-11.45c-1.2-1.56-2.4-3.19-3.56-4.81l-.06,0c0,1.79.06,3.87.06,5.87v10.36Z"/><path class="cls-3" d="M710.82,336.61a12.08,12.08,0,0,1,6.32,1.71v3.08a10.1,10.1,0,0,0-6.38-2.28,8.14,8.14,0,1,0,.09,16.28,9.31,9.31,0,0,0,4.21-1v-4.82h-4.61v-2.36h7.31v8.52a13.11,13.11,0,0,1-7.14,2.07,10.33,10.33,0,0,1-10.68-10.56A10.44,10.44,0,0,1,710.82,336.61Z"/></g></g></svg>