<svg id="Layer_1" data-name="Layer 1" xmlns="http://www.w3.org/2000/svg" viewBox="0 0 756.79 300.63"><defs><style>.cls-1{fill:#591c1c;}.cls-2{fill:#d9b8b8;}.cls-3{fill:#a9cbd9;}.cls-4{fill:#bf999c;}</style></defs><path class="cls-1" d="M357,192.74l-.16-.06h-.12a.94.94,0,0,0,.1.1Z"/><path class="cls-1" d="M318.29,203.35v-.07l-.11,0Z"/><path class="cls-2" d="M381.4,53.07c-.3-6.07-.71-12.16-2.34-18.06a66.15,66.15,0,0,0-2.51-7.08c-.7-1.72-1.6-3.35-2.43-5C368.86,12.5,360.81,5.2,349.62,1.69,341.21-1,332.83-.66,325,3.77a105.29,105.29,0,0,0-12.56,8.35C300.15,21.72,288,31.5,276.18,41.74a361.88,361.88,0,0,0-28.76,27.31c-5,5.47-9.68,11.22-13,17.93a38.56,38.56,0,0,0-3.65,10.88c-1,6.11.67,11.31,5.73,15.11,2,1.51,4.21,2.75,6.34,4.07,1.23.76,2.49,1.45,3.5,2,2.52,5.79,5,11.22,7.25,16.71a95.48,95.48,0,0,0,12.84,22.29,51.41,51.41,0,0,0,19,15.3,74.2,74.2,0,0,0,27.56,6.9l4,.22c.64,2,2.95,2.66,3.39,4.9-1.06.54-2,1-2.91,1.49a14.33,14.33,0,0,0-7,8.27c-1.32,4.07-.6,11.29,1.51,15.6l2,.21a53.09,53.09,0,0,1,7.95-9.87,44,44,0,0,1,11.18-7.69c1.78,7.34,2.55,14.4,3.72,21.39s2.2,13.86,3.45,20.76,2.72,14,4.15,21.25c.52.72,1.37,1.18,2.82.52a11.51,11.51,0,0,0,.09-2.51c-.44-2.48-1.09-4.91-1.52-7.39q-4.35-25-8.64-50.07a15.14,15.14,0,0,1-.05-2.06,9.39,9.39,0,0,1,1.63-.29,59.34,59.34,0,0,1,13.1,1.58,40.62,40.62,0,0,1-6.16-4.41l-6.94-.69-2-.19c-.23-.49-.43-.94-.73-1.6,1.66-.89,3.23-1.79,4.82-2.62a37.65,37.65,0,0,1-3-4.45,17,17,0,0,1-2.59,1.34c-1-2.14-1.82-4-2.78-6.15l2.34-.8a22.39,22.39,0,0,1-1.45-3.67,44.86,44.86,0,0,1-14.2,3,64.26,64.26,0,0,1-36.13-8.85,47.91,47.91,0,0,1-12-10.31,95.72,95.72,0,0,1-9-12.61,35.25,35.25,0,0,1-3.32-7.34c2.61-.14,4.3,1.85,7.11,1.93-1.37-1.56-2.83-1.85-4.06-2.48s-2.64-1.21-4-1.82a8.51,8.51,0,0,1-2.12-4.51c.94-.85,1.57-.06,2.18.25,3.4,1.76,6.73,3.67,10.18,5.36a70.3,70.3,0,0,0,6.63,2.63,23.32,23.32,0,0,0,3,.55c-1.71-1.63-3.22-1.64-4.45-2.19s-2.7-1.1-4-1.69-2.64-1.23-3.93-1.89-2.35-1.22-3.51-1.86-2.54-1.43-3.78-2.18-2.47-1.54-3.78-2.36c-.69-1.31-1.7-2.53-1.8-4.17,1.31-.61,2.18.21,3.08.64,5.85,2.79,11.71,5.58,17.52,8.46a100.44,100.44,0,0,0,17.77,6.83c9.11,2.55,18.29,2.9,27.39,0a47.62,47.62,0,0,0,4.89-1.89,5.25,5.25,0,0,1,.05-4.08,37.68,37.68,0,0,1-12.65,3.77,46.45,46.45,0,0,1-18.1-1.33,86.47,86.47,0,0,1-15.25-5.65c-10-4.91-19.94-9.83-29.86-14.84a67.18,67.18,0,0,1-7.47-4.49c-4.3-3-5.67-7.14-4.7-12.16a35.85,35.85,0,0,1,5.9-13.78,116.4,116.4,0,0,1,8.21-10.68,255.9,255.9,0,0,1,19-19.16q13.13-12.12,27.06-23.31c6.92-5.53,13.75-11.18,20.76-16.62a94.06,94.06,0,0,1,10.51-7.11,26.35,26.35,0,0,1,21.51-2.22c9.81,3,17,9.27,22,18.3,5.29,9.69,7,20.16,7.19,31a32.4,32.4,0,0,1-2.33,11.62c-5.24,14.48-12.78,27.58-23.41,38.8-1.33,1.41-2.42,3.1-4.42,4.16-.47-1.65.27-3,.46-4.36s.48-2.87.76-4.45c2.29-3.57,5.68-6.58,7.19-10.85-2.51,2.07-3.75,5.27-6.52,7.42-.86-1.41-.58-2.7-.66-3.84l3.27-5.36c-1.83-.21-1.71,1.79-2.93,1.83-.19-.14-.52-.25-.55-.42-.84-4-1.46-8.07-2.49-12a65.16,65.16,0,0,0-7.39-17.07c-4.42-7.33-9.06-9.15-17.41-7A63.65,63.65,0,0,0,307,58.18Q295.91,64,285.17,70.4A118,118,0,0,0,274.54,78,18.73,18.73,0,0,0,269.35,84c-2.27,4.14-3.14,8.8,1.42,14.37a68.89,68.89,0,0,0,9.32,9.15,62.62,62.62,0,0,0,15.26,9.19,41.25,41.25,0,0,0,4.86,1.73,11.63,11.63,0,0,0,10.55-1.85,26.48,26.48,0,0,0,4.45-3.93,36.8,36.8,0,0,0,9.18-25.94,20.8,20.8,0,0,0-1.19-5.8c-1.28-3.9-3.37-4.92-7.34-3.52A36.45,36.45,0,0,0,309,80.44c-5.54,3.38-11,6.94-16.37,10.52a13,13,0,0,0-5,6c-1.24,3.07-.52,6,2.26,7.62A21.5,21.5,0,0,0,304,107.31a6.61,6.61,0,0,0,4.29-2.66c.65-.83,1.18-1.75,1.79-2.69l1.1-.24,1.21-.25-1.52-1.76,2.24-1.27-1.73-2,3.11-.78c0-.16.06-.37,0-.4-.64-.38-1.29-.73-2.41-1.34l3.78-1.55-2.38-.9c0-.33,0-.69.05-1.25l3.55.16c.22-1.25-.74-.93-1.23-1.15s-1.15-.42-1.78-.64c.9-1.87,2.9-.14,4.07-1.66l-3-.78c-.17-.32-.42-.57-.39-.77.17-1.29.41-2.57.67-4.1l3.44-.8a11.42,11.42,0,0,1,1.77,6.26,33,33,0,0,1-9.7,24.79c-3.45,3.53-7.35,4.47-11.92,2.6a62.53,62.53,0,0,1-21.12-13.8,46,46,0,0,1-5.11-6,6.57,6.57,0,0,1-.32-7.56c1.7.31,2.33,1.71,3.28,2.72,1.64,1.72,3.25,3.47,4.93,5.14a4.1,4.1,0,0,0,2.07,1c-3-3.6-6.78-6.55-9-11,.66-.69,1.25-1.29,2-2.06.87,1,1.53,1.76,2.25,2.49s1.32,1.21,2.43,2.21c-.13-1.68-1.1-2.23-1.59-3s-1.12-1.75-1.8-2.8L279,79.62l2.83,1.25-1-2.69c1.14-.9,2.23-1.83,3.41-2.65a157.62,157.62,0,0,1,18.79-11.1c4.35-2.22,8.82-4.23,13.31-6.17a34.47,34.47,0,0,1,6.05-1.88c6-1.4,8.73-.28,12.07,4.9a65.31,65.31,0,0,1,6.52,14,60.2,60.2,0,0,1,3.27,21.88,42.88,42.88,0,0,1-5.5,20.58c2.91-1,5.73-2.08,8.5-3.19,1.63-1.44,3.2-3,4.75-4.49a110.06,110.06,0,0,0,23.82-34.85c.39-.9.57-2,1.71-2.37v0h.12l-.12,0c-.14,4.07-.21,8.14-.47,12.2A6.81,6.81,0,0,1,375.92,88a188.08,188.08,0,0,1-13.44,19c.53-.15,1.06-.29,1.58-.41,3.27-4.35,6.47-8.74,9.7-13.12.69-.92,1.36-1.86,2.16-2.94a9,9,0,0,1-.31,6.21,20.75,20.75,0,0,1-2.07,3.82c-.56.79-1.12,1.59-1.67,2.39.93-.46,1.86-.92,2.8-1.36l.17-.17v.1a38.15,38.15,0,0,1,4.32-1.73A221.32,221.32,0,0,0,381.4,53.07ZM326.32,179.6l1.5,1.7.84-2.41,2-.35c-.15,2.33,1,4.22.83,6.33-4,.46-5.66-.3-8.14-3.57C323.81,180,324.72,179.4,326.32,179.6Zm-.89,9.23c1.61.29,3.39.32,4.63,1.92-1.34.87-2.53,1.65-3.73,2.4s-2.46,1.53-3.7,2.28c-.16.2-.32.39-.65.77l.18-.89-.89-.84a13.5,13.5,0,0,0-3,4.53c-.93,1.81-1.85,3.66-4,4.28v.07l-.11,0,.11,0c0-3,2.19-5.18,3.7-8.21-2.54.78-2.63,3.26-4.58,4.38-.08-5,2.45-7.88,6.24-9.93A8.66,8.66,0,0,1,325.43,188.83ZM311,85.77c-1.25,4.46-2.51,8.92-3.85,13.35-.57,1.89-1.33,3.73-3.64,4.43-1.07-1.81,1.15-3.25.28-5-1.94,1.21-.95,4.56-3.92,5.17-.25-3.43,2.47-5.86,2.63-9.4-1.4.87-1.5,2.13-2,3.1s-.79,2-1.26,2.91-.61,2.28-2.18,3c-.34-2.47,1.42-4.13,1.5-6.12-.72-.51-.95,0-1.18.47-.44.81-.84,1.64-1.25,2.46-.15.84-.08,1.8-1.44,2.14a2.66,2.66,0,0,1,.8-2.3c0-.5-.09-1-.19-2.13l-2.57,4.12L291,100.48a4.52,4.52,0,0,1,1.4-4.2,16,16,0,0,1,2.92-2.65c4.28-2.88,8.62-5.68,12.95-8.49.76-.49,1.6-.86,2.77-1.48A9,9,0,0,1,311,85.77Z"/><path class="cls-1" d="M346.88,189.49l-.18-.18-.19.1Z"/><path class="cls-1" d="M340.14,179.71h0l0,0Z"/><path class="cls-3" d="M331.13,173.47a64.91,64.91,0,0,1-2.47-15.31c-.18-4-.47-7.94-.73-12.14-.5-.6-1.14-1.32-1.74-2.08-1-1.32-2.14-2.6-3.05-4-2.31-3.54-2.16-7.19-.15-10.8a26.09,26.09,0,0,1,4.78-6A51.44,51.44,0,0,1,340,114.86a238.73,238.73,0,0,1,24.29-10.58c9.75-3.74,19.62-7.11,29.55-10.32a68.13,68.13,0,0,1,9.79-2.37c5.91-1,11.24.72,15.92,4.3a26.88,26.88,0,0,1,10.53,18.93c.15,1.23.34,2.46.38,3.7a44.25,44.25,0,0,1,0,5,55.65,55.65,0,0,1-2.66,11.88,147.71,147.71,0,0,1-12.47,29.51c-2.09,3.69-3.91,7.53-6.3,11a76.35,76.35,0,0,1-18.44,19.25,43.51,43.51,0,0,1-10.79,5.58l-1.42.5a10.45,10.45,0,0,1-3.79,6.22c.35.28.51.49.71.55a9.37,9.37,0,0,1,6.29,6.34,49,49,0,0,1,1.46,5.91,2,2,0,0,1-.9,2.21,4.63,4.63,0,0,1-1.34-.43,26.27,26.27,0,0,1-2.3-1.79,35.06,35.06,0,0,0-9.92-5.54,6,6,0,0,0-1.09-.18,9.38,9.38,0,0,0-.43,1.3q-3,16.71-6,33.41c-.3,1.66-.44,3.33-.74,5a7.18,7.18,0,0,1-.63,1.55c-1.06.09-1.49-.4-1.65-1,.76-4.88,1.44-9.6,2.25-14.29s1.72-9.21,2.57-13.82,2-9.27,2.55-14.28a29.41,29.41,0,0,0-8.78,2.28,35.28,35.28,0,0,0-7.24,4.38l-1.18-.58c-.35-3.19.85-7.89,2.61-10.14a9.58,9.58,0,0,1,6.29-3.59c.69-.11,1.38-.18,2.17-.27.24-1.51-1.06-2.47-1-3.85l-2.48-1.06A49.68,49.68,0,0,1,340.06,189a34.38,34.38,0,0,1-8.43-13.94c-.17-.54-.34-1.08-.5-1.62M378,216.55l.09.08-.13,0a4.87,4.87,0,0,0-.62-1.12,11.79,11.79,0,0,0-4.13-2.79,6.66,6.66,0,0,1-1-.56,3.19,3.19,0,0,1,2.06.25,8.47,8.47,0,0,1,1.59.93c.58.4,1.12.86,1.66,1.31s1,.88,1.54,1.32c.19-.21.29-.26.29-.32a6.24,6.24,0,0,0-6.3-5.52c-1.65.15-3.28.46-5,.71,0,.48.07.81.1,1.17l1.24.58,7.38,3.55A11.52,11.52,0,0,0,378,216.55Zm-26.71-2.15c1.56.15,2.57-.82,3.59-1.76a8.8,8.8,0,0,1,2.89-2.17l.37.73-.32.52.58-.34,2.85-.58c.92-.2,1.85-.42,2.89-.66-.42-1.29-1.53-1.71-2.47-2.26a5.77,5.77,0,0,0-3.79-.89c-2.86.42-5.1,1.65-6.19,4.81,1.48-.26,2.1-1.8,3.88-1.71-1.66,1.57-3.53,2.43-4.22,4.35Zm12.25-68.93c.45-.42.89-.85,1.35-1.26.24-.21.51-.51.85,0-.51,1.23-2,1.87-2.34,3.5,1.15-.09,1.52-.87,2.05-1.38s.94-1.06,1.46-1.54.88-1.26,2-1.49c-.91,2.19-3.17,3.09-3.8,5.3,2,.3,2.15-2,3.64-2.34.15,1.31-1.58,1.71-1.32,3.09,1.61.09,2.5-.89,3.3-2,1.85-2.48,3.66-5,5.46-7.51a5.89,5.89,0,0,0,.49-1.32c-.87.13-1.49.17-2.08.3-3.36.77-6.72,1.54-10.07,2.37a11.71,11.71,0,0,0-2.44,1,3,3,0,0,0-1.83,2.32c.18.31.43.73.78,1.3l2.55-2-.37,1.39a1.77,1.77,0,0,0-1,1.26C363.07,146.58,363.25,146,363.53,145.47ZM421,147c-.86-.09-1.23.6-1.69,1.09a73.83,73.83,0,0,1-22.92,16.45c-1.76.8-3.54,1.6-5.37,2.24a12.2,12.2,0,0,0-3.69,2,27.34,27.34,0,0,1-18.77,6,31,31,0,0,1-17.21-6.22,67.4,67.4,0,0,1-9.6-8.34c-3-3.14-6-6.23-9.07-9.32-.47-.47-.82-1.19-1.79-1.1a7,7,0,0,0,.18,3c.63.81,1.22,1.59,1.83,2.34s1.24,1.5,1.88,2.23,1.17,1.33,1.78,2,1.34,1.41,2,2.09,1.44,1.3,2.14,2,1.59,1,2.29,2.39a14.26,14.26,0,0,1-1.77-1,44.76,44.76,0,0,1-3.57-3.16c-1.77-1.85-3.43-3.81-5.17-5.69-.3-.33-.52-1-1.3-.65a5.64,5.64,0,0,0,.3,3.31c.7.69,1.42,1.34,2.08,2a7.06,7.06,0,0,1,2,2.49c-1.74-.7-2.35-2.33-4-2.84a23.28,23.28,0,0,0,.41,5.37,63.09,63.09,0,0,0,2.74,10,32.12,32.12,0,0,0,5.17,9.21,42.86,42.86,0,0,0,20.66,13.8,30,30,0,0,0,15.72.57,36.27,36.27,0,0,0,12.71-5.77,70.32,70.32,0,0,0,14.58-13.83c.49-.6.89-1.28,1.4-2a6.91,6.91,0,0,1-.9-.25,5.05,5.05,0,0,1-.63-.37c3.5-1.64,4.22-2.43,5.11-5.61-1.61.21-2.77,1.76-4.94,1.48,1.63-.86,2.83-1.57,4.1-2.15,2.62-1.2,3.76-3.51,5-6.38-2.41,1.1-4,2.61-5.92,3.67s-3.47,2.52-5.77,2.74c0-.29,0-.42.05-.44a69.68,69.68,0,0,0,11-6.81,12.86,12.86,0,0,0,2.17-1.93,6,6,0,0,0,1.62-3.82l-2,1.35c-3.83,2.54-7.63,5.12-11.5,7.59a30.82,30.82,0,0,1-4.06,1.93c-.28.13-.71.25-.74-.32a102.29,102.29,0,0,0,18.91-12.17,4.43,4.43,0,0,0,1.4-1.56c1.09-2.5,2.07-5.05,3.09-7.58Zm-27.57,15.73a11.93,11.93,0,0,0,3.72-1.6,73.41,73.41,0,0,0,23.57-19,21.71,21.71,0,0,0,4.11-6.76c2.35-6.85,3.67-13.81,2.56-21.1a24.37,24.37,0,0,0-9.61-16.51,17.61,17.61,0,0,0-14-3.52,64.76,64.76,0,0,0-8.23,2.07c-5.63,1.81-11.21,3.8-16.83,5.7q-11.31,3.81-22.31,8.45a172.87,172.87,0,0,0-16.29,7.7,80.37,80.37,0,0,0-7.59,4.83,24.12,24.12,0,0,0-6.85,7.3c-1.76,2.93-1.85,5.88.18,8.71a44.19,44.19,0,0,0,3.66,4.53c5.09,5.41,10.22,10.77,15.36,16.14a59.08,59.08,0,0,0,8.28,7,31.09,31.09,0,0,0,11.07,5,24.53,24.53,0,0,0,15.35-1.22c7.24-3,12.05-8.56,14.9-15.75a40.28,40.28,0,0,0,2.94-14.48,43.89,43.89,0,0,0-.89-10.29c-.92-4-2.35-5.32-6.46-5.83a23.07,23.07,0,0,0-4.23-.2c-3.26.2-6.53.44-9.77.84a104.18,104.18,0,0,0-14.33,2.67c-.93.25-1.83.59-2.75.89,0,.66,0,1.16,0,1.91l-1.49-1.43-1.64.71c.19.82.36,1.49.5,2.17a3.57,3.57,0,0,1,.31,2.26c-.47-.88-.78-1.4-1-1.94s-.51-1.27-.84-2.08l-1.72.84c.39,3.3,2.07,6,3.15,9a2.72,2.72,0,0,1-1.07-1.09c-.68-1.44-1.29-2.91-1.92-4.36-.37-.85-.45-1.88-1.45-2.46a4.4,4.4,0,0,0-1.52,4.82,30.1,30.1,0,0,0,1.83,5A41.73,41.73,0,0,0,362.14,155a6.7,6.7,0,0,0,8.08,1.09A22.09,22.09,0,0,0,382,142.72a7.65,7.65,0,0,0,.32-4.33L380,138.1c-.51.9-1,1.65-1.36,2.42-.07.12,0,.33.07.57l1.7,1.18c-1.08.69-1.94-.86-2.93.11.34.29.67.53,1,.81s.93.27.51,1l-2.2-.9-.31.76,1.29,1.11-2.73.12c.56.64.89,1,1.21,1.38,0,0-.06.15-.1.26l-2.13-.22.64,1.61-1.69.29.54,1.45-.81-.12-.74-.09c-.61.44-1.15.9-1.74,1.27a4.37,4.37,0,0,1-3.3.69,14.3,14.3,0,0,1-8.27-4.93,3.83,3.83,0,0,1,.32-5.3,8.74,8.74,0,0,1,4.52-2.64c4.21-1,8.43-2,12.68-2.86a24,24,0,0,1,5-.36c2.81,0,3.89,1.14,3.81,3.88a14.56,14.56,0,0,1-.58,3.91,24.54,24.54,0,0,1-11.69,14.19,17.3,17.3,0,0,1-3.69,1.46,7.76,7.76,0,0,1-7.05-1.25,29.33,29.33,0,0,1-2.65-2.19,41.92,41.92,0,0,1-7.49-9.26,46.18,46.18,0,0,1-3.76-7.87c-1.59-4.54,0-7.27,2.39-9.35a12.66,12.66,0,0,1,4.61-2.54,81.11,81.11,0,0,1,8.42-2.37q8.2-1.57,16.48-2.69a42.8,42.8,0,0,1,9.8-.18c5.74.54,8.23,2.74,9.33,8.36a43.06,43.06,0,0,1,.74,12.4c-.25,2.72-.79,5.42-1.18,8.12,0,.12.16.26.25.4.78.25,1.16-1,2.26-.48l-3.27,2.62a4.6,4.6,0,0,0-.47,2.55c2.23-.71,3.74-2.44,5.79-3.16-1.93,2.33-4.74,3.45-7,5.16-.54.94-1.05,1.77-1.5,2.63S393.46,161.54,393.38,162.68ZM368.86,207c3.79-.2,6-1.82,6.75-4.93l-1.11,0c-.24.7-.46,1.36-.72,2,0,.09-.26.11-.49.18l-.12-1.86-1.56.12c-.32.81-.59,1.48-.86,2.15l-.29-.06c0-.65-.1-1.29-.16-2l-1.78,0C368.64,204.09,368.74,205.47,368.86,207Zm-6.75-4.36c.8,2.63,1.69,3.49,4.29,4.11.6-1.28.3-2.74.92-4.17l-1.37-.25-1.07,1.32-.56-1.41A1.55,1.55,0,0,0,362.11,202.68Z"/><path class="cls-4" d="M0,210.05C0,189.8,20.49,161.9,61.31,161.9c14.12,0,26.81,2.21,51,2.21,6.71,0,7.79-3.69,9.29-3.69.83,0,1.55,1.25,1.55,2.68,0,4-2.65,12.88-12.15,12.88-13.43,0-31-7.86-53.68-7.86-25.58,0-42.79,24.12-42.79,42.18,0,6.36,2.87,10.84,8.53,10.84,7.49,0,13.81-8.6,13.81-13.14,0-1.76,4.18.14,4.18,4,0,7.37-8.63,19.33-21.56,19.33C10,231.34,0,222.57,0,210.05Zm12.55,43.86c0-2.1.77-3.65,1.53-3.65s1.09,1.3,2.69,1.3c7.55,0,16.38-3.84,33.35-41.24,11.18-24.64,21.66-33.84,32.32-33.84,3.51,0,4.71,3.2,3.36,3.2-22.11,0-32,86.13-60.76,86.13C17.86,265.81,12.55,258.54,12.55,253.91Z"/><path class="cls-4" d="M124,235.68c-13,21.38-17.89,22.76-24.57,22.76a9.59,9.59,0,0,1-9.66-10v-.26c-5.33,7.33-10.13,10.26-15.15,10.26-7.34,0-11.48-5.85-11.48-14.26,0-13.43,12.56-34.31,29-34.31,4.54,0,8.19,1.89,9.63,6l.82-1.78a1.4,1.4,0,0,1,1.26-.81h10.38a.7.7,0,0,1,.63,1c-13.17,28.28-13.63,31.21-13.63,35,0,1.39.71,2.33,1.85,2.33,2.45,0,9.18-6.83,17.46-19.68a.42.42,0,0,1,.67-.05l2.68,2.93A.72.72,0,0,1,124,235.68Zm-30.82-20.9c-8.47,0-18.26,20.1-18.26,30.27,0,3.09,1.33,5.12,3.38,5.12,4.17,0,10-7,15.51-16.48,1-2.48,2.35-5.45,4-9.07C98.3,218.62,96.29,214.78,93.17,214.78Z"/><path class="cls-4" d="M164.47,235.67C154.19,253,147.26,257.85,138,259.06a25,25,0,0,1-6.92.86c-10.76,0-15.21-10.3-15.21-17.65,0-2.62.68-4.05,2-4.58,2-2.73,8.61-12.81,15.68-24.37,1.9-3.11,4.22-4.91,8.89-4.91,4.11,0,7,3.19,7,5.4-7,7-.67,23.73-2.65,35,4.16-3.16,8.86-8.51,14.18-16.83a.42.42,0,0,1,.66-.06l2.68,2.95a.69.69,0,0,1,.09.82Zm-30.41-12.32c-5.27,7.91-9.87,14.49-11.82,17.17-.6,4.76,1,10.08,6.13,10.08C137.49,250.6,134.24,235.48,134.06,223.35Z"/><path class="cls-4" d="M192.06,258.45c-5.41,0-8.68-3.67-8.68-9.5,0-4.31.47-6.43,5.6-17.45,4.86-10.46,6-15.72,2.22-15.72-3.09,0-9.47,4-15.45,13.63l-13.17,28.23a1.39,1.39,0,0,1-1.27.8H151a.7.7,0,0,1-.64-1l34.87-74.77a1.39,1.39,0,0,1,1.26-.8h10.36a.7.7,0,0,1,.63,1l-15.2,32.6a18.66,18.66,0,0,1,13.86-5c9.39,0,11.58,8.58,8.08,16-6.28,13.4-9.24,19.91-9.24,22.82,0,1.4.54,2.33,1.85,2.33,3.38,0,12.14-8.86,18.87-19.67a.4.4,0,0,1,.65-.06l2.67,2.93a.71.71,0,0,1,.08.84C206,257.07,198.82,258.45,192.06,258.45Z"/><path class="cls-4" d="M212,248.45c0-5.09.83-8.5,14-36.78a1.38,1.38,0,0,1,1.26-.8h10.35a.7.7,0,0,1,.64,1c-14.3,30.72-14.76,33.65-14.76,37.44,0,1.39.71,2.33,1.85,2.33,2.44,0,9.64-6.83,18-19.69a.42.42,0,0,1,.65-.06l2.69,3a.68.68,0,0,1,.08.82c-13,21.39-18.38,22.77-25.06,22.77A9.6,9.6,0,0,1,212,248.45ZM244.38,192c2.19,2.2,1.44,6.51-1.68,9.63s-7.43,3.87-9.62,1.67-1.45-6.5,1.67-9.62S242.18,189.85,244.38,192Z"/><path class="cls-4" d="M239.8,248.45c0-5.09.83-8.5,14-36.78a1.4,1.4,0,0,1,1.27-.8h10.35a.7.7,0,0,1,.64,1c-14.31,30.72-14.76,33.65-14.76,37.44,0,1.39.71,2.33,1.85,2.33,2.44,0,9.64-6.83,18-19.69a.41.41,0,0,1,.64-.06l2.7,3a.68.68,0,0,1,.07.82c-13,21.39-18.37,22.77-25.06,22.77A9.6,9.6,0,0,1,239.8,248.45ZM272.22,192c2.19,2.2,1.44,6.51-1.68,9.63s-7.43,3.87-9.62,1.67-1.45-6.5,1.67-9.62S270,189.85,272.22,192Z"/><path class="cls-4" d="M413.29,210.05c0-20.25,22.07-48.15,64.26-48.15,23.5,0,48.28,13.59,48.28,47.21,0,37.46-23.52,57.68-48.16,57.68-11.16,0-17-6.41-17-9.87,0-1.46.68-2.49,1.48-2.49s3.42,4.58,12.64,4.58c19,0,36.65-22.1,36.65-53.14,0-26.86-13.24-38.4-33-38.4-34.43,0-50.66,26.9-50.66,42.83,0,6.36,2.88,10.84,8.53,10.84,7.49,0,13.82-8.6,13.82-13.14,0-1.76,4.17.14,4.17,4,0,7.37-8.63,19.33-21.55,19.33C423.29,231.34,413.29,222.57,413.29,210.05Zm25,55.76c-7.19,0-12.5-7.27-12.5-11.9,0-2.1.78-3.65,1.53-3.65s1.09,1.3,2.69,1.3c7.55,0,16.38-3.84,33.35-41.24,11.18-24.64,21.66-33.84,32.33-33.84,3.51,0,4.71,3.2,3.36,3.2C477,179.68,467.06,265.81,438.34,265.81Z"/><path class="cls-4" d="M541.5,238.48a23.83,23.83,0,0,0-.48,4.61c0,4.65,1.84,8.55,6.33,8.55,5.18,0,17.42-2.5,28.18-19.67a.41.41,0,0,1,.66-.05l2.6,2.92a.71.71,0,0,1,.07.83c-14,22.78-26.6,23.76-34.21,23.76-10.75,0-15.41-8.11-15.41-17.69,0-14.35,14.38-32.35,30-32.35,7,0,11.9,2.59,11.9,8.7C571.15,230.65,552.05,238.08,541.5,238.48Zm1.35-4.79c17.39-4.56,21.87-19.4,17.41-19.4C554.71,214.29,546.48,223.67,542.85,233.69Z"/><path class="cls-4" d="M619.4,235.67C609.11,253,602.19,257.85,593,259.06a25.14,25.14,0,0,1-6.93.86c-10.76,0-15.2-10.3-15.2-17.65,0-2.62.67-4.05,2-4.58,2-2.73,8.6-12.81,15.67-24.37,1.9-3.11,4.22-4.91,8.89-4.91,4.11,0,7,3.19,7,5.4-7,7-.67,23.73-2.65,35,4.17-3.16,8.86-8.51,14.18-16.83a.42.42,0,0,1,.66-.06l2.69,2.95a.71.71,0,0,1,.08.82ZM589,223.35c-5.26,7.91-9.86,14.49-11.82,17.17-.6,4.76,1,10.08,6.14,10.08C592.41,250.6,589.16,235.48,589,223.35Z"/><path class="cls-4" d="M612.38,248.45c0-5.09.83-8.5,14-36.78a1.39,1.39,0,0,1,1.26-.8H638a.7.7,0,0,1,.63,1c-14.3,30.72-14.76,33.65-14.76,37.44,0,1.39.71,2.33,1.85,2.33,2.45,0,9.65-6.83,18-19.69a.42.42,0,0,1,.65-.06c.65.72,2,2.24,2.69,3a.68.68,0,0,1,.08.82c-13,21.39-18.37,22.77-25.06,22.77A9.59,9.59,0,0,1,612.38,248.45ZM644.79,192c2.2,2.2,1.45,6.51-1.67,9.63s-7.43,3.87-9.63,1.67-1.45-6.5,1.68-9.62S642.59,189.85,644.79,192Z"/><path class="cls-4" d="M640.69,291.44c-7.73,0-13.82-4.43-13.82-11.64,0-8.93,8.17-10.9,25-14.23,2-.4,4-.83,6-1.34,1.14-2.36,2.25-4.79,3.37-7.18l1.12-2.41a14.23,14.23,0,0,1-9.37,3.81c-7.34,0-11.48-5.85-11.48-14.26,0-13.43,12.57-34.31,29-34.31,4.66,0,8.37,2,9.74,6.33l1-2.08a1.4,1.4,0,0,1,1.26-.81H693a.7.7,0,0,1,.63,1l-19.93,42.74-.63,1.34c8.52-4.78,17-12.62,25.51-26.42a.41.41,0,0,1,.66-.06l2.68,2.94a.69.69,0,0,1,.09.82c-11.61,19.63-22.21,27.72-33.7,32.26C657,289.2,650.11,291.44,640.69,291.44Zm13-19.18-1.78.41c-13.31,3.11-16.93,4.11-16.93,7.51,0,1.55,1.25,3.15,3.64,3.15C645.09,283.33,649.74,278.67,653.67,272.26ZM672,234.19l4.24-9.09c.67-6.27-1.37-10.32-4.57-10.32-8.48,0-18.26,20.1-18.26,30.27,0,3.09,1.33,5.12,3.38,5.12C660.85,250.17,666.51,243.42,672,234.19Z"/><path class="cls-4" d="M726.61,231.5c4.87-10.46,6-15.72,2.23-15.72-3.07,0-9.39,3.95-15.34,13.44l-13.26,28.42a1.39,1.39,0,0,1-1.26.8H688.62a.7.7,0,0,1-.64-1l21.36-45.78a1.39,1.39,0,0,1,1.26-.8H721a.7.7,0,0,1,.64,1l-1.67,3.57a18.65,18.65,0,0,1,13.81-5c9.38,0,11.57,8.58,8.08,16-6.28,13.4-9.25,19.91-9.25,22.82,0,1.4.54,2.33,1.85,2.33,3.39,0,12.13-8.85,18.86-19.66a.43.43,0,0,1,.68-.06l2.65,2.92a.71.71,0,0,1,.08.84c-13.11,21.39-20.24,22.77-27,22.77-5.4,0-8.68-3.67-8.68-9.5C721,244.64,721.48,242.52,726.61,231.5Z"/><path class="cls-3" d="M173.45,298.1V284.63h8.48v2.12h-6v3.54h5.52v2.1H175.9v5.71Z"/><path class="cls-3" d="M187.9,298.1V284.63h5a5.49,5.49,0,0,1,3.71,1.13,3.78,3.78,0,0,1,1.29,3,3.74,3.74,0,0,1-1.29,3,5.49,5.49,0,0,1-3.71,1.13h-2.53v5.25Zm2.45-6.89h2.28a3,3,0,0,0,2.05-.62,2.05,2.05,0,0,0,.69-1.6,2.17,2.17,0,0,0-.64-1.63,2.55,2.55,0,0,0-1.85-.61h-2.53Zm4.83,6.89-3.57-6.31h2.62l4.15,6.31Z"/><path class="cls-3" d="M209.51,298.39a6.19,6.19,0,0,1-3.17-.8,5.35,5.35,0,0,1-2.15-2.35,10.14,10.14,0,0,1,0-7.8,5.17,5.17,0,0,1,2.15-2.32,6.49,6.49,0,0,1,3.17-.76,6.35,6.35,0,0,1,3.18.78,5.46,5.46,0,0,1,2.16,2.34,8.61,8.61,0,0,1,.78,3.87,8.74,8.74,0,0,1-.78,3.92,5.35,5.35,0,0,1-2.16,2.34A6.35,6.35,0,0,1,209.51,298.39Zm0-2.22a3.16,3.16,0,0,0,2.62-1.25,5.79,5.79,0,0,0,1-3.59,5.68,5.68,0,0,0-1-3.51,3.33,3.33,0,0,0-5.22,0,7,7,0,0,0,0,7.11A3.16,3.16,0,0,0,209.51,296.17Z"/><path class="cls-3" d="M221.59,284.63h2.68l6.12,9.61h-.19v-9.61h2.45V298.1h-2.49l-6.51-10.19H224V298.1h-2.45Z"/><path class="cls-3" d="M237.82,286.75v-2.12H248.6v2.12h-4.72l.55-.56V298.1H242V286.19l.55.56Z"/><path class="cls-3" d="M252.79,292.91v-2.14h5.83v2.14Z"/><path class="cls-3" d="M264.6,298.1V284.63h8.65v2.12h-6.2v3.54h5.83v2.12h-5.83V296h6.2v2.14Z"/><path class="cls-3" d="M279.86,284.63h2.68l6.12,9.61h-.19v-9.61h2.45V298.1h-2.49l-6.52-10.19h.4V298.1h-2.45Z"/><path class="cls-3" d="M297.89,284.63h4.36a7.65,7.65,0,0,1,3.6.82,5.88,5.88,0,0,1,2.4,2.34,7.84,7.84,0,0,1,0,7.14,6,6,0,0,1-2.4,2.34,7.53,7.53,0,0,1-3.6.83h-4.36Zm2.45,2.22v9h1.91a4.11,4.11,0,0,0,2.25-.6,3.94,3.94,0,0,0,1.47-1.61,5.11,5.11,0,0,0,.51-2.32A5.16,5.16,0,0,0,306,289a4,4,0,0,0-1.47-1.59,4.19,4.19,0,0,0-2.25-.59Z"/><path class="cls-3" d="M323.61,284.63H328a7.66,7.66,0,0,1,3.61.82,5.94,5.94,0,0,1,2.4,2.34,7.84,7.84,0,0,1,0,7.14,6.07,6.07,0,0,1-2.4,2.34,7.54,7.54,0,0,1-3.61.83h-4.35Zm2.44,2.22v9H328a4.14,4.14,0,0,0,2.26-.6,3.92,3.92,0,0,0,1.46-1.61,5.11,5.11,0,0,0,.52-2.32,5.17,5.17,0,0,0-.52-2.34,3.93,3.93,0,0,0-1.46-1.59,4.23,4.23,0,0,0-2.26-.59Z"/><path class="cls-3" d="M340.94,298.1V284.63h8.65v2.12h-6.2v3.54h5.83v2.12h-5.83V296h6.2v2.14Z"/><path class="cls-3" d="M360.43,295.42l3.45-10.79h2.57l-4.63,13.47h-2.57l-4.56-13.47h2.59l3.4,10.79Z"/><path class="cls-3" d="M380.21,300.63V282.12h2.45v18.51Z"/><path class="cls-3" d="M402.92,298.39a5.26,5.26,0,0,1-3-.88,6,6,0,0,1-2.11-2.43,8,8,0,0,1-.78-3.64,8.55,8.55,0,0,1,.48-3,6.5,6.5,0,0,1,1.35-2.23,5.69,5.69,0,0,1,2-1.4,6.33,6.33,0,0,1,2.52-.49,5.73,5.73,0,0,1,3.17.83,5.36,5.36,0,0,1,2,2.57l-2.51.58a4.19,4.19,0,0,0-1.22-1.31,2.79,2.79,0,0,0-1.56-.45,3.06,3.06,0,0,0-1.81.59,4.07,4.07,0,0,0-1.32,1.67,7.27,7.27,0,0,0-.05,5.06,3.77,3.77,0,0,0,1.2,1.65,2.9,2.9,0,0,0,1.81.6,3.11,3.11,0,0,0,1.56-.39,2.74,2.74,0,0,0,1.09-1.12,3.56,3.56,0,0,0,.4-1.75h.54a9.34,9.34,0,0,1-.4,2.91,3.91,3.91,0,0,1-1.24,1.91A3.34,3.34,0,0,1,402.92,298.39Zm3.61-.29-.35-3V292.8l-3-.06v-1.55h5.37v6.91Z"/><path class="cls-3" d="M415.16,298.1V284.63h5a5.49,5.49,0,0,1,3.71,1.13,3.78,3.78,0,0,1,1.29,3,3.74,3.74,0,0,1-1.29,3,5.49,5.49,0,0,1-3.71,1.13h-2.53v5.25Zm2.45-6.89h2.28a3,3,0,0,0,2.05-.62,2.05,2.05,0,0,0,.69-1.6,2.2,2.2,0,0,0-.63-1.63,2.56,2.56,0,0,0-1.86-.61h-2.53Zm4.84,6.89-3.57-6.31h2.61l4.15,6.31Z"/><path class="cls-3" d="M430.15,298.1l4.59-13.47h3.07l4.4,13.47h-2.58l-.93-2.91h-5l-.95,2.91Zm4.17-4.76h3.8l-1.89-5.78Z"/><path class="cls-3" d="M447.65,298.1V284.63h4.75a5.18,5.18,0,0,1,3.55,1.12,4.58,4.58,0,0,1,0,6.33,5.18,5.18,0,0,1-3.55,1.12h-2.28v4.9Zm2.47-7h2.28a2.29,2.29,0,0,0,1.72-.6,2.11,2.11,0,0,0,.59-1.54,2.18,2.18,0,0,0-.59-1.56,2.26,2.26,0,0,0-1.72-.61h-2.28Z"/><path class="cls-3" d="M462.87,284.63h2.45v5.62h5.87v-5.62h2.45V298.1h-2.45v-5.71h-5.87v5.71h-2.45Z"/><path class="cls-3" d="M480.62,298.1V284.63h2.45V298.1Z"/><path class="cls-3" d="M495,298.39a5.59,5.59,0,0,1-3.09-.85,5.48,5.48,0,0,1-2-2.42,9.08,9.08,0,0,1-.73-3.79,8.76,8.76,0,0,1,.76-3.84,5.39,5.39,0,0,1,2.07-2.34,5.75,5.75,0,0,1,3-.79,5.43,5.43,0,0,1,3.67,1.14,5.18,5.18,0,0,1,1.7,3l-2.61.48a3.85,3.85,0,0,0-1-1.72,2.48,2.48,0,0,0-1.73-.65,2.74,2.74,0,0,0-1.64.52,3.45,3.45,0,0,0-1.15,1.58,7,7,0,0,0-.43,2.65,7.78,7.78,0,0,0,.38,2.57,3.54,3.54,0,0,0,1.1,1.66,2.67,2.67,0,0,0,1.74.59,2.83,2.83,0,0,0,2-.7,2.41,2.41,0,0,0,.73-1.79h2.61a4.84,4.84,0,0,1-.65,2.56,4.17,4.17,0,0,1-1.85,1.61A6.8,6.8,0,0,1,495,298.39Z"/><path class="cls-3" d="M514.67,284.63H519a7.66,7.66,0,0,1,3.61.82,5.88,5.88,0,0,1,2.4,2.34,7.84,7.84,0,0,1,0,7.14,6,6,0,0,1-2.4,2.34,7.54,7.54,0,0,1-3.61.83h-4.35Zm2.44,2.22v9H519a4.14,4.14,0,0,0,2.26-.6,3.92,3.92,0,0,0,1.46-1.61,5.11,5.11,0,0,0,.52-2.32,5.17,5.17,0,0,0-.52-2.34,3.93,3.93,0,0,0-1.46-1.59,4.23,4.23,0,0,0-2.26-.59Z"/><path class="cls-3" d="M532,298.1V284.63h8.65v2.12h-6.2v3.54h5.83v2.12h-5.83V296h6.2v2.14Z"/><path class="cls-3" d="M552,298.39a6.76,6.76,0,0,1-2.57-.49,4.22,4.22,0,0,1-2.7-4h2.41a2,2,0,0,0,.38,1.28,2.23,2.23,0,0,0,1,.75,4.07,4.07,0,0,0,1.42.24,4.18,4.18,0,0,0,1.33-.2,2.16,2.16,0,0,0,.93-.57,1.26,1.26,0,0,0,.33-.87,1.35,1.35,0,0,0-.41-1.06,3.81,3.81,0,0,0-1.31-.71l-2.65-1.06a7,7,0,0,1-2.39-1.42A3,3,0,0,1,547,288a3.21,3.21,0,0,1,1.3-2.65,5.71,5.71,0,0,1,3.62-1,5.18,5.18,0,0,1,3.49,1.06,4.12,4.12,0,0,1,1.4,2.92h-2.4a2.05,2.05,0,0,0-.73-1.28,3.42,3.42,0,0,0-3.41-.05,1.28,1.28,0,0,0-.59,1.08,1.11,1.11,0,0,0,.37.89,4.08,4.08,0,0,0,1.18.63l2.95,1.14a6.07,6.07,0,0,1,2.29,1.46,3.19,3.19,0,0,1,.8,2.21,3.64,3.64,0,0,1-.61,2.11,3.9,3.9,0,0,1-1.78,1.37A7.33,7.33,0,0,1,552,298.39Z"/><path class="cls-3" d="M563.64,298.1V284.63h2.45V298.1Z"/><path class="cls-3" d="M578,298.39a5.3,5.3,0,0,1-3-.88,6.12,6.12,0,0,1-2.11-2.43,8,8,0,0,1-.77-3.64,8.55,8.55,0,0,1,.48-3,6.64,6.64,0,0,1,1.34-2.23,5.78,5.78,0,0,1,2-1.4,6.4,6.4,0,0,1,2.52-.49,5.73,5.73,0,0,1,3.17.83,5.3,5.3,0,0,1,2,2.57l-2.51.58a4.08,4.08,0,0,0-1.22-1.31,2.79,2.79,0,0,0-1.56-.45,3.06,3.06,0,0,0-1.81.59,4,4,0,0,0-1.31,1.67,6.25,6.25,0,0,0-.49,2.6,6.4,6.4,0,0,0,.43,2.46,3.79,3.79,0,0,0,1.21,1.65,2.87,2.87,0,0,0,1.8.6,3.09,3.09,0,0,0,1.56-.39,2.68,2.68,0,0,0,1.09-1.12,3.56,3.56,0,0,0,.4-1.75h.54a9.34,9.34,0,0,1-.4,2.91,3.85,3.85,0,0,1-1.24,1.91A3.33,3.33,0,0,1,578,298.39Zm3.61-.29-.36-3V292.8l-3-.06v-1.55h5.38v6.91Z"/><path class="cls-3" d="M590.19,284.63h2.67l6.12,9.61h-.18v-9.61h2.44V298.1h-2.49l-6.51-10.19h.39V298.1h-2.44Z"/></svg>